<svg width="18" height="14" viewBox="0 0 18 14" fill="none" xmlns="http://www.w3.org/2000/svg">
<path d="M13.8926 1.37498C13.7633 1.00955 13.5238 0.693182 13.2073 0.469424C12.8908 0.245666 12.5126 0.125519 12.125 0.125519C11.7374 0.125519 11.3592 0.245666 11.0427 0.469424C10.7262 0.693182 10.4867 1.00955 10.3574 1.37498H0.875V2.62498H10.3574C10.4867 2.99042 10.7262 3.30679 11.0427 3.53055C11.3592 3.7543 11.7374 3.87445 12.125 3.87445C12.5126 3.87445 12.8908 3.7543 13.2073 3.53055C13.5238 3.30679 13.7633 2.99042 13.8926 2.62498H17.125V1.37498H13.8926ZM5.875 5.12499C5.48741 5.12554 5.10949 5.24596 4.79304 5.46975C4.47658 5.69354 4.2371 6.00974 4.10742 6.37498H0.875V7.62498H4.10742C4.23675 7.99042 4.47616 8.30679 4.7927 8.53055C5.10924 8.7543 5.48736 8.87445 5.875 8.87445C6.26264 8.87445 6.64076 8.7543 6.9573 8.53055C7.27384 8.30679 7.51325 7.99042 7.64258 7.62498H17.125V6.37498H7.64258C7.5129 6.00974 7.27342 5.69354 6.95696 5.46975C6.64051 5.24596 6.26259 5.12554 5.875 5.12499ZM12.125 10.125C11.7374 10.1255 11.3595 10.246 11.043 10.4698C10.7266 10.6935 10.4871 11.0097 10.3574 11.375H0.875V12.625H10.3574C10.4867 12.9904 10.7262 13.3068 11.0427 13.5305C11.3592 13.7543 11.7374 13.8745 12.125 13.8745C12.5126 13.8745 12.8908 13.7543 13.2073 13.5305C13.5238 13.3068 13.7633 12.9904 13.8926 12.625H17.125V11.375H13.8926C13.7629 11.0097 13.5234 10.6935 13.207 10.4698C12.8905 10.246 12.5126 10.1255 12.125 10.125Z" fill="#181818"/>
</svg>
