<svg width="17" height="17" viewBox="0 0 17 17" fill="none" xmlns="http://www.w3.org/2000/svg">
<path fill-rule="evenodd" clip-rule="evenodd" d="M10.636 0.884939C10.3556 0.604384 10.0226 0.381831 9.65604 0.229991C9.28954 0.0781516 8.89671 0 8.5 0C8.10329 0 7.71046 0.0781516 7.34395 0.229991C6.97745 0.381831 6.64445 0.604384 6.36397 0.884939L0.88494 6.36397C0.604384 6.64445 0.381831 6.97745 0.229991 7.34395C0.0781517 7.71046 0 8.10329 0 8.5C0 8.89671 0.0781517 9.28954 0.229991 9.65605C0.381831 10.0226 0.604384 10.3556 0.88494 10.636L6.36397 16.1151C6.64445 16.3956 6.97745 16.6182 7.34395 16.77C7.71046 16.9218 8.10329 17 8.5 17C8.89671 17 9.28954 16.9218 9.65604 16.77C10.0226 16.6182 10.3556 16.3956 10.636 16.1151L16.1151 10.636C16.3956 10.3556 16.6182 10.0226 16.77 9.65605C16.9218 9.28954 17 8.89671 17 8.5C17 8.10329 16.9218 7.71046 16.77 7.34395C16.6182 6.97745 16.3956 6.64445 16.1151 6.36397L10.636 0.884939ZM7.89592 4.7112V7.73161H4.87551V8.93977H7.89592V11.9602H9.10408V8.93977H12.1245V7.73161H9.10408V4.7112H7.89592Z" fill="#FFFAFA"/>
</svg>
