<svg width="14" height="14" viewBox="0 0 14 14" fill="none" xmlns="http://www.w3.org/2000/svg">
<path d="M0.333008 11.6668C0.333008 12.8002 1.19967 13.6668 2.33301 13.6668H11.6663C12.7997 13.6668 13.6663 12.8002 13.6663 11.6668V6.3335H0.333008V11.6668ZM11.6663 1.66683H10.333V1.00016C10.333 0.600163 10.0663 0.333496 9.66634 0.333496C9.26634 0.333496 8.99967 0.600163 8.99967 1.00016V1.66683H4.99967V1.00016C4.99967 0.600163 4.73301 0.333496 4.33301 0.333496C3.93301 0.333496 3.66634 0.600163 3.66634 1.00016V1.66683H2.33301C1.19967 1.66683 0.333008 2.5335 0.333008 3.66683V5.00016H13.6663V3.66683C13.6663 2.5335 12.7997 1.66683 11.6663 1.66683Z" fill="white"/>
</svg>
