<svg width="1271" height="832" viewBox="0 0 1271 832" fill="none" xmlns="http://www.w3.org/2000/svg">
<g clip-path="url(#clip0_906_7206)">
<path opacity="0.1" d="M-38.3928 405.715H83.3908V571.66H-29.4771C-29.7771 573.364 -30.0651 575.079 -30.3771 576.795H83.3908V710.626C83.1868 710.566 83.0068 710.494 82.8148 710.422C79.599 709.15 76.4071 707.807 73.2152 706.367L71.1753 705.443C67.9754 703.932 64.7755 702.332 61.5756 700.645C60.4597 700.057 59.3437 699.445 58.2397 698.821C40.4754 688.873 24.3374 676.267 10.3855 661.441C9.97749 661.045 9.5935 660.625 9.18552 660.241C7.24159 658.13 5.33366 655.995 3.48573 653.811L1.44579 651.412C-0.738129 648.737 -2.85005 645.99 -4.90198 643.206C-5.20197 642.799 -5.48996 642.391 -5.80194 642.007C-14.1471 630.439 -21.0762 617.914 -26.4412 604.698C-26.6092 604.302 -26.7532 603.871 -26.9092 603.499C-28.5571 599.26 -30.0171 594.981 -31.289 590.663C-31.841 588.851 -32.369 587.064 -32.825 585.18C-32.993 584.628 -33.137 584.089 -33.2689 583.549C-40.0847 556.953 -40.8887 529.325 -40.8887 501.89C-40.8887 498.687 -40.8887 495.472 -40.8887 492.293C-40.8887 481.196 -40.7567 470.028 -40.5647 458.871C-40.5647 455.98 -40.4447 453.101 -40.3847 450.198C-40.2167 442.832 -39.9767 435.466 -39.6647 428.1C-39.5927 426.049 -39.4967 424.01 -39.3887 421.97C-39.3887 420.795 -39.3287 419.619 -39.2087 418.443C-38.9207 414.173 -38.6807 409.938 -38.3928 405.715Z" fill="#4BB2E2"/>
<path opacity="0.1" d="M83.3914 220.948H16.5898C27.4488 203.956 39.3135 187.628 52.1205 172.051C62.0442 159.863 72.5198 147.986 83.3914 136.542V220.948Z" fill="#4BB2E2"/>
<path opacity="0.1" d="M83.3908 226.083V400.581H-38.0088C-38.0088 400.077 -37.9248 399.561 -37.8888 399.057C-37.7808 397.678 -37.6728 396.298 -37.5528 394.931C-37.4208 393.323 -37.2768 391.704 -37.1208 390.132C-36.9648 388.561 -36.7968 386.641 -36.6168 384.902C-36.4368 383.162 -36.2689 381.399 -36.0649 379.659C-35.8609 377.92 -35.6809 376.18 -35.4649 374.453C-35.2489 372.726 -35.0569 370.974 -34.8289 369.247C-34.6489 367.807 -34.4569 366.379 -34.2649 364.94C-33.9889 362.913 -33.7009 360.873 -33.389 358.858C-33.389 358.558 -33.305 358.246 -33.257 357.958C-31.0668 343.205 -28.0826 328.58 -24.3173 314.148C-20.3759 299.008 -15.3429 284.174 -9.25783 269.761C-2.79049 254.684 4.78183 240.105 13.3973 226.143L83.3908 226.083Z" fill="#4BB2E2"/>
<path opacity="0.1" d="M112.466 405.703V571.66H372.58V405.703H112.466ZM112.466 576.783V719.299C113.954 719.611 115.43 719.911 116.894 720.163C118.886 720.547 120.866 720.895 122.893 721.195C123.277 721.255 123.673 721.315 124.093 721.351C124.885 721.482 125.701 721.59 126.493 721.698C128.497 721.974 130.489 722.202 132.493 722.382C133.441 722.478 134.401 722.562 135.361 722.634L137.677 722.814C138.937 722.91 140.185 722.982 141.421 723.018C142.189 723.018 142.957 723.09 143.749 723.114C144.349 723.114 144.949 723.114 145.573 723.114C146.197 723.114 147.085 723.114 147.841 723.114C148.872 723.114 149.904 723.114 150.924 723.114H152.304C153.336 723.114 154.368 723.114 155.388 723.018H155.46C156.168 723.018 156.888 723.018 157.608 722.922C157.808 722.934 158.008 722.934 158.208 722.922C158.808 722.922 159.408 722.922 159.984 722.838H160.404L164.424 722.526C165.744 722.406 167.076 722.25 168.42 722.106L171.156 721.782C182.286 720.223 193.293 717.882 204.094 714.777C228.358 708.011 252.093 698.546 276.344 691.612C307.699 682.674 342.341 678.284 372.64 689.212V576.783H112.466ZM372.58 220.948V0.0118061C344.102 -0.296648 315.701 3.0333 288.067 9.92077C222.202 26.4637 163.104 62.3447 112.466 108.171V220.936H125.521V226.058H112.466V400.581H372.58V226.07H179.123V220.948H372.58ZM706.684 146.319C690.389 145.743 674.189 140.585 659.538 132.619C631.519 117.384 609.14 93.859 584.133 74.0051C532.175 32.6538 467.737 7.70145 401.631 1.51135V220.948H772.958L773.882 219.976L706.684 146.319ZM740.511 140.321L776.378 179.669V130.004C764.366 131.491 753.843 135.03 740.559 140.273L740.511 140.321ZM776.378 754.688V576.783H699.953C699.749 576.027 699.544 575.259 699.305 574.492C699.532 575.259 699.724 576.027 699.94 576.783H401.679V705.443C404.511 707.543 407.307 709.75 410.079 711.993C413.067 714.393 416.019 716.924 418.983 719.407L421.971 721.878C423.399 723.078 424.838 724.278 426.29 725.405C429.17 727.741 432.078 730.044 435.014 732.315C436.466 733.515 437.954 734.594 439.43 735.722C462.862 753.632 487.579 769.795 513.383 784.079C519.167 787.278 525.003 790.401 530.891 793.448C534.814 795.452 538.762 797.443 542.722 799.375C548.674 802.278 554.674 805.077 560.722 807.772C616.479 832.794 675.439 849.965 735.915 858.792C749.347 860.776 762.83 862.335 776.366 863.471V754.676H777.566L776.378 754.688ZM401.679 226.07V400.581H776.426V226.07H401.679ZM401.679 405.703V571.66H776.426V405.703H401.679ZM805.513 129.788V185.187L851.291 134.97C836.124 132.523 820.864 130.776 805.513 129.728V129.788ZM805.513 405.763V571.66H1170V405.703L805.513 405.763ZM1168.67 767.86L1169.95 576.783H805.513V865.378C828.99 866.364 852.503 866.084 875.95 864.539H876.358C887.558 863.835 898.705 862.811 909.801 861.468H910.053C969.247 854.58 1027.13 839.14 1081.89 815.63M1240.28 433.031C1238.91 429.804 1237.48 426.601 1236.03 423.434C1233.32 417.436 1230.45 411.606 1227.5 405.775H1199.06V571.66H1270.96C1270.93 524.683 1259.04 476.698 1240.32 432.971L1240.28 433.031ZM1199.06 576.843V741.192C1219.32 721.782 1236.43 699.577 1248.75 674.193C1263.57 643.626 1270.35 610.529 1270.9 576.819L1199.06 576.843ZM1199.06 357.406V400.593H1224.84C1217.04 385.726 1208.45 371.29 1199.1 357.346L1199.06 357.406ZM951.871 162.346C949.975 161.626 948.08 160.894 946.172 160.187C926.049 152.758 905.487 146.58 884.602 141.688L814.548 218.549L813.204 219.976L814.104 220.96H1063.43C1028.71 197.064 991.271 177.368 951.907 162.286L951.871 162.346ZM1070.74 226.13H810.624L805.513 230.809V400.581H850.319H850.391H1170.05V318.346C1141.13 283.384 1107.76 252.361 1070.78 226.07L1070.74 226.13Z" fill="#4BB2E2"/>
<path opacity="0.1" d="M83.3908 314.1V400.581H-38.0088C-38.0088 400.077 -37.9248 399.561 -37.8888 399.058C-37.7808 397.678 -37.6728 396.298 -37.5528 394.931C-37.4208 393.323 -37.2768 391.704 -37.1208 390.132C-36.9648 388.561 -36.7968 386.641 -36.6168 384.902C-36.4368 383.162 -36.2689 381.399 -36.0649 379.659C-35.8609 377.92 -35.6809 376.181 -35.4649 374.453C-35.2489 372.726 -35.0569 370.974 -34.8289 369.247C-34.6489 367.807 -34.4569 366.38 -34.2649 364.94C-33.9889 362.913 -33.7009 360.873 -33.389 358.858C-33.389 358.558 -33.305 358.246 -33.257 357.958C-31.0668 343.205 -28.0826 328.58 -24.3173 314.148L83.3908 314.1Z" fill="#4BB2E2"/>
<path opacity="0.1" d="M-38.3928 405.715H83.3908V571.66H-29.4771C-29.7771 573.364 -30.0651 575.079 -30.3771 576.795H83.3908V710.626C83.1868 710.566 83.0068 710.494 82.8148 710.422C79.599 709.15 76.4071 707.807 73.2152 706.367L71.1753 705.443C67.9754 703.932 64.7755 702.332 61.5756 700.645C60.4597 700.057 59.3437 699.445 58.2397 698.821C40.4754 688.873 24.3374 676.267 10.3855 661.441C9.97749 661.045 9.5935 660.625 9.18552 660.241C7.24159 658.13 5.33366 655.995 3.48573 653.811L1.44579 651.412C-0.738129 648.737 -2.85005 645.99 -4.90198 643.206C-5.20197 642.799 -5.48996 642.391 -5.80194 642.007C-14.1471 630.439 -21.0762 617.914 -26.4412 604.698C-26.6092 604.302 -26.7532 603.871 -26.9092 603.499C-28.5571 599.26 -30.0171 594.981 -31.289 590.663C-31.841 588.851 -32.369 587.064 -32.825 585.18C-32.993 584.628 -33.137 584.089 -33.2689 583.549C-40.0847 556.953 -40.8887 529.325 -40.8887 501.89C-40.8887 498.687 -40.8887 495.472 -40.8887 492.293C-40.8887 481.196 -40.7567 470.028 -40.5647 458.871C-40.5647 455.98 -40.4447 453.101 -40.3847 450.198C-40.2167 442.832 -39.9767 435.466 -39.6647 428.1C-39.5927 426.049 -39.4967 424.01 -39.3887 421.97C-39.3887 420.795 -39.3287 419.619 -39.2087 418.443C-38.9207 414.173 -38.6807 409.938 -38.3928 405.715Z" fill="#4BB2E2"/>
<path opacity="0.1" d="M204.035 251.059V400.581H112.466V251.059H125.521V200.435H179.111V251.059H204.035Z" fill="#4BB2E2"/>
<path opacity="0.1" d="M204.034 405.704H112.478V571.649H204.034V405.704Z" fill="#4BB2E2"/>
<path opacity="0.1" d="M112.466 576.795H204.034V714.753C193.233 717.855 182.226 720.193 171.096 721.746L168.36 722.082C167.016 722.238 165.684 722.37 164.364 722.502C163.044 722.634 161.676 722.73 160.344 722.814H159.924C159.348 722.814 158.724 722.886 158.16 722.898H157.548C156.828 722.898 156.108 722.97 155.388 722.994C154.368 723.054 153.348 723.066 152.304 723.078C151.86 723.078 151.44 723.078 150.996 723.078C149.964 723.078 148.944 723.078 147.913 723.078H145.645C145.033 723.078 144.445 723.078 143.809 723.078L141.493 722.994C140.293 722.994 138.997 722.862 137.749 722.778L135.445 722.61L132.577 722.346C130.561 722.166 128.557 721.938 126.577 721.662L124.177 721.327L122.977 721.159C120.974 720.847 118.994 720.511 116.978 720.127C115.502 719.875 114.038 719.563 112.55 719.263L112.466 576.795Z" fill="#4BB2E2"/>
<path opacity="0.1" d="M776.426 233.4H700.925V400.569H776.426V233.4Z" fill="#4BB2E2"/>
<path opacity="0.1" d="M776.438 405.704V571.661H401.68V500.079H601.292V542.306H700.925V405.704H776.438Z" fill="#4BB2E2"/>
<path opacity="0.1" d="M777.626 754.725H776.426V863.591C762.907 862.448 749.427 860.892 735.988 858.925C675.481 850.069 616.497 832.862 560.722 807.796C544.618 800.551 528.843 792.641 513.396 784.068C487.592 769.776 462.871 753.614 439.43 735.71C433.543 731.2 427.731 726.585 421.995 721.867C418.023 718.592 414.075 715.233 410.079 711.97C407.307 709.726 404.512 707.519 401.68 705.408V576.795H699.929C699.725 576.027 699.521 575.26 699.305 574.504C699.533 575.26 699.749 576.027 699.953 576.795H776.426V754.653C776.834 754.665 777.23 754.701 777.626 754.725Z" fill="#4BB2E2"/>
<path opacity="0.1" d="M973.339 220.948H924.141V205.665H946.196V160.139C948.108 160.834 950.012 161.55 951.908 162.286V205.665H973.339V220.948Z" fill="#4BB2E2"/>
<path opacity="0.1" d="M1091.87 400.581H850.343C850.343 400.581 850.343 400.581 850.427 400.641L850.319 400.581H805.513V233.412H818.208V356.974H876.226V283.797H924.152V226.083H973.351V283.845H1021.28V357.022H1091.87V400.581Z" fill="#4BB2E2"/>
<path opacity="0.1" d="M805.513 405.704V571.661H1091.87V405.704H805.513ZM1169.6 767.009L1170 635.649H1091.87V576.867H805.513V865.379C828.99 866.365 852.503 866.084 875.95 864.539H876.358C887.558 863.835 898.705 862.811 909.801 861.468H910.053C969.247 854.58 1027.13 839.14 1081.89 815.63" fill="#4BB2E2"/>
<path opacity="0.1" d="M1204.15 576.795H1270.95C1270.36 610.493 1263.6 643.59 1248.79 674.157C1236.47 699.553 1219.34 721.758 1199.11 741.157V635.589H1204.15V576.795Z" fill="#4BB2E2"/>
<path opacity="0.1" d="M1270.99 571.661H1204.15V432.971H1240.32C1259.04 476.698 1270.93 524.683 1270.99 571.661Z" fill="#4BB2E2"/>
<path opacity="0.1" d="M776.438 279.874H735.987V332.286H776.438V279.874Z" fill="#4BB2E2"/>
<path opacity="0.1" d="M776.438 388.513H735.987V400.581H776.438V388.513Z" fill="#4BB2E2"/>
<path opacity="0.1" d="M776.438 405.704H735.987V440.913H776.438V405.704Z" fill="#4BB2E2"/>
<path opacity="0.1" d="M776.438 497.151H735.987V549.563H776.438V497.151Z" fill="#4BB2E2"/>
<path opacity="0.1" d="M776.438 605.79H735.987V658.202H776.438V605.79Z" fill="#4BB2E2"/>
<path opacity="0.1" d="M776.426 754.652C776.834 754.652 777.23 754.652 777.626 754.724H776.426V766.901H735.987V714.429H776.426V754.652Z" fill="#4BB2E2"/>
<path opacity="0.1" d="M776.426 823.044V863.532C762.906 862.388 749.427 860.832 735.987 858.865V823.044H776.426Z" fill="#4BB2E2"/>
<path opacity="0.1" d="M575.037 567.81H401.68V571.661H575.037V567.81Z" fill="#4BB2E2"/>
<path opacity="0.1" d="M575.037 576.783H401.68V591.539H575.037V576.783Z" fill="#4BB2E2"/>
<path opacity="0.1" d="M575.037 639.908H401.68V663.636H575.037V639.908Z" fill="#4BB2E2"/>
<path opacity="0.1" d="M575.025 712.006V735.735H439.43C433.543 731.24 427.727 726.625 421.983 721.891C418.011 718.616 414.075 715.257 410.067 712.006H575.025Z" fill="#4BB2E2"/>
<path opacity="0.1" d="M575.025 784.092V807.796H560.71C544.622 800.543 528.851 792.629 513.396 784.056L575.025 784.092Z" fill="#4BB2E2"/>
<path opacity="0.1" d="M910.089 421.791H875.962V455.908H910.089V421.791Z" fill="#4BB2E2"/>
<path opacity="0.1" d="M171.18 262.827H137.053V296.945H171.18V262.827Z" fill="#4BB2E2"/>
<path opacity="0.1" d="M171.18 342.075H137.053V376.193H171.18V342.075Z" fill="#4BB2E2"/>
<path opacity="0.1" d="M171.18 421.323H137.053V455.44H171.18V421.323Z" fill="#4BB2E2"/>
<path opacity="0.1" d="M171.18 500.559H137.053V534.676H171.18V500.559Z" fill="#4BB2E2"/>
<path opacity="0.1" d="M171.18 579.806H137.053V613.924H171.18V579.806Z" fill="#4BB2E2"/>
<path opacity="0.1" d="M171.18 659.054H137.053V693.171H171.18V659.054Z" fill="#4BB2E2"/>
<path opacity="0.1" d="M1040.37 421.791H1006.24V455.908H1040.37V421.791Z" fill="#4BB2E2"/>
<path opacity="0.1" d="M910.089 505.945H875.962V540.062H910.089V505.945Z" fill="#4BB2E2"/>
<path opacity="0.1" d="M1040.37 505.945H1006.24V540.062H1040.37V505.945Z" fill="#4BB2E2"/>
<path opacity="0.1" d="M910.089 590.087H875.962V624.204H910.089V590.087Z" fill="#4BB2E2"/>
<path opacity="0.1" d="M1040.37 590.087H1006.24V624.204H1040.37V590.087Z" fill="#4BB2E2"/>
<path opacity="0.1" d="M910.089 674.241H875.962V708.359H910.089V674.241Z" fill="#4BB2E2"/>
<path opacity="0.1" d="M1040.37 674.241H1006.24V708.359H1040.37V674.241Z" fill="#4BB2E2"/>
<path opacity="0.1" d="M910.089 758.396H875.962V792.513H910.089V758.396Z" fill="#4BB2E2"/>
<path opacity="0.1" d="M1040.37 758.396H1006.24V792.513H1040.37V758.396Z" fill="#4BB2E2"/>
<path opacity="0.1" d="M-33.4004 357.934V377.452H83.3914V357.934H-33.4004ZM-21.7608 376.228H-31.2885V359.134H-21.6888L-21.7608 376.228ZM-10.1332 376.228H-19.7329V359.134H-10.1332V376.228ZM1.47035 376.228H-8.1293V359.134H1.47035V376.228ZM13.0979 376.228H3.51028V359.134H13.1099L13.0979 376.228ZM24.7135 376.228H15.1139V359.134H24.7135V376.228ZM36.3411 376.228H26.7414V359.134H36.3411V376.228ZM47.9687 376.228H38.369V359.134H47.9687V376.228ZM59.5842 376.228H49.9846V359.134H59.5842V376.228ZM71.1998 376.228H61.6002V359.134H71.1998V376.228ZM82.8154 376.228H73.2157V359.134H82.8154V376.228Z" fill="#4BB2E2"/>
<path opacity="0.1" d="M-33.4004 414.725V434.243H83.3914V414.725H-33.4004ZM-21.7608 433.007H-31.2885V415.96H-21.6888L-21.7608 433.007ZM-10.1332 433.007H-19.7329V415.96H-10.1332V433.007ZM1.47035 433.007H-8.1293V415.96H1.47035V433.007ZM13.0979 433.007H3.51028V415.96H13.1099L13.0979 433.007ZM24.7135 433.007H15.1139V415.96H24.7135V433.007ZM36.3411 433.007H26.7414V415.96H36.3411V433.007ZM47.9687 433.007H38.369V415.96H47.9687V433.007ZM59.5842 433.007H49.9846V415.96H59.5842V433.007ZM71.1998 433.007H61.6002V415.96H71.1998V433.007ZM82.8154 433.007H73.2157V415.96H82.8154V433.007Z" fill="#4BB2E2"/>
<path opacity="0.1" d="M-33.4004 471.54V491.094H83.3914V471.54H-33.4004ZM-21.7608 489.822H-31.2885V472.763H-21.6888L-21.7608 489.822ZM-10.1332 489.822H-19.7329V472.763H-10.1332V489.822ZM1.47035 489.822H-8.1293V472.763H1.47035V489.822ZM13.0979 489.822H3.51028V472.763H13.1099L13.0979 489.822ZM24.7135 489.822H15.1139V472.763H24.7135V489.822ZM36.3411 489.822H26.7414V472.763H36.3411V489.822ZM47.9687 489.822H38.369V472.763H47.9687V489.822ZM59.5842 489.822H49.9846V472.763H59.5842V489.822ZM71.1998 489.822H61.6002V472.763H71.1998V489.822ZM82.8154 489.822H73.2157V472.763H82.8154V489.822Z" fill="#4BB2E2"/>
<path opacity="0.1" d="M-33.4004 528.354V547.848H83.3914V528.354H-33.4004ZM-21.7608 546.636H-31.2885V529.566H-21.6888L-21.7608 546.636ZM-10.1332 546.636H-19.7329V529.566H-10.1332V546.636ZM1.47035 546.636H-8.1293V529.566H1.47035V546.636ZM13.0979 546.636H3.51028V529.566H13.1099L13.0979 546.636ZM24.7135 546.636H15.1139V529.566H24.7135V546.636ZM36.3411 546.636H26.7414V529.566H36.3411V546.636ZM47.9687 546.636H38.369V529.566H47.9687V546.636ZM59.5842 546.636H49.9846V529.566H59.5842V546.636ZM71.1998 546.636H61.6002V529.566H71.1998V546.636ZM82.8154 546.636H73.2157V529.566H82.8154V546.636Z" fill="#4BB2E2"/>
<path opacity="0.1" d="M-32.8965 585.156C-32.4285 586.992 -31.9005 588.827 -31.3485 590.639V586.38H-21.7489V603.439H-26.8847C-26.7287 603.835 -26.5727 604.266 -26.4167 604.638H83.3913V585.156H-32.8965ZM-10.0973 603.439H-19.697V586.38H-10.0973V603.439ZM1.50627 603.439H-8.09339V586.38H1.50627V603.439ZM13.1338 603.439H3.51019V586.38H13.1098L13.1338 603.439ZM24.7494 603.439H15.1498V586.38H24.7494V603.439ZM36.377 603.439H26.7773V586.38H36.377V603.439ZM48.0046 603.439H38.4049V586.38H48.0046V603.439ZM59.6202 603.439H50.0205V586.38H59.6202V603.439ZM71.2357 603.439H61.6361V586.38H71.2357V603.439ZM82.8513 603.439H73.2517V586.38H82.8513V603.439Z" fill="#4BB2E2"/>
<path opacity="0.1" d="M-5.77734 641.971C-5.47735 642.355 -5.18937 642.787 -4.87738 643.171H1.47039V651.364C2.15437 652.18 2.82634 652.996 3.52232 653.764V643.123H13.122V660.242H9.23411C9.61809 660.637 9.99008 661.057 10.4341 661.441H83.4274V641.971H-5.77734ZM24.7135 660.242H15.1139V643.195H24.7135V660.242ZM36.3411 660.242H26.7415V643.195H36.3411V660.242ZM47.9687 660.242H38.3691V643.195H47.9687V660.242ZM59.5843 660.242H49.9846V643.195H59.5843V660.242ZM71.1999 660.242H61.6002V643.195H71.1999V660.242ZM82.8154 660.242H73.2158V643.195H82.8154V660.242Z" fill="#4BB2E2"/>
<path opacity="0.1" d="M58.2881 698.773C59.38 699.397 60.496 699.973 61.624 700.597V699.997H71.2236V705.395L73.2636 706.343V699.997H82.8632V710.374C83.0473 710.465 83.2403 710.538 83.4392 710.59V698.773H58.2881Z" fill="#4BB2E2"/>
<path opacity="0.1" d="M699.305 574.492C699.533 575.259 699.725 576.027 699.941 576.783C699.749 576.027 699.544 575.259 699.305 574.492ZM125.569 220.912V226.035H179.171V220.912H125.569ZM699.305 574.492C699.533 575.259 699.725 576.027 699.941 576.783C699.749 576.027 699.544 575.259 699.305 574.492ZM699.305 574.492C699.533 575.259 699.725 576.027 699.941 576.783C699.749 576.027 699.544 575.259 699.305 574.492Z" fill="#4BB2E2"/>
<path d="M498.9 455.464C498.9 455.464 494.172 454.805 494.172 447.919C494.172 441.033 490.788 428.173 490.788 428.173C490.788 428.113 487.86 405.776 483.816 402.225C479.772 398.674 474.577 377.824 474.577 377.824C474.577 377.824 473.689 366.512 471.877 364.076C470.065 361.641 467.617 355.679 464.005 347.174C460.393 338.668 445.334 332.778 445.334 332.778C445.334 332.778 418.107 316.991 410.391 311.844C409.69 311.422 409.034 310.927 408.435 310.369C407.091 308.605 401.235 308.569 401.235 308.569C400.623 304.707 400.035 300.268 399.843 296.249C399.843 295.817 399.843 295.385 399.783 294.954C408.387 289.869 414.867 281.853 418.035 272.376C418.179 271.921 418.299 271.441 418.431 270.985C418.946 270.815 419.42 270.54 419.823 270.176C420.226 269.813 420.549 269.369 420.771 268.874C421.466 267.326 421.478 265.515 422.342 264.075C423.35 262.372 425.27 261.46 426.782 260.176C430.598 256.937 431.582 251.479 431.402 246.512C431.282 242.494 430.634 238.439 430.886 234.444L430.958 233.436C431.03 232.837 431.114 232.237 431.222 231.661C431.81 228.686 433.094 225.879 433.814 222.928C434.534 219.977 434.606 216.654 432.926 214.11C430.466 210.379 425.342 209.636 420.842 209.252C415.743 208.82 411.183 209.384 407.919 205.149C406.391 202.936 404.673 200.86 402.783 198.947C402.111 198.323 395.583 194.34 395.583 194.076C389.212 191.126 381.991 190.573 375.244 192.517C371.86 193.501 368.668 195.108 365.237 195.912C357.833 197.663 349.313 195.768 343.025 200.003C339.521 202.402 337.422 206.217 335.454 209.936C333.854 212.999 332.23 216.058 330.582 219.113C327.93 224.139 325.23 229.25 324.114 234.816C323.879 236.027 323.735 237.254 323.682 238.487V238.547C323.682 238.991 323.682 239.435 323.682 239.878V240.442C323.682 240.862 323.682 241.27 323.754 241.642C323.826 242.014 323.814 242.134 323.85 242.386C323.886 242.638 323.946 243.201 324.018 243.585C324.09 243.969 324.234 244.641 324.378 245.169C324.438 245.397 324.522 245.613 324.594 245.829C324.714 246.236 324.858 246.632 325.014 247.028C325.098 247.232 325.182 247.448 325.278 247.652C325.458 248.072 325.674 248.48 325.89 248.852C325.986 249.02 326.058 249.176 326.154 249.332C326.489 249.889 326.857 250.426 327.258 250.939C329.826 254.142 333.606 256.181 336.402 259.181C336.402 259.3 336.402 259.42 336.402 259.528C336.402 259.864 336.402 260.188 336.402 260.524C336.55 267.213 338.331 273.764 341.589 279.607C344.847 285.451 349.484 290.41 355.097 294.054C355.097 294.51 355.157 294.978 355.181 295.433C355.415 298.994 355.371 302.568 355.049 306.122C354.56 305.547 353.949 305.089 353.259 304.781C352.569 304.474 351.82 304.325 351.065 304.347C350.549 304.321 350.033 304.366 349.529 304.479L349.421 304.395V304.503C346.781 305.15 343.529 307.898 340.421 315.707C340.421 315.707 330.966 326.36 323.766 325.916C316.566 325.472 298.339 337.001 298.339 337.001C298.339 337.001 280.556 348.541 276.74 360.298C274.607 366.964 272.05 373.487 269.084 379.828L247.101 425.114L243.045 461.043C243.045 461.043 245.289 477.022 244.845 479.457C244.401 481.892 254.073 503.857 254.073 503.857C254.073 503.857 286.027 559.988 299.083 562.867L300.019 562.208C300.577 562.499 301.17 562.721 301.783 562.867L304.471 560.972C304.632 563.084 304.564 565.208 304.267 567.306C302.467 572.848 304.939 609.017 308.083 616.107C311.226 623.197 310.111 716.156 310.111 716.156L309.667 724.362C309.667 724.362 309.667 724.626 309.775 725.082L309.667 727.025L309.991 727.193C310.327 729.796 310.217 732.437 309.667 735.003C308.539 738.602 308.083 748.774 308.083 748.774C308.083 748.774 299.095 806.213 303.355 817.753C307.615 829.294 311.238 841.938 311.238 841.938C311.238 841.938 315.738 856.333 311.454 858.793C307.171 861.252 294.991 865.379 297.499 871.377C299.779 876.919 308.431 891.771 309.715 893.942L309.607 895.082L307.843 914.192C308.128 916.715 308.813 919.177 309.871 921.485C311.802 925.648 315.558 929.967 322.698 929.499C323.898 929.415 325.29 929.271 326.634 929.091C339.701 927.34 355.793 921.509 355.793 921.509C354.957 920.979 354.192 920.346 353.513 919.626C352.871 919.004 352.362 918.258 352.017 917.433C351.673 916.608 351.5 915.721 351.509 914.827C351.701 911.349 345.185 894.77 343.565 890.691C343.313 890.103 343.181 889.767 343.181 889.767C343.181 889.767 358.037 874.244 355.565 860.484C355.565 860.484 339.125 850.887 344.537 845.621C349.949 840.354 359.621 825.227 359.621 825.227C359.621 825.227 360.065 768.664 359.621 760.219C359.158 754.357 359.436 748.46 360.449 742.668C360.629 741.793 360.845 740.941 361.073 740.101C368.557 741.218 376.113 741.791 383.68 741.817C386.44 741.817 389.248 741.816 392.08 741.649C392.08 742.448 392.116 743.312 392.188 744.24C392.812 758.252 393.975 782.82 394.923 791.949C396.267 805.037 403.695 840.306 403.695 840.306C403.695 840.306 389.524 849.4 406.167 871.809C406.167 871.809 406.167 879.93 405.063 881.106C403.885 884.949 402.935 888.859 402.219 892.814C401.523 897.037 401.235 901.308 402.363 903.527C405.063 908.829 421.262 908.397 421.262 908.397L421.658 908.326C424.717 908.009 427.807 908.304 430.751 909.191C433.694 910.079 436.432 911.542 438.806 913.496C444.962 918.438 468.325 916.267 480.972 914.695C485.928 914.072 489.24 913.496 489.24 913.496C489.401 912.935 489.457 912.35 489.408 911.768C489.276 908.661 486.84 901.847 470.329 895.765C470.329 895.765 454.801 885.329 455.017 876.235H454.693H452.893C454.201 876.163 455.041 876.235 455.041 876.235C455.041 876.235 448.957 854.042 451.441 852.243C453.925 850.443 446.486 825.851 446.486 825.851C446.486 825.851 442.226 784.583 441.998 781.692C442.007 779.211 442.383 776.746 443.114 774.375L441.998 751.75C441.998 751.75 441.782 744.228 441.998 741.781C441.961 739.656 441.789 737.537 441.482 735.434C441.374 734.595 441.266 733.719 441.146 732.855C446.966 731.38 450.745 730.012 450.745 730.012L450.073 651.256C455.017 641.659 455.929 620.606 455.905 605.67C455.905 596.073 455.473 588.971 455.473 588.971L462.229 577.947C462.229 577.947 463.789 564.751 461.317 561.86C460.225 560.552 460.717 559.197 461.617 558.081C462.084 557.71 462.578 557.374 463.093 557.073C463.093 557.073 463.021 556.965 462.937 556.809C463.409 556.415 463.91 556.058 464.437 555.742C464.437 555.742 462.037 552.023 464.185 550.451C466.201 551.819 468.001 552.85 469.369 553.69C469.273 554.566 469.177 555.07 469.177 555.07L469.753 553.87C471.073 554.614 471.877 555.07 471.877 555.07C471.877 555.07 482.46 533.992 482.232 530.885C482.004 527.778 489.432 514.69 489.432 514.69C489.432 514.69 490.332 507.816 494.388 504.937C498.444 502.058 497.532 481.196 497.532 481.196C497.532 481.196 498.66 470.328 501.36 465.889C504.059 461.451 498.9 455.464 498.9 455.464ZM296.395 446.215L296.599 451.242C295.399 449.31 294.535 447.919 294.535 447.919L296.395 446.215Z" fill="url(#paint0_linear_906_7206)"/>
<path d="M472.453 545.965L469.861 557.001C469.861 557.001 449.102 546.409 445.358 532.949C441.614 519.489 451.622 514.378 451.622 514.378L470.965 522.572L472.453 545.965Z" fill="white"/>
<path opacity="0.1" d="M472.453 545.965L469.861 557.001C469.861 557.001 449.102 546.409 445.358 532.949C441.614 519.489 451.622 514.378 451.622 514.378L470.965 522.572L472.453 545.965Z" fill="black"/>
<path d="M384.436 353.136C368.596 346.982 348.221 326.648 353.309 317.147C354.439 314.749 355.111 312.161 355.289 309.517C355.616 305.927 355.664 302.318 355.433 298.72C355.076 292.829 354.367 286.964 353.309 281.158C353.309 281.158 402.759 282.273 399.879 289.555C399.039 291.69 398.907 295.397 399.135 299.548C399.363 303.699 399.963 308.389 400.587 312.36C401.451 317.806 402.315 321.957 402.315 321.957C402.315 321.957 399.291 326.192 397.515 326.42C395.739 326.648 407.163 361.905 384.436 353.136Z" fill="#CF6F80"/>
<path d="M362.357 737.51C361.553 739.498 360.942 741.559 360.533 743.664C359.532 749.429 359.254 755.296 359.705 761.13C360.149 769.528 359.705 825.803 359.705 825.803C359.705 825.803 350.213 840.81 344.922 846.1C339.63 851.391 355.721 860.892 355.721 860.892C358.121 874.568 343.578 890.019 343.578 890.019C328.794 872.144 310.915 894.434 310.915 894.434C310.915 894.434 301.195 877.639 298.771 871.641C296.347 865.642 308.263 861.492 312.451 859.056C316.639 856.621 312.247 842.262 312.247 842.262C312.247 842.262 308.707 829.677 304.507 818.197C300.307 806.716 309.139 749.566 309.139 749.566C309.139 749.566 309.595 739.417 310.687 735.878C311.238 733.324 311.347 730.695 311.011 728.105C310.939 727.229 310.855 726.497 310.795 726.005C310.735 725.513 310.687 725.285 310.687 725.285L310.855 724.997L316.855 713.817C316.855 713.817 365.237 730.468 362.357 737.51Z" fill="#4BB2E2"/>
<path d="M453.313 876.559C453.313 876.559 442.514 876.331 436.754 881.358C430.994 886.384 403.155 882.461 404.355 881.358C405.555 880.254 405.459 872.084 405.459 872.084C389.128 849.795 403.059 840.75 403.059 840.75C403.059 840.75 395.764 805.661 394.444 792.645C393.52 783.552 392.38 759.115 391.768 745.163C391.504 739.165 391.348 735.038 391.348 735.038L404.691 732.351L406.407 732.003L438.59 725.549C438.59 725.549 439.478 731.548 440.078 736.454C440.377 738.549 440.545 740.66 440.582 742.776C440.366 745.175 440.582 752.685 440.582 752.685L441.674 775.202C440.96 777.564 440.593 780.017 440.582 782.484C440.798 785.351 444.986 826.402 444.986 826.402C444.986 826.402 452.269 850.899 449.786 852.662C447.302 854.426 453.313 876.559 453.313 876.559Z" fill="#4BB2E2"/>
<path opacity="0.1" d="M399.88 289.555C399.04 291.69 398.908 295.397 399.136 299.548C392.512 303.536 384.898 305.574 377.167 305.43C369.437 305.286 361.904 302.964 355.433 298.732C355.077 292.837 354.368 286.968 353.31 281.158C353.31 281.158 402.76 282.249 399.88 289.555Z" fill="black"/>
<path d="M418.995 263.043C419.004 267.366 418.324 271.663 416.979 275.771C413.972 284.977 407.808 292.823 399.574 297.924C391.341 303.026 381.568 305.052 371.984 303.647C362.401 302.241 353.622 297.494 347.201 290.244C340.78 282.994 337.129 273.708 336.894 264.027C336.894 263.691 336.894 263.379 336.894 263.043C336.801 257.594 337.794 252.181 339.815 247.119C341.837 242.058 344.846 237.449 348.668 233.563C352.489 229.676 357.047 226.589 362.074 224.482C367.102 222.375 372.499 221.29 377.95 221.29C383.402 221.29 388.799 222.375 393.826 224.482C398.854 226.589 403.411 229.676 407.233 233.563C411.055 237.449 414.064 242.058 416.085 247.119C418.107 252.181 419.1 257.594 419.007 263.043H418.995Z" fill="#CF6F80"/>
<path opacity="0.1" d="M384.436 353.136C368.596 346.982 348.221 326.648 353.309 317.147C354.439 314.749 355.111 312.161 355.289 309.517L376.972 327.332L390.388 338.332L400.587 312.372C401.451 317.819 402.315 321.969 402.315 321.969C402.315 321.969 399.291 326.204 397.515 326.432C395.739 326.66 407.163 361.905 384.436 353.136Z" fill="black"/>
<path d="M440.51 431.868L422.403 735.974L398.788 737.522L337.638 561.188L347.669 351.84L349.781 307.61L376.972 329.935L390.4 340.936L400.899 314.22L420.423 331.231L440.51 431.868Z" fill="#4BB2E2"/>
<path opacity="0.1" d="M362.357 737.51C361.553 739.498 360.942 741.559 360.533 743.664C343.35 741.012 326.661 735.799 311.023 728.201L310.699 728.033L310.807 726.101L310.867 725.094L316.867 713.913C316.867 713.913 365.237 730.468 362.357 737.51Z" fill="black"/>
<path opacity="0.1" d="M404.967 743.712C400.574 744.459 396.144 744.963 391.695 745.223C391.431 739.225 391.275 735.098 391.275 735.098L404.619 732.411L404.967 743.712Z" fill="black"/>
<path opacity="0.1" d="M440.006 736.514C431.474 738.733 418.299 741.229 406.503 739.669L406.335 732.063L438.518 725.609C438.518 725.609 439.406 731.548 440.006 736.514Z" fill="black"/>
<path opacity="0.1" d="M406.288 741.061C357.089 749.458 312.031 725.382 312.031 725.382L312.463 717.224C312.463 717.224 313.579 624.744 310.483 617.655C307.387 610.565 304.975 574.612 306.727 569.094C308.479 563.575 300.331 480.825 300.331 480.825L299.011 447.235L250.701 427.669L272.3 382.659C275.218 376.348 277.727 369.857 279.812 363.225C283.568 351.54 301.003 340.06 301.003 340.06C301.003 340.06 318.883 328.591 325.95 329.023C333.018 329.455 342.282 318.874 342.282 318.874C349.122 301.444 355.313 309.337 355.313 309.337C355.313 310.165 355.313 309.337 354.977 311.916C352.577 331.051 393.784 391.512 394.372 392.58L398.296 488.142L402.268 609.077L406.288 741.061Z" fill="black"/>
<path d="M404.967 741.061C355.769 749.458 310.699 725.382 310.699 725.382L311.142 717.224C311.142 717.224 312.258 624.745 309.151 617.655C306.043 610.565 303.643 574.612 305.407 569.094C307.171 563.575 299.011 480.825 299.011 480.825L297.679 447.235L249.345 427.597L270.944 382.587C273.855 376.274 276.364 369.783 278.456 363.153C282.2 351.468 299.647 339.988 299.647 339.988C299.647 339.988 317.526 328.519 324.582 328.951C331.638 329.383 340.913 318.802 340.913 318.802C347.765 301.372 355.313 309.265 355.313 309.265C355.313 310.093 354.593 310.465 354.977 311.845C360.257 330.403 392.464 391.44 393.052 392.508L397.023 488.071L400.995 609.005L404.967 741.061Z" fill="white"/>
<path opacity="0.1" d="M391.708 395.231C386.416 393.023 358.385 361.029 358.385 361.029V353.747C357.365 351.348 351.306 352.812 346.386 354.491L348.498 310.261L350.898 312.252C356.153 330.798 391.096 394.163 391.708 395.231Z" fill="black"/>
<path d="M393.039 392.58C387.736 390.373 359.705 358.378 359.705 358.378V351.097C358.685 348.697 352.625 350.161 347.705 351.84L349.829 307.61L352.229 309.601C357.497 328.148 392.451 391.524 393.039 392.58Z" fill="white"/>
<path opacity="0.1" d="M312.031 552.143C312.691 552.143 346.242 548.616 346.242 548.616C346.242 548.616 366.557 588.551 365.225 598.269C363.893 607.986 361.481 616.587 353.309 615.063C345.138 613.54 309.331 616.263 309.331 616.263L312.031 552.143Z" fill="black"/>
<path d="M310.699 549.491C311.359 549.491 344.91 545.964 344.91 545.964C344.91 545.964 365.213 585.912 363.893 595.617C362.573 605.322 360.137 613.936 351.977 612.412C343.818 610.888 307.999 613.612 307.999 613.612L310.699 549.491Z" fill="white"/>
<path d="M335.982 530.741C335.982 530.741 366.773 547.284 367.433 552.335C368.093 557.385 351.762 550.127 348.234 549.252C345.912 548.692 343.548 548.323 341.166 548.148L317.635 548.784L335.982 530.741Z" fill="#CF6F80"/>
<path opacity="0.1" d="M383.116 397.294C384.905 397.294 386.356 395.844 386.356 394.055C386.356 392.266 384.905 390.816 383.116 390.816C381.326 390.816 379.876 392.266 379.876 394.055C379.876 395.844 381.326 397.294 383.116 397.294Z" fill="black"/>
<path d="M383.116 395.975C384.905 395.975 386.356 394.524 386.356 392.736C386.356 390.947 384.905 389.497 383.116 389.497C381.326 389.497 379.876 390.947 379.876 392.736C379.876 394.524 381.326 395.975 383.116 395.975Z" fill="#3F3D56"/>
<path opacity="0.1" d="M389.08 537.507C390.869 537.507 392.32 536.057 392.32 534.268C392.32 532.479 390.869 531.029 389.08 531.029C387.29 531.029 385.84 532.479 385.84 534.268C385.84 536.057 387.29 537.507 389.08 537.507Z" fill="black"/>
<path d="M389.08 536.175C390.869 536.175 392.32 534.725 392.32 532.936C392.32 531.147 390.869 529.697 389.08 529.697C387.29 529.697 385.84 531.147 385.84 532.936C385.84 534.725 387.29 536.175 389.08 536.175Z" fill="#3F3D56"/>
<path opacity="0.1" d="M386.344 467.401C388.134 467.401 389.584 465.951 389.584 464.162C389.584 462.373 388.134 460.923 386.344 460.923C384.555 460.923 383.104 462.373 383.104 464.162C383.104 465.951 384.555 467.401 386.344 467.401Z" fill="black"/>
<path d="M386.344 466.081C388.134 466.081 389.584 464.631 389.584 462.842C389.584 461.053 388.134 459.603 386.344 459.603C384.555 459.603 383.104 461.053 383.104 462.842C383.104 464.631 384.555 466.081 386.344 466.081Z" fill="#3F3D56"/>
<path d="M461.029 547.476C461.029 547.476 463.237 550.787 461.029 552.335C458.821 553.882 461.245 557.625 461.245 557.625C461.245 557.625 455.737 560.852 458.161 563.755C460.585 566.658 459.049 579.77 459.049 579.77L452.425 590.735C452.425 590.735 452.821 597.801 452.845 607.35C452.845 622.249 451.969 643.195 447.122 652.744L447.793 731.092C447.793 731.092 424.598 739.561 405.183 736.982L402.303 611.261C402.303 611.261 406.503 539.967 408.051 526.291C408.957 519.191 409.326 512.033 409.155 504.877C409.155 504.877 408.495 483.476 406.275 473.543C406.275 473.543 403.875 430.512 403.635 418.6C403.527 412.902 403.827 396.275 404.163 380.464C404.535 363.177 404.955 346.874 404.955 346.874L400.575 312.228C400.575 312.228 404.955 311.785 406.275 313.548C406.866 314.1 407.509 314.594 408.195 315.024C415.755 320.134 442.466 335.849 442.466 335.849C442.466 335.849 457.249 341.727 460.789 350.149C464.329 358.57 466.789 364.544 468.505 366.944C470.221 369.343 471.157 380.62 471.157 380.62C471.157 380.62 476.244 401.373 480.216 404.888C484.188 408.403 487.092 430.764 487.092 430.764L451.993 458.356C451.993 458.356 448.909 504.254 448.249 506.029C447.59 507.805 461.029 547.476 461.029 547.476Z" fill="white"/>
<path d="M462.361 547.476C462.361 547.476 464.557 550.787 462.361 552.335C460.165 553.882 462.565 557.625 462.565 557.625C462.565 557.625 457.093 560.888 459.493 563.791C461.893 566.694 460.381 579.806 460.381 579.806L453.757 590.771C453.757 590.771 454.153 597.837 454.189 607.386C454.189 622.285 453.313 643.231 448.465 652.78L449.125 731.128C449.125 731.128 425.894 739.597 406.503 737.018L403.635 611.297C403.635 611.297 407.835 540.002 409.383 526.327C410.29 519.227 410.655 512.068 410.475 504.913C410.475 504.913 409.815 483.512 407.607 473.579C407.607 473.579 405.207 430.548 404.955 418.636C404.847 412.937 405.159 396.31 405.483 380.499C405.855 363.213 406.275 346.91 406.275 346.91L400.491 311.796C400.491 311.796 406.275 311.796 407.607 313.584C408.193 314.143 408.836 314.637 409.527 315.059C417.087 320.17 443.81 335.885 443.81 335.885C443.81 335.885 458.581 341.763 462.121 350.185C465.661 358.606 468.121 364.58 469.849 366.979C471.577 369.379 472.489 380.655 472.489 380.655C472.489 380.655 477.576 401.409 481.548 404.924C485.52 408.439 488.388 430.752 488.388 430.752L453.289 458.343C453.289 458.343 450.205 504.241 449.533 506.017C448.861 507.792 462.361 547.476 462.361 547.476Z" fill="white"/>
<path opacity="0.1" d="M420.327 357.094L423.494 366.331L406.815 383.126C407.187 365.852 407.607 349.537 407.607 349.537L401.823 314.423C401.823 314.423 407.607 314.423 408.939 316.211C409.523 316.768 410.167 317.259 410.859 317.674L425.042 358.582L420.327 357.094Z" fill="black"/>
<path d="M418.995 354.443L422.174 363.681L405.495 380.475C405.867 363.189 406.287 346.886 406.287 346.886L400.491 311.772C400.491 311.772 406.287 311.772 407.607 313.56C408.196 314.115 408.839 314.61 409.527 315.035L423.722 355.931L418.995 354.443Z" fill="white"/>
<path opacity="0.1" d="M418.995 263.043C419.004 267.366 418.324 271.663 416.979 275.771C416.752 275.807 416.521 275.796 416.298 275.741C416.075 275.685 415.866 275.585 415.683 275.447C415.371 264.651 410.055 254.514 403.515 245.888C401.679 243.284 399.453 240.978 396.916 239.051C394.35 237.124 391.159 236.222 387.964 236.519C384.364 237.011 381.184 239.458 377.548 239.77C372.748 240.166 368.453 236.843 363.689 236.675C361.752 236.694 359.842 237.125 358.085 237.94C356.328 238.755 354.765 239.935 353.501 241.402C350.998 244.362 349.139 247.81 348.041 251.527C346.155 257.163 345.127 263.051 344.993 268.993C344.933 272.352 344.609 276.563 341.49 277.787C341.724 275.316 341.444 272.824 340.665 270.468C339.886 268.112 338.627 265.943 336.966 264.099L336.894 264.027C336.894 263.691 336.894 263.379 336.894 263.043C336.801 257.594 337.794 252.181 339.815 247.119C341.837 242.058 344.846 237.449 348.668 233.563C352.489 229.676 357.047 226.589 362.074 224.482C367.102 222.375 372.499 221.29 377.95 221.29C383.402 221.29 388.799 222.375 393.826 224.482C398.854 226.589 403.411 229.676 407.233 233.563C411.055 237.449 414.064 242.058 416.085 247.119C418.107 252.181 419.1 257.594 419.007 263.043H418.995Z" fill="black"/>
<path d="M394.948 197.867C388.712 194.935 381.62 194.381 375.004 196.308C371.681 197.292 368.549 198.887 365.177 199.691C357.977 201.43 349.577 199.547 343.398 203.758C339.966 206.157 337.902 209.948 335.982 213.631L331.182 222.772C328.566 227.774 325.926 232.861 324.834 238.367C323.742 243.873 324.402 250.039 327.894 254.466C330.438 257.693 334.194 259.72 336.954 262.756C338.607 264.602 339.861 266.769 340.638 269.123C341.414 271.476 341.696 273.964 341.466 276.431C344.598 275.232 344.898 271.009 344.97 267.65C345.103 261.708 346.131 255.82 348.017 250.183C349.113 246.465 350.972 243.017 353.477 240.058C354.743 238.593 356.305 237.414 358.062 236.599C359.819 235.784 361.729 235.352 363.665 235.332C368.465 235.5 372.773 238.811 377.524 238.415C381.124 238.115 384.316 235.656 387.94 235.176C391.135 234.874 394.328 235.777 396.892 237.707C399.429 239.632 401.651 241.938 403.479 244.545C410.031 253.17 415.347 263.283 415.659 274.104C417.015 275.1 418.971 273.804 419.643 272.269C420.315 270.733 420.339 268.934 421.191 267.47C422.175 265.779 424.059 264.879 425.535 263.607C429.279 260.38 430.214 254.946 430.07 250.015C429.926 245.085 428.966 240.083 429.902 235.236C430.466 232.261 431.738 229.478 432.434 226.539C433.13 223.6 433.214 220.301 431.57 217.769C429.171 214.05 424.119 213.319 419.715 212.971C414.711 212.539 410.235 213.091 407.043 208.88C405.545 206.683 403.859 204.62 402.003 202.714C401.368 202.09 394.948 198.131 394.948 197.867Z" fill="#512E4E"/>
<path opacity="0.1" d="M264.524 450.846L251.985 427.669L248.013 463.43C248.013 463.43 250.221 479.313 249.777 481.748C249.333 484.184 258.824 506.017 258.824 506.017C258.824 506.017 290.179 561.848 302.983 564.727L346.241 533.824L334.77 519.261C334.77 519.261 330.798 517.713 329.802 519.261C329.802 519.261 308.502 482.624 306.295 479.973C304.087 477.322 304.519 472.031 304.519 472.031C304.519 472.031 301.207 468.504 302.311 465.193C303.415 461.882 295.915 450.402 295.915 450.402L302.755 444.008L264.524 450.846Z" fill="black"/>
<path d="M252.645 425.03L249.333 427.669L245.361 463.43C245.361 463.43 247.569 479.313 247.125 481.748C246.681 484.184 256.185 506.017 256.185 506.017C256.185 506.017 287.528 561.848 300.331 564.727L343.602 533.824L332.118 519.261C332.118 519.261 328.146 517.713 327.15 519.261C327.15 519.261 305.851 482.624 303.643 479.973C301.435 477.322 301.879 472.031 301.879 472.031C301.879 472.031 298.567 468.504 299.671 465.193C300.775 461.882 293.264 450.402 293.264 450.402L300.103 444.008L252.645 425.03Z" fill="white"/>
<path opacity="0.1" d="M458.161 565.123C460.561 568.038 459.049 581.126 459.049 581.126L452.425 592.091C452.425 592.091 452.821 599.168 452.845 608.705L441.71 612.184C440.703 612.499 439.637 612.568 438.598 612.386C437.559 612.204 436.58 611.776 435.74 611.139C434.9 610.502 434.225 609.672 433.771 608.721C433.317 607.77 433.097 606.724 433.13 605.67L435.05 543.757L461.029 553.69C458.821 555.226 461.245 558.993 461.245 558.993C461.245 558.993 455.737 562.208 458.161 565.123Z" fill="black"/>
<path d="M459.493 563.791C461.893 566.706 460.381 579.806 460.381 579.806L453.758 590.771C453.758 590.771 454.153 597.837 454.189 607.386L442.85 610.925C441.864 611.231 440.82 611.297 439.803 611.118C438.787 610.939 437.828 610.52 437.006 609.896C436.185 609.272 435.524 608.46 435.079 607.529C434.635 606.598 434.419 605.574 434.45 604.542L436.382 542.438L462.373 552.37C460.153 553.906 462.577 557.661 462.577 557.661C462.577 557.661 457.093 560.888 459.493 563.791Z" fill="white"/>
<path d="M468.097 534.28C468.097 534.28 466.333 545.545 461.917 546.205C457.501 546.864 455.521 564.427 451.117 563.803C446.713 563.179 449.629 547.476 449.785 544.429C449.941 541.382 444.986 528.762 448.693 525.895C452.401 523.028 464.137 525.895 464.137 525.895L468.097 534.28Z" fill="#CF6F80"/>
<path opacity="0.1" d="M477.493 447.535L485.82 430.74C485.82 430.74 489.132 443.54 489.132 450.378C489.132 457.216 493.764 457.887 493.764 457.887C493.764 457.887 498.84 463.886 496.164 468.252C493.488 472.619 492.408 483.488 492.408 483.488C492.408 483.488 493.284 504.229 489.312 507.096C485.34 509.963 484.512 516.813 484.512 516.813C484.512 516.813 477.217 529.829 477.445 532.924C477.673 536.019 467.293 556.977 467.293 556.977C467.293 556.977 472.369 530.933 442.79 519.68C442.79 519.68 442.562 510.839 444.77 508.416C446.978 505.993 450.422 504.889 448.262 492.641C446.102 480.393 447.638 465.757 447.638 462.818C447.638 459.879 454.261 441.548 454.261 441.548L477.493 447.535Z" fill="black"/>
<path d="M481.092 428.341L488.364 430.74C488.364 430.74 491.688 443.54 491.688 450.378C491.688 457.216 496.32 457.888 496.32 457.888C496.32 457.888 501.396 463.886 498.72 468.253C496.044 472.619 494.976 483.488 494.976 483.488C494.976 483.488 495.852 504.23 491.88 507.097C487.908 509.964 487.02 516.814 487.02 516.814C487.02 516.814 479.737 529.83 479.965 532.925C480.192 536.02 469.801 556.977 469.801 556.977C469.801 556.977 474.889 530.933 445.298 519.681C445.298 519.681 445.082 510.84 447.29 508.416C449.498 505.993 452.941 504.889 450.782 492.641C448.622 480.393 450.158 465.757 450.158 462.818C450.158 459.879 456.781 441.549 456.781 441.549L481.092 428.341Z" fill="white"/>
<g opacity="0.1">
<path d="M425.559 260.98C424.083 262.252 422.187 263.164 421.203 264.855C420.363 266.307 420.339 268.094 419.667 269.654C418.995 271.213 417.039 272.485 415.683 271.501C415.371 260.704 410.043 250.567 403.503 241.93C401.675 239.323 399.453 237.017 396.916 235.092C394.347 233.162 391.151 232.259 387.952 232.561C384.352 233.053 381.184 235.5 377.548 235.8C372.749 236.208 368.441 232.885 363.677 232.717C361.741 232.736 359.832 233.169 358.077 233.986C356.322 234.803 354.762 235.986 353.501 237.455C350.996 240.409 349.137 243.854 348.041 247.568C346.156 253.205 345.128 259.093 344.994 265.035C344.922 268.382 344.61 272.557 341.514 273.804C341.586 274.691 341.586 275.581 341.514 276.467C344.634 275.268 344.946 271.045 345.018 267.686C345.151 261.744 346.179 255.856 348.065 250.22C349.161 246.501 351.02 243.053 353.525 240.095C354.788 238.629 356.349 237.45 358.104 236.635C359.858 235.82 361.766 235.388 363.701 235.368C368.501 235.536 372.821 238.847 377.572 238.451C381.172 238.151 384.364 235.692 387.976 235.212C391.175 234.91 394.371 235.813 396.94 237.743C399.477 239.668 401.699 241.975 403.527 244.581C410.067 253.207 415.395 263.32 415.707 274.14C417.063 275.136 419.019 273.84 419.691 272.305C420.363 270.769 420.387 268.97 421.227 267.506C422.211 265.815 424.107 264.915 425.583 263.643C429.326 260.416 430.262 254.982 430.118 250.052C430.118 249.896 430.118 249.74 430.118 249.596C429.89 253.866 428.751 258.221 425.559 260.98Z" fill="black"/>
<path d="M336.977 260.128C334.217 257.093 330.45 255.066 327.918 251.851C325.786 249.005 324.568 245.579 324.426 242.026C324.048 246.466 325.288 250.892 327.918 254.49C330.45 257.717 334.217 259.744 336.977 262.779C339.627 265.748 341.218 269.511 341.501 273.48C341.685 271.065 341.379 268.637 340.602 266.343C339.824 264.049 338.592 261.935 336.977 260.128Z" fill="black"/>
<path d="M432.458 223.911C431.75 226.85 430.49 229.646 429.914 232.609C429.573 234.589 429.448 236.6 429.542 238.607C429.582 237.464 429.706 236.325 429.914 235.2C430.49 232.225 431.75 229.442 432.458 226.503C432.87 224.882 433.004 223.202 432.854 221.536C432.779 222.336 432.647 223.13 432.458 223.911Z" fill="black"/>
</g>
<path d="M108.038 534.004H100.515V703.356H108.038V534.004Z" fill="#535461"/>
<path d="M155.317 702.841L154.849 710.47L154.177 721.267L153.901 725.754L153.241 736.55L152.953 741.037L152.281 751.834L144.697 874.28C144.368 879.548 142.042 884.493 138.195 888.108C134.347 891.723 129.266 893.736 123.986 893.738H84.5554C79.2765 893.736 74.197 891.722 70.3513 888.107C66.5055 884.492 64.1828 879.547 63.8561 874.28L56.3084 751.75L55.6364 740.953L55.3604 736.466L54.6885 725.67L54.4125 721.183L53.7405 710.386L53.2605 702.757C53.1771 701.288 53.3948 699.818 53.9 698.437C54.4053 697.055 55.1876 695.792 56.1989 694.724C57.2101 693.655 58.4291 692.805 59.7809 692.224C61.1327 691.644 62.5889 691.346 64.0601 691.348H144.709C146.175 691.361 147.622 691.674 148.962 692.267C150.303 692.861 151.507 693.723 152.501 694.8C153.495 695.876 154.257 697.146 154.742 698.529C155.226 699.912 155.422 701.379 155.317 702.841Z" fill="#3F3D56"/>
<path d="M154.849 710.47L154.177 721.231H54.3644L53.6924 710.47H154.849Z" fill="#9D9CB5"/>
<path d="M153.9 725.717L153.24 736.49H55.3116L54.6396 725.717H153.9Z" fill="#9D9CB5"/>
<path d="M152.952 740.989L152.292 751.75H56.2599L55.5879 740.989H152.952Z" fill="#9D9CB5"/>
<path d="M42.2088 597.477C86.0192 629.171 104.307 678.74 104.307 678.74C104.307 678.74 51.5085 676.928 7.68606 645.234C-36.1364 613.54 -54.3877 563.983 -54.3877 563.983C-54.3877 563.983 -1.61361 565.782 42.2088 597.477Z" fill="#4BB2E2"/>
<path d="M-54.4238 563.983C-54.4238 563.983 0.390184 594.394 17.9695 619.574C35.5489 644.754 104.306 678.74 104.306 678.74" stroke="#535461" stroke-width="2" stroke-miterlimit="10"/>
<path d="M70.4913 533.632C94.3344 550.871 104.306 577.851 104.306 577.851C104.306 577.851 75.5671 576.867 51.712 559.628C27.8568 542.39 17.9092 515.398 17.9092 515.398C17.9092 515.398 46.6361 516.382 70.4913 533.632Z" fill="#4BB2E2"/>
<path d="M17.9092 515.398C17.9092 515.398 47.7401 531.953 57.3038 545.653C66.8674 559.352 104.306 577.851 104.306 577.851" stroke="#535461" stroke-width="2" stroke-miterlimit="10"/>
<path d="M138.925 576.483C111.53 606.582 105.734 645.918 105.734 645.918C105.734 645.918 144.361 636.441 171.732 606.33C199.103 576.219 204.923 536.896 204.923 536.896C204.923 536.896 166.32 546.385 138.925 576.483Z" fill="#4BB2E2"/>
<path d="M204.947 536.907C204.947 536.907 169.26 567.762 160.188 589.019C151.117 610.277 105.734 645.918 105.734 645.918" stroke="#535461" stroke-width="2" stroke-miterlimit="10"/>
<path d="M1144.56 565.89C1144.56 565.89 1124.75 467.352 1132.33 455.092C1132.33 455.092 1132.61 443.696 1132.15 429.168C1132.15 428.616 1132.15 428.064 1132.15 427.501C1133.49 428.39 1134.88 429.191 1136.32 429.9C1143.3 433.489 1151.33 434.524 1159 432.827L1153 426.145C1151.56 424.55 1150.06 422.822 1149.74 420.711C1149.43 418.599 1150.3 416.716 1151.04 414.833C1156.74 400.437 1157.04 382.335 1146.06 371.346C1136.78 362.109 1134.53 350.184 1124.46 341.751C1117.11 335.573 1113.06 326.516 1109.25 317.758C1106.02 310.357 1102.77 302.895 1100.92 295.049C1099.48 288.919 1098.9 282.573 1096.92 276.587C1094.94 270.601 1091.23 264.783 1085.44 262.107C1083.37 261.16 1081.08 260.62 1079.2 259.36C1076.73 257.693 1075.24 254.982 1073.45 252.606C1064.37 240.61 1033.95 247.676 1019.55 252.546C1015.63 253.773 1012.01 255.781 1008.89 258.449L1009.03 258.233C1009.13 258.053 1009.27 257.873 1009.39 257.693C1007.81 258.967 1006.45 260.486 1005.35 262.191C1003.25 265.514 1002.38 269.389 1000.63 272.988C998.514 277.247 986.766 289.135 991.818 293.922C992.172 294.243 992.578 294.503 993.018 294.689C994.914 295.478 997.002 295.687 999.018 295.289L998.802 295.805C997.076 300.028 996.192 304.547 996.198 309.109C996.198 328.819 1012.46 344.798 1032.53 344.798C1036.31 344.802 1040.06 344.223 1043.66 343.083C1043.74 343.538 1043.81 343.994 1043.9 344.45C1043.9 344.63 1043.96 344.81 1043.98 344.99L1043.34 345.878C1043.31 345.823 1043.28 345.771 1043.24 345.722L1024.4 372.042C1021.52 374.069 1004.93 386.065 1004 395.063C1003.01 404.912 1002.03 416.44 1002.03 416.44L1001.9 418.911C1001.07 419.599 1000.11 420.1 999.076 420.38C998.04 420.659 996.956 420.711 995.898 420.531C990.018 419.571 990.018 442.124 990.018 442.124C990.018 442.124 986.106 445.723 983.418 442.604C980.73 439.485 973.627 450.054 973.627 450.054L929.108 451.973L928.088 452.033L925.688 444.607C925.43 443.824 924.873 443.174 924.138 442.799C923.404 442.424 922.551 442.354 921.765 442.604C921.579 442.665 921.398 442.741 921.225 442.832L921.057 442.928L920.745 443.144L920.589 443.288C920.503 443.366 920.422 443.45 920.349 443.54L920.205 443.708L920.133 443.78C919.855 444.163 919.672 444.605 919.597 445.072C919.522 445.539 919.557 446.016 919.701 446.467L921.765 452.837C913.173 454.564 904.389 459.435 911.553 472.847L875.242 466.141L886.99 476.002L947.636 488.514C946.832 489.954 947.36 492.041 949.867 494.98C960.667 507.66 980.346 511.103 988.266 511.991C990.358 516.668 992.97 521.095 996.054 525.187L995.37 537.819C995.37 537.819 975.319 634.101 971.647 638.984C973.5 636.884 975.197 634.651 976.723 632.302C970.903 652.084 962.767 679.16 960.631 683.214C957.199 689.692 954.019 715.904 957.931 717.584C959.131 718.1 962.563 717.848 967.459 717.476V719.647L967.243 801.93C967.243 801.93 968.227 852.398 965.527 857.209C962.827 862.019 962.107 872.108 962.107 872.108C962.107 872.108 951.307 892.01 942.752 900.012C942.693 900.074 942.629 900.13 942.56 900.18L942.296 898.308C942.296 898.308 932.012 911.288 909.261 910.556C909.261 910.556 895.57 919.458 915.873 919.938C936.176 920.417 962.107 919.218 962.107 919.218C962.107 919.218 980.214 891.626 995.382 895.225V916.135H1000.03V894.889C1002.18 893.472 1004.02 891.632 1005.44 889.481C1006.86 887.331 1007.83 884.914 1008.29 882.377C1008.69 879.763 1008.4 877.09 1007.45 874.622C1006.5 872.154 1004.92 869.977 1002.87 868.305C1001.95 867.473 1001.21 866.46 1000.7 865.328C1000.19 864.197 999.92 862.972 999.906 861.732L999.738 861.875C999.738 861.456 999.63 861.024 999.582 860.58C998.25 849.783 996.582 827.506 1002.47 811.023C1010.55 788.422 1013 756.944 1007.12 738.205C1005.22 732.216 1003.66 726.124 1002.45 719.959C1002.31 719.179 1002.17 718.435 1002.05 717.74C1006.07 718.283 1010.05 719.085 1013.97 720.139C1027.59 723.894 1057.38 724.59 1082.82 724.386C1082.88 725.081 1082.95 725.813 1083.04 726.545C1083.49 731.632 1084.44 736.662 1085.87 741.564C1089.06 751.161 1090.53 793.472 1090.53 793.472C1090.53 793.472 1094.64 828.262 1092.4 842.417C1091.2 850.287 1090 858.193 1089.31 866.134V866.29C1089.31 866.29 1082.57 885.484 1077.64 895.909C1077.52 896.173 1077.39 896.437 1077.27 896.689C1075.95 896.809 1074.66 897.095 1073.42 897.54C1073.42 897.54 1066.8 910.736 1060.22 912.92C1053.63 915.103 1055.81 922.289 1070.73 919.65C1085.64 917.01 1108.17 914.851 1108.17 914.851L1109.14 901.391L1113.72 895.657L1112.52 909.081L1117.41 908.121L1116.76 891.794L1124.26 882.413C1124.26 882.413 1133.32 874.352 1119.85 858.492V858.84C1119.71 858.612 1119.58 858.372 1119.42 858.145V858.073C1117.19 854.618 1115.41 848.176 1118.67 836.743C1124.55 816.086 1127.97 797.335 1127.97 797.335C1127.97 797.335 1141.09 747.107 1125.31 723.342H1126.01C1124.39 719.998 1123.25 716.445 1122.61 712.785C1122.53 712.353 1122.46 711.909 1122.4 711.454C1134.07 710.782 1145.53 708.67 1154.88 704.112C1154.84 704.064 1149.22 584.868 1144.56 565.89ZM996.33 482.756V482.996L993.93 483.116L996.33 482.756ZM988.098 483.895C987.704 483.983 987.334 484.159 987.018 484.411C985.986 485.871 985.339 487.566 985.134 489.342L981.39 488.502C981.39 488.502 978.763 487.938 974.983 487.302L973.195 485.503C978.114 485.095 983.226 484.495 988.098 483.895Z" fill="url(#paint1_linear_906_7206)"/>
<path d="M1002.74 811.251C996.966 827.686 998.598 849.867 999.894 860.64C1000.37 864.623 1000.82 867.046 1000.82 867.046C1000.82 867.046 992.19 886.696 991.47 887.44C990.75 888.184 966.079 903.239 966.079 903.239L948.836 913.304C948.836 913.304 931.34 905.638 939.728 902.999C941.442 902.311 942.985 901.259 944.252 899.916C952.652 891.938 963.199 872.108 963.199 872.108C963.199 872.108 963.919 862.044 966.559 857.257C969.199 852.47 968.239 802.17 968.239 802.17L968.443 720.175V709.486L1001.26 709.726C1001.47 713.355 1001.94 716.964 1002.68 720.523C1003.86 726.667 1005.38 732.739 1007.25 738.709C1013.03 757.412 1010.63 788.734 1002.74 811.251Z" fill="#FFB0B1"/>
<path d="M1116.53 836.875C1113.34 848.272 1115.08 854.69 1117.26 858.133V858.205C1120.06 862.456 1122.01 867.21 1123 872.204L1123.19 873.284L1100.68 906.094L1088.46 910.893C1088.46 910.893 1068.82 904.187 1072.41 902.267C1073.31 901.799 1074.71 899.304 1076.32 895.861C1081.12 885.484 1087.74 866.338 1087.74 866.338V866.182C1088.44 858.277 1089.54 850.395 1090.77 842.549C1092.96 828.43 1088.93 793.772 1088.93 793.772C1088.93 793.772 1087.49 751.629 1084.37 742.044C1082.96 737.171 1082.03 732.173 1081.58 727.121C1080.93 721.123 1080.78 716.18 1080.78 716.18C1080.78 716.18 1093.72 698.186 1117.43 717.62C1119.33 719.17 1120.99 720.979 1122.39 722.994C1138.77 746.291 1125.58 797.611 1125.58 797.611C1125.58 797.611 1122.28 816.278 1116.53 836.875Z" fill="#FFB0B1"/>
<path opacity="0.1" d="M1001.3 709.702C1001.51 713.331 1001.98 716.94 1002.71 720.499C989.203 718.52 976.663 719.503 968.443 720.151V709.462L1001.3 709.702Z" fill="black"/>
<path opacity="0.1" d="M1123.72 725.982C1123.72 725.982 1104.52 726.917 1081.62 727.109C1080.98 721.111 1080.83 716.169 1080.83 716.169C1080.83 716.169 1093.77 698.174 1117.48 717.608C1119.37 719.158 1121.04 720.967 1122.43 722.982C1122.81 724.005 1123.23 725.006 1123.72 725.982Z" fill="black"/>
<path d="M1123.72 723.822C1123.72 723.822 1039.62 727.889 1013.99 720.703C988.362 713.517 962.959 719.743 959.131 718.076C955.303 716.408 958.411 690.292 961.771 683.826C965.131 677.36 983.562 611.968 983.562 611.968L1001.3 519.525L1019.98 514.378L1021.3 514.006L1053.86 505.033L1077.71 498.447C1077.71 498.447 1125.15 683.587 1121.08 697.238C1119.6 702.466 1119.36 707.966 1120.38 713.301C1121 716.945 1122.13 720.486 1123.72 723.822Z" fill="#1D2366"/>
<path d="M939.476 456.304C939.476 456.304 922.677 474.299 935.397 484.328C948.116 494.357 956.48 485.287 956.48 485.287L939.476 456.304Z" fill="#C7DAF5"/>
<path opacity="0.1" d="M939.476 456.304C939.476 456.304 922.677 474.299 935.397 484.328C948.116 494.357 956.48 485.287 956.48 485.287L939.476 456.304Z" fill="black"/>
<path d="M1075.2 337.996C1075.2 337.996 1073.24 339.868 1070.27 342.627C1066.05 346.574 1059.8 352.344 1054.25 357.179C1046.57 363.861 1040.24 368.767 1042.5 364.58C1044.77 360.394 1044.34 353.1 1043.21 346.274C1043.13 345.818 1043.06 345.362 1042.97 344.918C1042.04 339.905 1040.8 334.954 1039.26 330.091C1039.26 330.091 1051.67 314.064 1058.54 307.742C1061.09 305.342 1062.88 304.359 1062.99 306.026C1063.11 308.27 1064.79 313.224 1066.88 318.478C1066.94 318.646 1067 318.802 1067.07 318.97C1068.46 322.569 1070.03 326.264 1071.41 329.455C1073.52 334.35 1075.2 337.996 1075.2 337.996Z" fill="#FFB0B1"/>
<path opacity="0.1" d="M1067.07 318.97C1065.9 325.24 1063.07 331.082 1058.88 335.885C1054.68 340.688 1049.27 344.276 1043.21 346.274C1042.26 340.798 1040.94 335.391 1039.26 330.091C1039.26 330.091 1062.63 299.92 1062.99 306.026C1063.07 308.342 1064.9 313.476 1067.07 318.97Z" fill="black"/>
<path opacity="0.1" d="M1040.88 354.335L1043.91 350.077C1043.91 350.077 1045.91 362.289 1053.28 356.903C1060.65 351.516 1061.01 397.438 1061.01 397.438L1053.1 515.638L995.958 512.219L997.578 455.104L1004.05 426.313L1020.04 384.458L1029.56 370.626L1040.88 354.335Z" fill="black"/>
<path d="M1061.01 398.17L1053.81 505.045L1053.05 516.37L1021.19 514.462L1019.99 514.39L995.994 512.951L997.614 455.824L1004.08 427.033L1020.08 385.178L1029.59 371.346L1040.92 354.995L1043.94 350.749C1043.94 350.749 1045.95 362.961 1053.32 357.574L1053.47 357.466C1060.67 352.908 1061.01 398.17 1061.01 398.17Z" fill="#1D2366"/>
<path d="M1004.89 417.028C1004.89 417.028 1002.02 423.026 996.258 422.055C990.498 421.083 990.51 443.648 990.51 443.648C990.51 443.648 986.682 447.247 984.042 444.128C981.402 441.009 974.442 451.554 974.442 451.554L930.836 453.473C930.836 453.473 950.239 462.338 946.435 489.162C946.435 489.162 1012.31 485.083 1014.47 478.857C1016.63 472.631 1004.89 417.028 1004.89 417.028Z" fill="white"/>
<path opacity="0.03" d="M1004.89 417.028C1004.89 417.028 1002.02 423.026 996.258 422.055C990.498 421.083 990.51 443.648 990.51 443.648C990.51 443.648 986.682 447.247 984.042 444.128C981.402 441.009 974.442 451.554 974.442 451.554L930.836 453.473C930.836 453.473 950.239 462.338 946.435 489.162C946.435 489.162 1012.31 485.083 1014.47 478.857C1016.63 472.631 1004.89 417.028 1004.89 417.028Z" fill="black"/>
<path d="M878.158 467.569L889.654 477.382L984.282 497.26L972.547 485.287L878.158 467.569Z" fill="white"/>
<path d="M1041.06 358.114C1039.49 360.513 1034.99 372.798 1031.24 383.522C1028.1 392.459 1025.49 400.317 1025.49 400.317C1025.49 400.317 1019.38 440.073 1016.26 447.259C1013.14 454.444 1014.83 482.468 1014.83 482.468L1003.21 551.675C1003.21 551.675 997.938 587.364 989.802 608.681C981.774 629.663 972.835 639.5 972.559 639.812C976.158 634.941 995.778 539.043 995.778 539.043L1002.26 418.096C1002.26 418.096 1003.21 406.603 1004.17 396.778C1005.13 386.953 1024.56 373.541 1024.56 373.541L1043.31 346.897C1045.19 349.417 1043.93 353.807 1041.06 358.114Z" fill="white"/>
<path d="M992.19 513.55C992.19 513.55 964.591 512.351 951.223 496.3C937.856 480.248 982.122 489.894 982.122 489.894L993.63 492.533L992.19 513.55Z" fill="#FFB0B1"/>
<path opacity="0.1" d="M1121.08 697.25C1119.6 702.478 1119.36 707.977 1120.38 713.313C1090.27 715.449 1058.07 707.315 1058.07 707.315C1052.07 712.833 1036.26 720.967 1036.26 720.967L1027.65 614.2C1022.14 599.804 1019.98 524.383 1019.98 524.383C1019.98 524.383 1020.47 520.436 1021.18 514.522C1021.18 514.378 1021.18 514.222 1021.24 514.078C1023.39 497.559 1027.65 466.549 1029.74 462.362C1032.62 456.604 1020.88 441.285 1020.88 441.285L1026.22 395.759L1026.87 390.264C1038.12 385.238 1046.75 369.187 1046.75 369.187L1053.38 357.586C1060.58 352.968 1060.95 398.23 1060.95 398.23L1053.75 505.105L1077.6 498.519C1077.6 498.519 1125.15 683.598 1121.08 697.25Z" fill="black"/>
<path d="M1151.98 704.628C1119.16 720.919 1059.51 705.827 1059.51 705.827C1053.51 711.346 1037.7 719.479 1037.7 719.479L1029.08 612.712C1023.58 598.316 1021.42 522.895 1021.42 522.895C1021.42 522.895 1028.36 466.621 1031.24 460.875C1032.08 459.195 1031.67 456.7 1030.67 454.013C1025.78 441.222 1023.98 427.456 1025.42 413.837L1027.72 394.271L1028.36 388.789C1039.62 383.75 1048.25 367.699 1048.25 367.699L1054.25 357.19L1065.29 337.828L1070.52 328.663L1071.41 329.467L1078.19 335.609C1078.19 335.609 1081.07 338.008 1085.39 341.607C1094.79 349.525 1111.02 363.464 1119.4 371.994C1126.77 379.503 1129.09 408.715 1129.76 430.704C1130.21 445.183 1129.94 456.532 1129.94 456.532C1122.52 468.756 1141.94 566.898 1141.94 566.898C1146.47 585.864 1151.98 704.628 1151.98 704.628Z" fill="white"/>
<path opacity="0.03" d="M1088.98 367.459C1088.98 367.459 1066.46 410.322 1069.07 426.613C1071.69 442.904 1079.13 461.342 1075.54 465.649C1074.31 467.281 1072.71 468.605 1070.88 469.519C1069.05 470.432 1067.04 470.91 1064.99 470.915C1061.39 471.155 1051.79 477.861 1051.79 478.581C1051.79 479.301 1042.92 479.301 1034.99 482.66C1027.06 486.019 1015.35 487.926 1015.35 487.926C1015.35 487.926 992.55 487.206 990.426 489.366C988.302 491.525 986.118 504.445 990.666 514.75C995.214 525.055 1000.27 532.744 1004.08 534.148C1007.9 535.552 1032.11 527.442 1051.76 525.523C1071.4 523.603 1092.72 508.044 1092.72 508.044C1092.72 508.044 1116.21 499.647 1120.32 485.527C1124.44 471.407 1115.29 393.803 1115.29 393.803C1115.29 393.803 1108.38 357.634 1088.98 367.459Z" fill="black"/>
<path opacity="0.03" d="M1086.1 363.861C1086.1 363.861 1063.58 406.735 1066.22 423.014C1068.86 439.293 1076.27 457.744 1072.67 462.062C1071.44 463.696 1069.85 465.022 1068.02 465.936C1066.2 466.85 1064.18 467.327 1062.14 467.329C1058.54 467.569 1048.94 474.275 1048.94 474.994C1048.94 475.714 1040.07 475.714 1032.14 479.061C1024.2 482.408 1012.49 484.328 1012.49 484.328C1012.49 484.328 989.694 483.608 987.582 485.767C985.47 487.927 983.262 500.859 987.822 511.151C992.382 521.444 997.422 529.146 1001.24 530.549C1005.05 531.953 1029.27 523.843 1048.91 521.936C1068.56 520.029 1089.88 504.445 1089.88 504.445C1089.88 504.445 1113.35 496.048 1117.42 481.94C1121.49 467.833 1112.39 390.205 1112.39 390.205C1112.39 390.205 1105.5 354.048 1086.1 363.861Z" fill="black"/>
<path d="M1088.27 365.3C1088.27 365.3 1065.75 408.175 1068.39 424.454C1071.03 440.733 1078.44 459.183 1074.86 463.49C1073.63 465.127 1072.03 466.456 1070.2 467.372C1068.37 468.288 1066.35 468.766 1064.31 468.768C1060.71 469.008 1051.11 475.714 1051.11 476.422C1051.11 477.13 1042.25 477.142 1034.31 480.501C1026.36 483.86 1014.67 485.767 1014.67 485.767C1014.67 485.767 991.866 485.047 989.742 487.207C987.618 489.366 985.434 502.298 989.982 512.591C994.53 522.884 999.582 530.585 1003.4 531.989C1007.21 533.392 1031.43 525.283 1051.07 523.363C1070.72 521.444 1092.04 505.885 1092.04 505.885C1092.04 505.885 1115.52 497.487 1119.64 483.368C1123.75 469.248 1114.67 391.644 1114.67 391.644C1114.67 391.644 1107.66 355.535 1088.27 365.3Z" fill="white"/>
<path opacity="0.1" d="M1087.78 480.297C1087.78 480.297 1069.78 476.698 1076.04 482.696C1082.31 488.694 1082.27 493.949 1089.94 493.709C1097.61 493.469 1087.78 480.297 1087.78 480.297Z" fill="black"/>
<path opacity="0.1" d="M1118.2 609.353C1118.2 609.353 1110.06 614.859 1125.63 627.551C1141.19 640.244 1118.2 609.353 1118.2 609.353Z" fill="black"/>
<path opacity="0.1" d="M1102.67 654.615C1102.67 655.335 1099.79 681.007 1110.57 687.425C1121.34 693.843 1102.67 654.615 1102.67 654.615Z" fill="black"/>
<path d="M931.581 453.413C922.893 453.713 904.126 456.364 913.857 474.515C922.461 490.578 936.92 479.841 945.056 471.695C943.072 464.101 938.248 457.557 931.581 453.413Z" fill="#FFB0B1"/>
<path opacity="0.1" d="M1085.39 342.339C1076.17 348.637 1068.45 353.952 1066.94 355.055C1062.81 358.114 1054.94 376.073 1049.86 385.238C1045.82 392.616 1032.68 394.511 1027.72 394.979L1028.36 389.497C1039.62 384.458 1048.25 368.407 1048.25 368.407L1070.52 329.371L1078.19 336.341C1078.19 336.341 1081.07 338.74 1085.39 342.339Z" fill="black"/>
<path d="M1085.39 341.619C1076.17 347.917 1068.45 353.232 1066.94 354.348C1062.81 357.395 1054.94 375.353 1049.86 384.518C1045.82 391.896 1032.68 393.791 1027.72 394.259L1028.36 388.777C1039.62 383.738 1048.25 367.687 1048.25 367.687L1070.52 328.651L1078.19 335.597C1078.19 335.597 1081.07 337.973 1085.39 341.619Z" fill="#DCE7FF"/>
<path d="M1067.66 311.053C1067.66 318.254 1065.48 325.287 1061.39 331.218C1056.57 338.232 1049.39 343.284 1041.16 345.459C1032.93 347.634 1024.19 346.786 1016.53 343.071C1008.87 339.356 1002.79 333.018 999.409 325.209C996.023 317.399 995.55 308.635 998.075 300.507C1000.6 292.378 1005.96 285.424 1013.17 280.905C1020.39 276.387 1028.98 274.604 1037.4 275.88C1045.82 277.155 1053.5 281.405 1059.05 287.859C1064.6 294.312 1067.65 302.541 1067.66 311.053Z" fill="#FFB0B1"/>
<path opacity="0.1" d="M1129.76 430.716C1124.89 427.719 1120.92 423.457 1118.28 418.384C1116.28 414.425 1114.95 409.854 1111.53 407.047C1108.44 404.528 1104.33 403.916 1100.49 402.789C1087.86 399.058 1077.28 387.541 1076.88 374.393C1076.69 368.203 1078.62 362.025 1077.75 355.895C1077.25 352.425 1075.87 349.142 1073.74 346.358C1072.68 345.026 1071.52 343.779 1070.27 342.627C1068.59 341.043 1066.83 339.508 1065.29 337.828C1064.32 336.789 1063.48 335.641 1062.77 334.409C1062.2 333.401 1061.74 332.336 1061.39 331.23C1058.99 323.889 1061.18 315.179 1058.54 307.754L1058.39 307.346C1057.4 304.707 1055.37 302.067 1052.55 301.863C1049.73 301.66 1047.32 303.999 1044.63 305.042C1039 307.226 1032.93 303.507 1028.24 299.716C1023.54 295.925 1018.25 291.595 1012.29 292.434C1008.34 292.998 1005.22 295.685 1001.59 297.077C1000.76 297.395 999.918 297.64 999.054 297.809C1002.13 290.137 1007.78 283.776 1015.04 279.819C1022.3 275.862 1030.71 274.555 1038.83 276.124C1046.95 277.692 1054.26 282.038 1059.52 288.414C1064.78 294.791 1067.66 302.799 1067.66 311.065C1067.66 313.561 1067.4 316.05 1066.88 318.49C1066.94 318.658 1067 318.814 1067.07 318.982C1068.46 322.581 1070.03 326.276 1071.41 329.467L1078.19 335.609C1078.19 335.609 1081.07 338.008 1085.39 341.607C1094.79 349.525 1111.02 363.465 1119.4 371.994C1126.76 379.528 1129.07 408.727 1129.76 430.716Z" fill="black"/>
<path d="M1001.17 275.16C1002.88 271.669 1003.73 267.758 1005.79 264.447C1008.8 259.648 1014.05 256.577 1019.45 254.718C1033.55 249.859 1063.35 242.806 1072.25 254.718C1074 257.117 1075.45 259.78 1077.88 261.436C1079.73 262.695 1081.96 263.235 1083.99 264.183C1089.66 266.846 1093.29 272.652 1095.22 278.579C1097.15 284.505 1097.73 290.863 1099.14 296.969C1100.95 304.803 1104.13 312.228 1107.3 319.606C1111.03 328.315 1114.99 337.349 1122.19 343.503C1132.02 351.9 1134.19 363.788 1143.31 373.002C1154.11 383.942 1153.76 401.997 1148.2 416.332C1147.46 418.216 1146.64 420.183 1146.92 422.187C1147.21 424.19 1148.7 426.013 1150.1 427.609L1156.01 434.267C1142.04 437.638 1126.24 430.344 1119.73 417.544C1117.73 413.585 1116.4 409.027 1112.97 406.207C1109.89 403.688 1105.77 403.088 1101.94 401.961C1089.31 398.218 1078.73 386.689 1078.33 373.541C1078.14 367.363 1080.07 361.185 1079.2 355.067C1078.71 351.574 1077.33 348.268 1075.18 345.47C1071.88 341.163 1066.9 338.272 1064.21 333.474C1059.66 325.448 1063.12 315.023 1059.84 306.41C1058.84 303.771 1056.82 301.132 1054 300.928C1051.18 300.724 1048.77 303.063 1046.07 304.107C1040.45 306.29 1034.38 302.583 1029.69 298.78C1025 294.978 1019.7 290.659 1013.73 291.511C1009.78 292.062 1006.67 294.75 1003.04 296.153C1000.35 297.185 994.902 298.109 992.55 295.841C987.582 291.271 999.089 279.43 1001.17 275.16Z" fill="#591D4B"/>
<path opacity="0.1" d="M1123.07 413.585C1121.05 409.626 1119.73 405.068 1116.3 402.261C1113.23 399.741 1109.1 399.13 1105.26 398.002C1092.65 394.271 1082.07 382.743 1081.66 369.595C1081.47 363.417 1083.4 357.226 1082.54 351.108C1082.03 347.638 1080.65 344.355 1078.52 341.571C1075.2 337.265 1070.22 334.373 1067.55 329.575C1063 321.561 1066.46 311.137 1063.17 302.511C1062.17 299.884 1060.14 297.245 1057.34 297.029C1054.53 296.813 1052.09 299.176 1049.4 300.22C1043.79 302.403 1037.7 298.684 1033.03 294.894C1028.35 291.103 1023.03 286.772 1017.07 287.612C1013.12 288.176 1010 290.863 1006.37 292.254C1003.69 293.286 998.226 294.222 995.874 291.954C990.931 287.156 1002.44 275.34 1004.5 271.093C1006.22 267.59 1007.07 263.691 1009.13 260.38C1009.24 260.2 1009.36 260.02 1009.48 259.84C1007.94 261.119 1006.61 262.633 1005.53 264.327C1003.48 267.638 1002.63 271.525 1000.91 275.04C998.838 279.286 987.331 291.139 992.287 295.901C994.687 298.181 1000.09 297.245 1002.77 296.213C1006.37 294.81 1009.52 292.122 1013.47 291.571C1019.47 290.719 1024.75 295.05 1029.43 298.84C1034.11 302.631 1040.22 306.35 1045.82 304.167C1048.5 303.123 1050.86 300.772 1053.74 300.988C1056.62 301.204 1058.54 303.831 1059.58 306.47C1062.86 315.083 1059.4 325.508 1063.95 333.534C1066.64 338.248 1071.62 341.199 1074.92 345.53C1077.06 348.328 1078.45 351.634 1078.94 355.127C1079.81 361.245 1077.88 367.423 1078.07 373.601C1078.47 386.797 1089.05 398.278 1101.67 402.021C1105.48 403.148 1109.63 403.748 1112.7 406.267C1116.15 409.087 1117.5 413.645 1119.47 417.604C1125.97 430.404 1141.78 437.698 1155.74 434.327L1152.96 431.184C1140.85 431.364 1128.6 424.478 1123.07 413.585Z" fill="black"/>
<path opacity="0.1" d="M1040.34 358.834C1038.77 361.233 1034.27 373.518 1030.52 384.242C1027 382.875 1023.81 374.153 1023.81 374.153L1042.55 347.498C1044.47 350.137 1043.21 354.515 1040.34 358.834Z" fill="black"/>
<path d="M1041.06 358.114C1039.49 360.513 1034.99 372.798 1031.24 383.522C1027.72 382.167 1024.53 373.433 1024.53 373.433L1043.27 346.79C1045.19 349.417 1043.93 353.807 1041.06 358.114Z" fill="#DCE7FF"/>
<path d="M932.085 480.668L921.693 447.906C921.57 447.523 921.524 447.119 921.558 446.717C921.591 446.316 921.704 445.925 921.889 445.567C922.074 445.21 922.328 444.892 922.636 444.632C922.944 444.373 923.301 444.177 923.685 444.056C924.458 443.814 925.296 443.888 926.015 444.261C926.734 444.634 927.277 445.276 927.525 446.047L937.916 478.773L936.884 485.623L932.085 480.668Z" fill="#BE8B87"/>
<path opacity="0.1" d="M922.677 445.028C923.452 444.783 924.293 444.855 925.014 445.228C925.736 445.601 926.281 446.245 926.529 447.019L936.921 479.745L936.141 484.879L936.896 485.671L937.929 478.821L927.477 446.095C927.229 445.324 926.686 444.682 925.967 444.309C925.248 443.936 924.41 443.863 923.637 444.104C922.986 444.315 922.425 444.737 922.041 445.304C922.245 445.194 922.458 445.102 922.677 445.028Z" fill="white"/>
<path d="M932.084 480.669L937.916 478.821L937.064 484.436L936.884 485.671L935.18 483.896L932.084 480.669Z" fill="#EFC8C4"/>
<path d="M935.18 483.895C935.281 483.767 935.408 483.661 935.552 483.584C935.636 483.53 935.734 483.502 935.834 483.502C935.934 483.502 936.031 483.53 936.116 483.584C936.197 483.682 936.266 483.791 936.32 483.907C936.399 484.04 936.507 484.153 936.636 484.238C936.765 484.323 936.911 484.378 937.064 484.399L936.884 485.599L935.18 483.895Z" fill="#727A9C"/>
<path d="M921.633 459.543C921.633 459.543 942.476 459.423 937.568 468.288C932.66 477.154 924.993 478.221 924.993 478.221L921.633 459.543Z" fill="#FFB0B1"/>
<path d="M792.001 61.6851H791.101C755.294 61.6851 723.627 80.6272 705.412 108.579C687.197 80.6272 655.53 61.6851 619.723 61.6851H618.823C591.951 61.9411 566.266 72.7889 547.349 91.8711C528.433 110.953 517.813 136.728 517.799 163.594C517.799 196.956 532.414 244.293 560.913 283.245C615.211 357.466 705.412 422.402 705.412 422.402C705.412 422.402 795.613 357.478 849.899 283.245C878.41 244.293 893.013 196.956 893.013 163.594C892.999 136.73 882.381 110.957 863.467 91.8753C844.553 72.7934 818.871 61.9442 792.001 61.6851ZM779.125 288.955C775.047 288.94 771.069 287.692 767.714 285.375C764.358 283.059 761.781 279.782 760.322 275.975H738.915C737.505 275.967 736.133 275.518 734.991 274.692C733.849 273.866 732.993 272.704 732.543 271.369L725.967 251.563L705.16 324.249C704.755 325.648 703.906 326.878 702.742 327.754C701.578 328.63 700.161 329.105 698.704 329.107H698.284C696.764 329.034 695.315 328.441 694.179 327.428C693.043 326.415 692.29 325.042 692.044 323.541L670.601 194.604L654.93 270.901C654.57 272.35 653.736 273.638 652.559 274.557C651.383 275.477 649.932 275.976 648.438 275.975H618.283C617.379 276.014 616.477 275.869 615.63 275.549C614.784 275.23 614.011 274.742 613.358 274.116C612.705 273.49 612.185 272.739 611.83 271.907C611.475 271.075 611.292 270.18 611.292 269.275C611.292 268.371 611.475 267.476 611.83 266.644C612.185 265.812 612.705 265.06 613.358 264.434C614.011 263.808 614.784 263.321 615.63 263.002C616.477 262.682 617.379 262.537 618.283 262.575H643.158L665.357 159.995C665.722 158.478 666.602 157.135 667.847 156.196C669.092 155.256 670.625 154.778 672.184 154.843C673.743 154.908 675.231 155.512 676.393 156.553C677.556 157.593 678.32 159.005 678.557 160.547L700.456 292.074L719.103 227.042C719.492 225.673 720.313 224.465 721.444 223.6C722.575 222.736 723.955 222.26 725.379 222.244H725.511C726.921 222.244 728.296 222.69 729.438 223.517C730.58 224.344 731.431 225.511 731.871 226.85L743.763 262.611H760.058C761.217 259.092 763.325 255.962 766.151 253.565C768.977 251.169 772.41 249.599 776.072 249.03C779.734 248.461 783.481 248.915 786.902 250.341C790.322 251.766 793.281 254.109 795.454 257.111C797.626 260.112 798.927 263.655 799.213 267.349C799.498 271.042 798.757 274.743 797.072 278.042C795.386 281.342 792.822 284.111 789.661 286.045C786.501 287.98 782.867 289.003 779.161 289.003L779.125 288.955Z" fill="#4BB2E2"/>
</g>
<defs>
<linearGradient id="paint0_linear_906_7206" x1="372.58" y1="929.559" x2="372.58" y2="191.377" gradientUnits="userSpaceOnUse">
<stop stop-color="#808080" stop-opacity="0.25"/>
<stop offset="0.54" stop-color="#808080" stop-opacity="0.12"/>
<stop offset="1" stop-color="#808080" stop-opacity="0.1"/>
</linearGradient>
<linearGradient id="paint1_linear_906_7206" x1="1017.08" y1="920.226" x2="1017.08" y2="246.032" gradientUnits="userSpaceOnUse">
<stop stop-color="#808080" stop-opacity="0.25"/>
<stop offset="0.54" stop-color="#808080" stop-opacity="0.12"/>
<stop offset="1" stop-color="#808080" stop-opacity="0.1"/>
</linearGradient>
<clipPath id="clip0_906_7206">
<rect width="1326" height="939" fill="white" transform="translate(-55)"/>
</clipPath>
</defs>
</svg>
