<svg width="12" height="12" viewBox="0 0 12 12" fill="none" xmlns="http://www.w3.org/2000/svg">
<path d="M6.5 0.5H1.5V11.5H6.5505C5.95858 10.9207 5.59127 10.1503 5.51387 9.32569C5.43646 8.50109 5.65399 7.67577 6.12776 6.99644C6.60154 6.31712 7.30087 5.82781 8.10142 5.61552C8.90197 5.40323 9.75186 5.48171 10.5 5.837V4.5H6.5V0.5Z" fill="black"/>
<path d="M10.5 3.5V3.293L7.707 0.5H7.5V3.5H10.5ZM9 6.25C8.63886 6.25 8.28127 6.32113 7.94762 6.45933C7.61398 6.59753 7.31082 6.8001 7.05546 7.05546C6.8001 7.31082 6.59753 7.61398 6.45933 7.94762C6.32113 8.28127 6.25 8.63886 6.25 9C6.25 9.36114 6.32113 9.71873 6.45933 10.0524C6.59753 10.386 6.8001 10.6892 7.05546 10.9445C7.31082 11.1999 7.61398 11.4025 7.94762 11.5407C8.28127 11.6789 8.63886 11.75 9 11.75C9.72935 11.75 10.4288 11.4603 10.9445 10.9445C11.4603 10.4288 11.75 9.72935 11.75 9C11.75 8.27065 11.4603 7.57118 10.9445 7.05546C10.4288 6.53973 9.72935 6.25 9 6.25ZM7.25 9C7.24988 8.69688 7.32849 8.39892 7.47815 8.13532C7.6278 7.87172 7.84336 7.6515 8.1037 7.49625C8.36405 7.341 8.66026 7.25604 8.96331 7.24968C9.26637 7.24333 9.56587 7.3158 9.8325 7.46L7.4605 9.8325C7.32228 9.57679 7.24994 9.29068 7.25 9ZM8.1675 10.54L10.5395 8.1675C10.7193 8.49911 10.7871 8.87992 10.7328 9.2532C10.6786 9.62648 10.5052 9.97224 10.2385 10.239C9.97174 10.5057 9.62598 10.6791 9.2527 10.7333C8.87942 10.7876 8.49911 10.7198 8.1675 10.54Z" fill="black"/>
</svg>
