<svg width="16" height="18" viewBox="0 0 16 18" fill="none" xmlns="http://www.w3.org/2000/svg">
<path d="M4.66667 10.6667C4.43056 10.6667 4.23278 10.5867 4.07333 10.4267C3.91389 10.2667 3.83389 10.0689 3.83333 9.83333C3.83278 9.59777 3.91278 9.39999 4.07333 9.23999C4.23389 9.07999 4.43167 8.99999 4.66667 8.99999C4.90167 8.99999 5.09972 9.07999 5.26083 9.23999C5.42194 9.39999 5.50167 9.59777 5.5 9.83333C5.49833 10.0689 5.41833 10.2669 5.26 10.4275C5.10167 10.588 4.90389 10.6678 4.66667 10.6667ZM8 10.6667C7.76389 10.6667 7.56611 10.5867 7.40667 10.4267C7.24722 10.2667 7.16722 10.0689 7.16667 9.83333C7.16611 9.59777 7.24611 9.39999 7.40667 9.23999C7.56722 9.07999 7.765 8.99999 8 8.99999C8.235 8.99999 8.43306 9.07999 8.59417 9.23999C8.75528 9.39999 8.835 9.59777 8.83333 9.83333C8.83167 10.0689 8.75167 10.2669 8.59333 10.4275C8.435 10.588 8.23722 10.6678 8 10.6667ZM11.3333 10.6667C11.0972 10.6667 10.8994 10.5867 10.74 10.4267C10.5806 10.2667 10.5006 10.0689 10.5 9.83333C10.4994 9.59777 10.5794 9.39999 10.74 9.23999C10.9006 9.07999 11.0983 8.99999 11.3333 8.99999C11.5683 8.99999 11.7664 9.07999 11.9275 9.23999C12.0886 9.39999 12.1683 9.59777 12.1667 9.83333C12.165 10.0689 12.085 10.2669 11.9267 10.4275C11.7683 10.588 11.5706 10.6678 11.3333 10.6667ZM2.16667 17.3333C1.70833 17.3333 1.31611 17.1703 0.99 16.8442C0.663889 16.518 0.500556 16.1255 0.5 15.6667V3.99999C0.5 3.54166 0.663333 3.14944 0.99 2.82333C1.31667 2.49721 1.70889 2.33388 2.16667 2.33333H3V1.49999C3 1.26388 3.08 1.0661 3.24 0.906659C3.4 0.747215 3.59778 0.667215 3.83333 0.666659C4.06889 0.666104 4.26694 0.746104 4.4275 0.906659C4.58806 1.06722 4.66778 1.26499 4.66667 1.49999V2.33333H11.3333V1.49999C11.3333 1.26388 11.4133 1.0661 11.5733 0.906659C11.7333 0.747215 11.9311 0.667215 12.1667 0.666659C12.4022 0.666104 12.6003 0.746104 12.7608 0.906659C12.9214 1.06722 13.0011 1.26499 13 1.49999V2.33333H13.8333C14.2917 2.33333 14.6842 2.49666 15.0108 2.82333C15.3375 3.14999 15.5006 3.54221 15.5 3.99999V15.6667C15.5 16.125 15.3369 16.5175 15.0108 16.8442C14.6847 17.1708 14.2922 17.3339 13.8333 17.3333H2.16667ZM2.16667 15.6667H13.8333V7.33333H2.16667V15.6667Z" fill="#181818"/>
</svg>
