<svg width="11" height="7" viewBox="0 0 11 7" fill="none" xmlns="http://www.w3.org/2000/svg">
<path d="M10.1857 0.992757L5.50003 5.56026L0.814401 0.992757C0.730688 0.910979 0.618303 0.865195 0.501276 0.865195C0.384248 0.865195 0.271864 0.910979 0.188151 0.992757C0.147615 1.03247 0.115412 1.07988 0.0934277 1.1322C0.0714434 1.18451 0.0601196 1.24069 0.0601196 1.29744C0.0601196 1.35419 0.0714434 1.41037 0.0934277 1.46269C0.115412 1.51501 0.147615 1.56241 0.188151 1.60213L5.17284 6.46213C5.26038 6.54746 5.37778 6.59521 5.50003 6.59521C5.62227 6.59521 5.73968 6.54746 5.82721 6.46213L10.8119 1.60307C10.8527 1.56332 10.8852 1.5158 10.9073 1.46331C10.9295 1.41082 10.9409 1.35442 10.9409 1.29744C10.9409 1.24047 10.9295 1.18407 10.9073 1.13158C10.8852 1.07909 10.8527 1.03157 10.8119 0.991819C10.7282 0.910041 10.6158 0.864258 10.4988 0.864258C10.3817 0.864258 10.2694 0.910041 10.1857 0.991819V0.992757Z" fill="#181818"/>
</svg>
