<svg width="20" height="16" viewBox="0 0 20 16" fill="none" xmlns="http://www.w3.org/2000/svg">
<path d="M15 10C15.5933 10 16.1734 9.82405 16.6667 9.49441C17.1601 9.16476 17.5446 8.69623 17.7716 8.14805C17.9987 7.59987 18.0581 6.99667 17.9424 6.41473C17.8266 5.83279 17.5409 5.29824 17.1213 4.87868C16.7018 4.45912 16.1672 4.1734 15.5853 4.05764C15.0033 3.94189 14.4001 4.0013 13.8519 4.22836C13.3038 4.45542 12.8352 4.83994 12.5056 5.33329C12.1759 5.82664 12 6.40666 12 7C12 7.79565 12.3161 8.55871 12.8787 9.12132C13.4413 9.68393 14.2044 10 15 10ZM16.5 11C16.4251 10.9997 16.3507 11.0112 16.2794 11.0341C15.4507 11.322 14.549 11.322 13.7203 11.0341C13.6491 11.0112 13.5748 10.9997 13.5 11C13.0387 11 12.582 11.0912 12.1561 11.2683C11.7302 11.4454 11.3435 11.7049 11.0183 12.032C10.693 12.359 10.4356 12.7472 10.2608 13.174C10.0861 13.6009 9.99745 14.0581 10 14.5194C10.0044 15.34 10.6791 16 11.5 16H18.5C19.3209 16 19.9956 15.34 20 14.5194C20.0026 14.0581 19.9139 13.6009 19.7392 13.174C19.5644 12.7472 19.307 12.359 18.9817 12.032C18.6565 11.7049 18.2698 11.4454 17.8439 11.2683C17.418 11.0912 16.9613 11 16.5 11ZM10.3097 11.3266C10.521 11.1187 10.7522 10.9321 11 10.7694V4C11 3.73478 10.8946 3.48043 10.7071 3.29289C10.5196 3.10536 10.2652 3 10 3H9V1C9 0.734784 8.89464 0.48043 8.70711 0.292893C8.51957 0.105357 8.26522 0 8 0L3 0C2.73478 0 2.48043 0.105357 2.29289 0.292893C2.10536 0.48043 2 0.734784 2 1V3H1C0.734784 3 0.48043 3.10536 0.292893 3.29289C0.105357 3.48043 0 3.73478 0 4L0 15.5C0 15.6326 0.0526784 15.7598 0.146447 15.8536C0.240215 15.9473 0.367392 16 0.5 16H9.50969C9.18394 15.5767 9.00501 15.0588 9 14.5247C8.99516 13.9314 9.10847 13.343 9.33332 12.794C9.55818 12.2449 9.89008 11.7461 10.3097 11.3266ZM4.5 12.625C4.5 12.7245 4.46049 12.8198 4.39016 12.8902C4.31984 12.9605 4.22446 13 4.125 13H2.875C2.77554 13 2.68016 12.9605 2.60983 12.8902C2.53951 12.8198 2.5 12.7245 2.5 12.625V11.375C2.5 11.2755 2.53951 11.1802 2.60983 11.1098C2.68016 11.0395 2.77554 11 2.875 11H4.125C4.22446 11 4.31984 11.0395 4.39016 11.1098C4.46049 11.1802 4.5 11.2755 4.5 11.375V12.625ZM4.5 8.625C4.5 8.72446 4.46049 8.81984 4.39016 8.89017C4.31984 8.96049 4.22446 9 4.125 9H2.875C2.77554 9 2.68016 8.96049 2.60983 8.89017C2.53951 8.81984 2.5 8.72446 2.5 8.625V7.375C2.5 7.27554 2.53951 7.18016 2.60983 7.10984C2.68016 7.03951 2.77554 7 2.875 7H4.125C4.22446 7 4.31984 7.03951 4.39016 7.10984C4.46049 7.18016 4.5 7.27554 4.5 7.375V8.625ZM6 4.8125C6 4.86223 5.98025 4.90992 5.94508 4.94508C5.90992 4.98025 5.86223 5 5.8125 5H5.1875C5.13777 5 5.09008 4.98025 5.05492 4.94508C5.01975 4.90992 5 4.86223 5 4.8125V4H4.1875C4.13777 4 4.09008 3.98025 4.05492 3.94508C4.01975 3.90992 4 3.86223 4 3.8125V3.1875C4 3.13777 4.01975 3.09008 4.05492 3.05492C4.09008 3.01975 4.13777 3 4.1875 3H5V2.1875C5 2.13777 5.01975 2.09008 5.05492 2.05492C5.09008 2.01975 5.13777 2 5.1875 2H5.8125C5.86223 2 5.90992 2.01975 5.94508 2.05492C5.98025 2.09008 6 2.13777 6 2.1875V3H6.8125C6.86223 3 6.90992 3.01975 6.94508 3.05492C6.98025 3.09008 7 3.13777 7 3.1875V3.8125C7 3.86223 6.98025 3.90992 6.94508 3.94508C6.90992 3.98025 6.86223 4 6.8125 4H6V4.8125ZM8.5 12.625C8.5 12.7245 8.46049 12.8198 8.39017 12.8902C8.31984 12.9605 8.22446 13 8.125 13H6.875C6.77554 13 6.68016 12.9605 6.60984 12.8902C6.53951 12.8198 6.5 12.7245 6.5 12.625V11.375C6.5 11.2755 6.53951 11.1802 6.60984 11.1098C6.68016 11.0395 6.77554 11 6.875 11H8.125C8.22446 11 8.31984 11.0395 8.39017 11.1098C8.46049 11.1802 8.5 11.2755 8.5 11.375V12.625ZM8.5 8.625C8.5 8.72446 8.46049 8.81984 8.39017 8.89017C8.31984 8.96049 8.22446 9 8.125 9H6.875C6.77554 9 6.68016 8.96049 6.60984 8.89017C6.53951 8.81984 6.5 8.72446 6.5 8.625V7.375C6.5 7.27554 6.53951 7.18016 6.60984 7.10984C6.68016 7.03951 6.77554 7 6.875 7H8.125C8.22446 7 8.31984 7.03951 8.39017 7.10984C8.46049 7.18016 8.5 7.27554 8.5 7.375V8.625Z" fill="#181818"/>
</svg>
