<svg width="12" height="12" viewBox="0 0 12 12" fill="none" xmlns="http://www.w3.org/2000/svg">
<path d="M9.18191 7.76799L8.47491 7.06099L9.88891 5.64599C11.0609 4.47499 11.2189 2.73399 10.2429 1.75699C9.26591 0.780989 7.5249 0.938989 6.3529 2.11099L4.93991 3.52499L4.2329 2.81799L5.6469 1.40399C7.2099 -0.158011 9.58391 -0.316011 10.9509 1.04999C12.3179 2.41699 12.1589 4.79099 10.5969 6.35399L9.18291 7.76799H9.18191ZM7.7679 9.18199L6.35391 10.596C4.7909 12.158 2.41691 12.316 1.04991 10.95C-0.317095 9.58299 -0.158095 7.20899 1.40391 5.64599L2.81791 4.23199L3.52491 4.93899L2.11091 6.35399C0.938905 7.52499 0.780905 9.26599 1.75691 10.243C2.73391 11.219 4.47491 11.061 5.6469 9.88899L7.0609 8.47499L7.7679 9.18199ZM7.7679 3.52499L8.47491 4.23199L4.2319 8.47499L3.52491 7.76799L7.7679 3.52499Z" fill="black"/>
</svg>
