<svg width="16" height="12" viewBox="0 0 16 12" fill="none" xmlns="http://www.w3.org/2000/svg">
<path d="M14.5377 8.56594C14.5963 8.2575 14.5963 7.9425 14.5377 7.63406L15.1183 7.30813C15.1858 7.27094 15.2151 7.19438 15.1926 7.12219C15.0418 6.64969 14.783 6.22094 14.4455 5.86656C14.3937 5.81188 14.3105 5.79875 14.243 5.83594L13.6624 6.16188C13.4171 5.95844 13.1358 5.80094 12.8321 5.69594V5.04406C12.8321 4.96969 12.7781 4.90406 12.7038 4.88875C12.202 4.77938 11.6912 4.78375 11.2141 4.88875C11.1399 4.90406 11.0859 4.96969 11.0859 5.04406V5.69594C10.7821 5.80094 10.5008 5.95844 10.2555 6.16188L9.67498 5.83594C9.60973 5.79875 9.52422 5.81188 9.47246 5.86656C9.13493 6.22094 8.87615 6.64969 8.72538 7.12219C8.70288 7.19438 8.73439 7.27094 8.79964 7.30813L9.3802 7.63406C9.3217 7.9425 9.3217 8.2575 9.3802 8.56594L8.79964 8.89188C8.73213 8.92906 8.70288 9.00563 8.72538 9.07781C8.87615 9.55031 9.13493 9.97688 9.47246 10.3334C9.52422 10.3881 9.60748 10.4013 9.67498 10.3641L10.2555 10.0381C10.5008 10.2416 10.7821 10.3991 11.0859 10.5041V11.1559C11.0859 11.2303 11.1399 11.2959 11.2141 11.3113C11.7159 11.4206 12.2268 11.4163 12.7038 11.3113C12.7781 11.2959 12.8321 11.2303 12.8321 11.1559V10.5041C13.1358 10.3991 13.4171 10.2416 13.6624 10.0381L14.243 10.3641C14.3082 10.4013 14.3937 10.3881 14.4455 10.3334C14.783 9.97906 15.0418 9.55031 15.1926 9.07781C15.2151 9.00563 15.1836 8.92906 15.1183 8.89188L14.5377 8.56594ZM11.9612 9.16094C11.3582 9.16094 10.8699 8.68406 10.8699 8.1C10.8699 7.51594 11.3604 7.03906 11.9612 7.03906C12.562 7.03906 13.0526 7.51594 13.0526 8.1C13.0526 8.68406 12.5643 9.16094 11.9612 9.16094ZM5.84058 6C7.4315 6 8.72088 4.74656 8.72088 3.2C8.72088 1.65344 7.4315 0.400002 5.84058 0.400002C4.24966 0.400002 2.96028 1.65344 2.96028 3.2C2.96028 4.74656 4.24966 6 5.84058 6ZM10.3681 10.9547C10.3163 10.9284 10.2645 10.8978 10.215 10.8694L10.0373 10.97C9.90226 11.0444 9.74924 11.0859 9.59623 11.0859C9.35095 11.0859 9.11468 10.9853 8.94591 10.8103C8.53411 10.3772 8.21908 9.85 8.04131 9.28781C7.91755 8.90063 8.08407 8.49156 8.4441 8.28813L8.62187 8.1875C8.61962 8.13063 8.61962 8.07375 8.62187 8.01688L8.4441 7.91625C8.08407 7.715 7.91755 7.30375 8.04131 6.91656C8.06156 6.85313 8.09082 6.78969 8.11332 6.72625C8.02781 6.71969 7.94455 6.7 7.85679 6.7H7.481C6.98145 6.92313 6.42564 7.05 5.84058 7.05C5.25552 7.05 4.70196 6.92313 4.20016 6.7H3.82437C2.15469 6.7 0.800049 8.01688 0.800049 9.64V10.55C0.800049 11.1297 1.28385 11.6 1.88016 11.6H9.801C10.0283 11.6 10.2398 11.53 10.4131 11.4141C10.3861 11.3309 10.3681 11.2456 10.3681 11.1559V10.9547Z" fill="black"/>
</svg>
