<svg width="14" height="14" viewBox="0 0 14 14" fill="none" xmlns="http://www.w3.org/2000/svg">
<path fill-rule="evenodd" clip-rule="evenodd" d="M9.00033 0.333496C9.35395 0.333496 9.69309 0.473972 9.94313 0.72402C10.1932 0.974069 10.3337 1.31321 10.3337 1.66683V3.00016H9.00033V1.66683H1.66699V9.00016H3.00033V10.3335H1.66699C1.31337 10.3335 0.974233 10.193 0.724184 9.94297C0.474135 9.69292 0.33366 9.35378 0.33366 9.00016V1.66683C0.33366 1.31321 0.474135 0.974069 0.724184 0.72402C0.974233 0.473972 1.31337 0.333496 1.66699 0.333496H9.00033ZM12.3337 3.66683C12.6873 3.66683 13.0264 3.8073 13.2765 4.05735C13.5265 4.3074 13.667 4.64654 13.667 5.00016V12.3335C13.667 12.6871 13.5265 13.0263 13.2765 13.2763C13.0264 13.5264 12.6873 13.6668 12.3337 13.6668H5.00033C4.6467 13.6668 4.30757 13.5264 4.05752 13.2763C3.80747 13.0263 3.66699 12.6871 3.66699 12.3335V5.00016C3.66699 4.64654 3.80747 4.3074 4.05752 4.05735C4.30757 3.8073 4.6467 3.66683 5.00033 3.66683H12.3337Z" fill="black"/>
</svg>
