<svg width="15" height="13" viewBox="0 0 15 13" fill="none" xmlns="http://www.w3.org/2000/svg">
<path d="M1.25 12.125H10.625C11.0625 12.125 11.375 11.875 11.625 11.5625L15 6.5L11.625 1.4375C11.375 1.125 11.0625 0.875 10.625 0.875H1.25C0.918479 0.875 0.600537 1.0067 0.366117 1.24112C0.131696 1.47554 0 1.79348 0 2.125L0 10.875C0 11.2065 0.131696 11.5245 0.366117 11.7589C0.600537 11.9933 0.918479 12.125 1.25 12.125ZM3.125 4.25L4 3.375L6.25 5.625L8.5 3.375L9.375 4.25L7.125 6.5L9.375 8.75L8.5 9.625L6.25 7.375L4 9.625L3.125 8.75L5.375 6.5" fill="black"/>
</svg>
