<svg width="12" height="15" viewBox="0 0 12 15" fill="none" xmlns="http://www.w3.org/2000/svg">
<path fill-rule="evenodd" clip-rule="evenodd" d="M6 0V4.875C6.00001 5.15466 6.10419 5.42429 6.29221 5.63131C6.48024 5.83834 6.73863 5.9679 7.017 5.99475L7.125 6H12V13.5C12.0001 13.8784 11.8572 14.2429 11.5999 14.5204C11.3426 14.7979 10.9899 14.9679 10.6125 14.9963L10.5 15H1.5C1.12157 15.0001 0.757075 14.8572 0.479589 14.5999C0.202103 14.3426 0.0321326 13.9899 0.00375016 13.6125L7.5201e-08 13.5V1.5C-0.000119684 1.12157 0.142805 0.757075 0.400123 0.479589C0.657441 0.202103 1.01013 0.0321325 1.3875 0.00375009L1.5 0H6ZM6 7.125C5.8163 7.12502 5.639 7.19247 5.50172 7.31454C5.36444 7.43661 5.27674 7.60481 5.25525 7.78725L5.25 7.875V9H4.125C3.93384 9.00021 3.74998 9.07341 3.61097 9.20464C3.47197 9.33586 3.38832 9.51521 3.37712 9.70605C3.36592 9.89688 3.42801 10.0848 3.5507 10.2314C3.67339 10.378 3.84743 10.4722 4.03725 10.4948L4.125 10.5H5.25V11.625C5.25021 11.8162 5.32341 12 5.45464 12.139C5.58586 12.278 5.76521 12.3617 5.95605 12.3729C6.14688 12.3841 6.33478 12.322 6.48137 12.1993C6.62796 12.0766 6.72217 11.9026 6.74475 11.7128L6.75 11.625V10.5H7.875C8.06616 10.4998 8.25002 10.4266 8.38903 10.2954C8.52803 10.1641 8.61168 9.98479 8.62288 9.79395C8.63408 9.60312 8.57199 9.41522 8.4493 9.26863C8.32661 9.12204 8.15257 9.02783 7.96275 9.00525L7.875 9H6.75V7.875C6.75 7.67609 6.67098 7.48532 6.53033 7.34467C6.38968 7.20402 6.19891 7.125 6 7.125ZM7.5 0.03225C7.74253 0.0837373 7.96852 0.194542 8.15775 0.35475L8.25 0.4395L11.5605 3.75C11.7362 3.92558 11.8656 4.14206 11.937 4.38L11.967 4.5H7.5V0.03225Z" fill="#FFFAFA"/>
</svg>
