<svg width="627" height="444" viewBox="0 0 627 444" fill="none" xmlns="http://www.w3.org/2000/svg">
<g clip-path="url(#clip0_20_412)">
<path opacity="0.1" d="M208.452 443.75C238.986 443.75 263.739 439.776 263.739 434.873C263.739 429.97 238.986 425.996 208.452 425.996C177.917 425.996 153.164 429.97 153.164 434.873C153.164 439.776 177.917 443.75 208.452 443.75Z" fill="#E27B4A"/>
<path opacity="0.1" d="M508.986 444C547.089 444 577.977 440.026 577.977 435.123C577.977 430.22 547.089 426.245 508.986 426.245C470.884 426.245 439.996 430.22 439.996 435.123C439.996 440.026 470.884 444 508.986 444Z" fill="#E27B4A"/>
<path opacity="0.1" d="M7.8528 191.84H65.4383V270.306H12.0686C11.9267 271.111 11.7906 271.923 11.643 272.734H65.4383V336.015C65.3418 335.986 65.2567 335.952 65.1659 335.918C63.6453 335.317 62.136 334.682 60.6267 334.001L59.6621 333.564C58.1491 332.85 56.636 332.093 55.1229 331.295C54.5952 331.017 54.0676 330.728 53.5455 330.433C45.1457 325.729 37.5148 319.769 30.9176 312.758C30.7247 312.571 30.5431 312.372 30.3502 312.191C29.431 311.193 28.5289 310.183 27.6551 309.15L26.6905 308.016C25.6578 306.751 24.6592 305.452 23.6889 304.136C23.5471 303.943 23.4109 303.75 23.2634 303.569C19.3174 298.099 16.041 292.177 13.5041 285.928C13.4247 285.741 13.3566 285.536 13.2828 285.361C12.5036 283.356 11.8133 281.333 11.2118 279.291C10.9508 278.435 10.7011 277.589 10.4855 276.699C10.4061 276.438 10.338 276.183 10.2756 275.927C7.05276 263.352 6.67261 250.288 6.67261 237.315C6.67261 235.801 6.67261 234.281 6.67261 232.778C6.67261 227.531 6.73502 222.25 6.82581 216.974C6.82581 215.607 6.88254 214.246 6.91091 212.873C6.99035 209.39 7.10383 205.907 7.25136 202.425C7.2854 201.455 7.33079 200.49 7.38186 199.526C7.38186 198.97 7.41023 198.414 7.46697 197.858C7.60314 195.839 7.71662 193.837 7.8528 191.84Z" fill="#E27B4A"/>
<path opacity="0.1" d="M65.4383 104.474H33.8511C38.9857 96.4394 44.596 88.7188 50.6518 81.3533C55.3442 75.5902 60.2976 69.9745 65.4383 64.563V104.474Z" fill="#E27B4A"/>
<path opacity="0.1" d="M65.4383 106.902V189.412H8.03436C8.03436 189.174 8.07408 188.93 8.0911 188.692C8.14217 188.039 8.19323 187.387 8.24997 186.74C8.31239 185.98 8.38048 185.215 8.45424 184.472C8.528 183.728 8.60744 182.821 8.69255 181.998C8.77766 181.176 8.85709 180.342 8.95355 179.52C9.05001 178.697 9.13512 177.875 9.23725 177.058C9.33938 176.241 9.43017 175.413 9.53797 174.596C9.62308 173.915 9.71386 173.24 9.80465 172.56C9.93515 171.601 10.0713 170.637 10.2189 169.684C10.2189 169.542 10.2586 169.394 10.2813 169.258C11.3169 162.282 12.728 155.367 14.5084 148.543C16.3721 141.384 18.7519 134.37 21.6293 127.555C24.6874 120.426 28.2679 113.532 32.3418 106.93L65.4383 106.902Z" fill="#E27B4A"/>
<path opacity="0.1" d="M79.1864 191.834V270.306H202.182V191.834H79.1864ZM79.1864 272.728V340.116C79.89 340.263 80.5879 340.405 81.2801 340.524C82.222 340.706 83.1582 340.87 84.1171 341.012C84.2987 341.041 84.4859 341.069 84.6845 341.086C85.059 341.148 85.4448 341.199 85.8193 341.25C86.7669 341.381 87.7088 341.489 88.6563 341.574C89.1046 341.619 89.5585 341.659 90.0124 341.693L91.1075 341.778C91.7032 341.823 92.2933 341.857 92.8778 341.874C93.2409 341.874 93.604 341.908 93.9785 341.92C94.2622 341.92 94.5459 341.92 94.841 341.92C95.136 341.92 95.5559 341.92 95.9134 341.92C96.4013 341.92 96.8893 341.92 97.3716 341.92H98.0241C98.5121 341.92 99 341.92 99.4823 341.874H99.5164C99.8511 341.874 100.192 341.874 100.532 341.829C100.626 341.835 100.721 341.835 100.816 341.829C101.099 341.829 101.383 341.829 101.655 341.789H101.854L103.755 341.642C104.379 341.585 105.009 341.511 105.644 341.443L106.938 341.29C112.201 340.553 117.406 339.446 122.513 337.978C133.986 334.778 145.209 330.303 156.676 327.024C171.502 322.798 187.883 320.722 202.21 325.89V272.728H79.1864ZM202.182 104.474V0.00567545C188.716 -0.140175 175.286 1.43437 162.22 4.69106C131.075 12.5133 103.131 29.4794 79.1864 51.1479V104.468H85.3597V106.89H79.1864V189.412H202.182V106.896H110.705V104.474H202.182ZM360.163 69.1861C352.458 68.9138 344.798 66.4746 337.87 62.7082C324.621 55.5043 314.039 44.3807 302.214 34.9929C277.646 15.4402 247.177 3.64167 215.919 0.714723V104.474H391.5L391.937 104.014L360.163 69.1861ZM376.158 66.3499L393.118 84.9553V61.4716C387.438 62.175 382.462 63.8483 376.181 66.3272L376.158 66.3499ZM393.118 356.85V272.728H356.98C356.883 272.371 356.787 272.008 356.673 271.645C356.781 272.008 356.872 272.371 356.974 272.728H215.941V333.564C217.28 334.557 218.602 335.601 219.913 336.662C221.326 337.796 222.722 338.993 224.123 340.167L225.536 341.336C226.211 341.903 226.892 342.47 227.579 343.003C228.94 344.108 230.315 345.197 231.704 346.271C232.39 346.838 233.094 347.348 233.792 347.882C244.871 356.35 256.559 363.993 268.76 370.747C271.495 372.26 274.255 373.736 277.039 375.177C278.894 376.124 280.761 377.066 282.633 377.979C285.448 379.352 288.285 380.675 291.144 381.95C317.509 393.782 345.389 401.9 373.985 406.074C380.336 407.012 386.712 407.75 393.112 408.287V356.844H393.679L393.118 356.85ZM215.941 106.896V189.412H393.14V106.896H215.941ZM215.941 191.834V270.306H393.14V191.834H215.941ZM406.894 61.3695V87.5646L428.54 63.82C421.368 62.6628 414.153 61.8365 406.894 61.3411V61.3695ZM406.894 191.863V270.306H579.242V191.834L406.894 191.863ZM578.612 363.078L579.219 272.728H406.894V409.189C417.995 409.655 429.114 409.522 440.2 408.792H440.393C445.689 408.459 450.96 407.975 456.207 407.339H456.326C484.316 404.083 511.685 396.782 537.578 385.665M612.475 204.756C611.828 203.23 611.152 201.716 610.466 200.218C609.184 197.382 607.828 194.625 606.432 191.868H592.984V270.306H626.983C626.966 248.093 621.343 225.403 612.492 204.728L612.475 204.756ZM592.984 272.756V350.468C602.562 341.29 610.653 330.791 616.48 318.788C623.488 304.335 626.694 288.685 626.955 272.745L592.984 272.756ZM592.984 168.997V189.418H605.172C601.485 182.388 597.422 175.562 593.001 168.969L592.984 168.997ZM476.1 76.7644C475.203 76.424 474.307 76.078 473.405 75.7433C463.89 72.2306 454.167 69.3094 444.291 66.9965L411.167 103.339L410.531 104.014L410.957 104.48H528.851C512.432 93.1805 494.73 83.8676 476.117 76.736L476.1 76.7644ZM532.307 106.924H409.311L406.894 109.137V189.412H428.081H428.115H579.265V150.528C565.592 133.996 549.81 119.327 532.324 106.896L532.307 106.924Z" fill="#E27B4A"/>
<path opacity="0.1" d="M65.4383 148.52V189.412H8.03436C8.03436 189.174 8.07408 188.93 8.0911 188.692C8.14217 188.039 8.19323 187.387 8.24997 186.74C8.31239 185.98 8.38048 185.215 8.45424 184.472C8.528 183.728 8.60744 182.821 8.69255 181.998C8.77766 181.176 8.85709 180.342 8.95355 179.52C9.05001 178.697 9.13512 177.875 9.23725 177.058C9.33938 176.241 9.43017 175.413 9.53797 174.596C9.62308 173.915 9.71386 173.24 9.80465 172.56C9.93515 171.601 10.0713 170.637 10.2189 169.684C10.2189 169.542 10.2586 169.394 10.2813 169.258C11.3169 162.282 12.728 155.367 14.5084 148.543L65.4383 148.52Z" fill="#E27B4A"/>
<path opacity="0.1" d="M7.8528 191.84H65.4383V270.306H12.0686C11.9267 271.111 11.7906 271.923 11.643 272.734H65.4383V336.015C65.3418 335.986 65.2567 335.952 65.1659 335.918C63.6453 335.317 62.136 334.682 60.6267 334.001L59.6621 333.564C58.1491 332.85 56.636 332.093 55.1229 331.295C54.5952 331.017 54.0676 330.728 53.5455 330.433C45.1457 325.729 37.5148 319.769 30.9176 312.758C30.7247 312.571 30.5431 312.372 30.3502 312.191C29.431 311.193 28.5289 310.183 27.6551 309.15L26.6905 308.016C25.6578 306.751 24.6592 305.452 23.6889 304.136C23.5471 303.943 23.4109 303.75 23.2634 303.569C19.3174 298.099 16.041 292.177 13.5041 285.928C13.4247 285.741 13.3566 285.536 13.2828 285.361C12.5036 283.356 11.8133 281.333 11.2118 279.291C10.9508 278.435 10.7011 277.589 10.4855 276.699C10.4061 276.438 10.338 276.183 10.2756 275.927C7.05276 263.352 6.67261 250.288 6.67261 237.315C6.67261 235.801 6.67261 234.281 6.67261 232.778C6.67261 227.531 6.73502 222.25 6.82581 216.974C6.82581 215.607 6.88254 214.246 6.91091 212.873C6.99035 209.39 7.10383 205.907 7.25136 202.425C7.2854 201.455 7.33079 200.49 7.38186 199.526C7.38186 198.97 7.41023 198.414 7.46697 197.858C7.60314 195.839 7.71662 193.837 7.8528 191.84Z" fill="#E27B4A"/>
<path opacity="0.1" d="M122.485 118.712V189.412H79.1864V118.712H85.3597V94.7742H110.7V118.712H122.485Z" fill="#E27B4A"/>
<path opacity="0.1" d="M122.485 191.834H79.1921V270.3H122.485V191.834Z" fill="#E27B4A"/>
<path opacity="0.1" d="M79.1864 272.734H122.485V337.966C117.377 339.433 112.173 340.538 106.91 341.273L105.616 341.432C104.98 341.506 104.351 341.568 103.726 341.631C103.102 341.693 102.455 341.738 101.826 341.778H101.627C101.355 341.778 101.06 341.812 100.793 341.818H100.504C100.163 341.818 99.8228 341.852 99.4823 341.863C99 341.891 98.5177 341.897 98.0241 341.903C97.8141 341.903 97.6156 341.903 97.4056 341.903C96.9177 341.903 96.4354 341.903 95.9474 341.903H94.875C94.5856 341.903 94.3076 341.903 94.0069 341.903L92.9118 341.863C92.3444 341.863 91.7316 341.801 91.1415 341.761L90.0521 341.682L88.696 341.557C87.7428 341.472 86.7952 341.364 85.859 341.233L84.7242 341.075L84.1568 340.995C83.2093 340.848 82.2731 340.689 81.3198 340.507C80.6219 340.388 79.9297 340.241 79.2261 340.099L79.1864 272.734Z" fill="#E27B4A"/>
<path opacity="0.1" d="M393.14 110.362H357.439V189.406H393.14V110.362Z" fill="#E27B4A"/>
<path opacity="0.1" d="M393.146 191.834V270.306H215.941V236.459H310.328V256.426H357.439V191.834H393.146Z" fill="#E27B4A"/>
<path opacity="0.1" d="M393.708 356.867H393.14V408.343C386.748 407.803 380.374 407.067 374.019 406.137C345.408 401.949 317.518 393.813 291.144 381.961C283.53 378.535 276.07 374.795 268.766 370.741C256.565 363.984 244.875 356.341 233.792 347.876C231.008 345.743 228.259 343.561 225.547 341.33C223.669 339.781 221.802 338.193 219.913 336.65C218.602 335.589 217.28 334.546 215.941 333.547V272.734H356.968C356.872 272.371 356.776 272.008 356.673 271.65C356.781 272.008 356.883 272.371 356.98 272.734H393.14V356.833C393.333 356.838 393.52 356.855 393.708 356.867Z" fill="#E27B4A"/>
<path opacity="0.1" d="M486.251 104.474H462.987V97.2473H473.416V75.7206C474.32 76.0496 475.22 76.3881 476.117 76.736V97.2473H486.251V104.474Z" fill="#E27B4A"/>
<path opacity="0.1" d="M542.298 189.412H428.092C428.092 189.412 428.092 189.412 428.132 189.441L428.081 189.412H406.894V110.368H412.897V168.793H440.331V134.192H462.993V106.902H486.256V134.214H508.918V168.816H542.298V189.412Z" fill="#E27B4A"/>
<path opacity="0.1" d="M406.894 191.834V270.306H542.298V191.834H406.894ZM579.055 362.675L579.242 300.562H542.298V272.768H406.894V409.189C417.995 409.655 429.114 409.522 440.2 408.792H440.393C445.689 408.459 450.96 407.975 456.207 407.339H456.326C484.316 404.083 511.685 396.782 537.578 385.665" fill="#E27B4A"/>
<path opacity="0.1" d="M595.39 272.734H626.977C626.699 288.668 623.499 304.318 616.497 318.771C610.67 330.779 602.573 341.279 593.007 350.451V300.534H595.39V272.734Z" fill="#E27B4A"/>
<path opacity="0.1" d="M626.994 270.306H595.39V204.728H612.492C621.343 225.403 626.966 248.093 626.994 270.306Z" fill="#E27B4A"/>
<path opacity="0.1" d="M393.146 132.337H374.019V157.119H393.146V132.337Z" fill="#E27B4A"/>
<path opacity="0.1" d="M393.146 183.706H374.019V189.412H393.146V183.706Z" fill="#E27B4A"/>
<path opacity="0.1" d="M393.146 191.834H374.019V208.483H393.146V191.834Z" fill="#E27B4A"/>
<path opacity="0.1" d="M393.146 235.075H374.019V259.857H393.146V235.075Z" fill="#E27B4A"/>
<path opacity="0.1" d="M393.146 286.444H374.019V311.227H393.146V286.444Z" fill="#E27B4A"/>
<path opacity="0.1" d="M393.14 356.833C393.333 356.833 393.52 356.832 393.708 356.867H393.14V362.624H374.019V337.813H393.14V356.833Z" fill="#E27B4A"/>
<path opacity="0.1" d="M393.14 389.171V408.315C386.748 407.774 380.374 407.039 374.019 406.109V389.171H393.14Z" fill="#E27B4A"/>
<path opacity="0.1" d="M297.913 268.485H215.941V270.306H297.913V268.485Z" fill="#E27B4A"/>
<path opacity="0.1" d="M297.913 272.728H215.941V279.705H297.913V272.728Z" fill="#E27B4A"/>
<path opacity="0.1" d="M297.913 302.576H215.941V313.796H297.913V302.576Z" fill="#E27B4A"/>
<path opacity="0.1" d="M297.908 336.667V347.887H233.792C231.008 345.762 228.258 343.58 225.542 341.341C223.664 339.793 221.802 338.204 219.907 336.667H297.908Z" fill="#E27B4A"/>
<path opacity="0.1" d="M297.908 370.753V381.961H291.139C283.532 378.531 276.074 374.789 268.766 370.736L297.908 370.753Z" fill="#E27B4A"/>
<path opacity="0.1" d="M456.343 199.441H440.206V215.573H456.343V199.441Z" fill="#E27B4A"/>
<path opacity="0.1" d="M106.949 124.276H90.8124V140.408H106.949V124.276Z" fill="#E27B4A"/>
<path opacity="0.1" d="M106.949 161.748H90.8124V177.88H106.949V161.748Z" fill="#E27B4A"/>
<path opacity="0.1" d="M106.949 199.22H90.8124V215.352H106.949V199.22Z" fill="#E27B4A"/>
<path opacity="0.1" d="M106.949 236.686H90.8124V252.818H106.949V236.686Z" fill="#E27B4A"/>
<path opacity="0.1" d="M106.949 274.158H90.8124V290.29H106.949V274.158Z" fill="#E27B4A"/>
<path opacity="0.1" d="M106.949 311.629H90.8124V327.762H106.949V311.629Z" fill="#E27B4A"/>
<path opacity="0.1" d="M517.946 199.441H501.809V215.573H517.946V199.441Z" fill="#E27B4A"/>
<path opacity="0.1" d="M456.343 239.233H440.206V255.365H456.343V239.233Z" fill="#E27B4A"/>
<path opacity="0.1" d="M517.946 239.233H501.809V255.365H517.946V239.233Z" fill="#E27B4A"/>
<path opacity="0.1" d="M456.343 279.019H440.206V295.151H456.343V279.019Z" fill="#E27B4A"/>
<path opacity="0.1" d="M517.946 279.019H501.809V295.151H517.946V279.019Z" fill="#E27B4A"/>
<path opacity="0.1" d="M456.343 318.811H440.206V334.943H456.343V318.811Z" fill="#E27B4A"/>
<path opacity="0.1" d="M517.946 318.811H501.809V334.943H517.946V318.811Z" fill="#E27B4A"/>
<path opacity="0.1" d="M456.343 358.602H440.206V374.735H456.343V358.602Z" fill="#E27B4A"/>
<path opacity="0.1" d="M517.946 358.602H501.809V374.735H517.946V358.602Z" fill="#E27B4A"/>
<path opacity="0.1" d="M440.206 408.792V398.388H456.337V407.311L440.206 408.792Z" fill="#E27B4A"/>
<path opacity="0.1" d="M10.2132 169.247V178.476H65.4383V169.247H10.2132ZM15.717 177.897H11.2118V169.814H15.751L15.717 177.897ZM21.2151 177.897H16.6759V169.814H21.2151V177.897ZM26.7018 177.897H22.1626V169.814H26.7018V177.897ZM32.2 177.897H27.6664V169.814H32.2056L32.2 177.897ZM37.6924 177.897H33.1532V169.814H37.6924V177.897ZM43.1905 177.897H38.6513V169.814H43.1905V177.897ZM48.6886 177.897H44.1494V169.814H48.6886V177.897ZM54.181 177.897H49.6418V169.814H54.181V177.897ZM59.6735 177.897H55.1343V169.814H59.6735V177.897ZM65.1659 177.897H60.6267V169.814H65.1659V177.897Z" fill="#E27B4A"/>
<path opacity="0.1" d="M10.2132 196.1V205.329H65.4383V196.1H10.2132ZM15.717 204.745H11.2118V196.684H15.751L15.717 204.745ZM21.2151 204.745H16.6759V196.684H21.2151V204.745ZM26.7018 204.745H22.1626V196.684H26.7018V204.745ZM32.2 204.745H27.6664V196.684H32.2056L32.2 204.745ZM37.6924 204.745H33.1532V196.684H37.6924V204.745ZM43.1905 204.745H38.6513V196.684H43.1905V204.745ZM48.6886 204.745H44.1494V196.684H48.6886V204.745ZM54.181 204.745H49.6418V196.684H54.181V204.745ZM59.6735 204.745H55.1343V196.684H59.6735V204.745ZM65.1659 204.745H60.6267V196.684H65.1659V204.745Z" fill="#E27B4A"/>
<path opacity="0.1" d="M10.2132 222.964V232.21H65.4383V222.964H10.2132ZM15.717 231.609H11.2118V223.543H15.751L15.717 231.609ZM21.2151 231.609H16.6759V223.543H21.2151V231.609ZM26.7018 231.609H22.1626V223.543H26.7018V231.609ZM32.2 231.609H27.6664V223.543H32.2056L32.2 231.609ZM37.6924 231.609H33.1532V223.543H37.6924V231.609ZM43.1905 231.609H38.6513V223.543H43.1905V231.609ZM48.6886 231.609H44.1494V223.543H48.6886V231.609ZM54.181 231.609H49.6418V223.543H54.181V231.609ZM59.6735 231.609H55.1343V223.543H59.6735V231.609ZM65.1659 231.609H60.6267V223.543H65.1659V231.609Z" fill="#E27B4A"/>
<path opacity="0.1" d="M10.2132 249.829V259.046H65.4383V249.829H10.2132ZM15.717 258.473H11.2118V250.402H15.751L15.717 258.473ZM21.2151 258.473H16.6759V250.402H21.2151V258.473ZM26.7018 258.473H22.1626V250.402H26.7018V258.473ZM32.2 258.473H27.6664V250.402H32.2056L32.2 258.473ZM37.6924 258.473H33.1532V250.402H37.6924V258.473ZM43.1905 258.473H38.6513V250.402H43.1905V258.473ZM48.6886 258.473H44.1494V250.402H48.6886V258.473ZM54.181 258.473H49.6418V250.402H54.181V258.473ZM59.6735 258.473H55.1343V250.402H59.6735V258.473ZM65.1659 258.473H60.6267V250.402H65.1659V258.473Z" fill="#E27B4A"/>
<path opacity="0.1" d="M10.4515 276.687C10.6728 277.555 10.9225 278.423 11.1835 279.28V277.266H15.7227V285.332H13.2942C13.368 285.519 13.4417 285.724 13.5155 285.899H65.4383V276.687H10.4515ZM21.2321 285.332H16.6929V277.266H21.2321V285.332ZM26.7189 285.332H22.1797V277.266H26.7189V285.332ZM32.217 285.332H27.6665V277.266H32.2057L32.217 285.332ZM37.7094 285.332H33.1702V277.266H37.7094V285.332ZM43.2076 285.332H38.6683V277.266H43.2076V285.332ZM48.7057 285.332H44.1665V277.266H48.7057V285.332ZM54.1981 285.332H49.6589V277.266H54.1981V285.332ZM59.6905 285.332H55.1513V277.266H59.6905V285.332ZM65.183 285.332H60.6438V277.266H65.183V285.332Z" fill="#E27B4A"/>
<path opacity="0.1" d="M23.2748 303.552C23.4166 303.733 23.5528 303.938 23.7003 304.119H26.7019V307.993C27.0253 308.379 27.343 308.765 27.6721 309.128V304.096H32.2113V312.191H30.373C30.5545 312.378 30.7304 312.577 30.9404 312.758H65.4553V303.552H23.2748ZM37.6924 312.191H33.1532V304.13H37.6924V312.191ZM43.1905 312.191H38.6513V304.13H43.1905V312.191ZM48.6886 312.191H44.1494V304.13H48.6886V312.191ZM54.1811 312.191H49.6419V304.13H54.1811V312.191ZM59.6735 312.191H55.1343V304.13H59.6735V312.191ZM65.1659 312.191H60.6267V304.13H65.1659V312.191Z" fill="#E27B4A"/>
<path opacity="0.1" d="M53.5682 330.411C54.0846 330.705 54.6123 330.978 55.1456 331.273V330.989H59.6848V333.542L60.6494 333.99V330.989H65.1886V335.896C65.2756 335.939 65.3669 335.973 65.461 335.998V330.411H53.5682Z" fill="#E27B4A"/>
<path opacity="0.1" d="M356.673 271.645C356.781 272.008 356.872 272.371 356.974 272.728C356.883 272.371 356.787 272.008 356.673 271.645ZM85.3824 104.457V106.879H110.728V104.457H85.3824ZM356.673 271.645C356.781 272.008 356.872 272.371 356.974 272.728C356.883 272.371 356.787 272.008 356.673 271.645ZM356.673 271.645C356.781 272.008 356.872 272.371 356.974 272.728C356.883 272.371 356.787 272.008 356.673 271.645Z" fill="#E27B4A"/>
<path d="M261.912 215.363C261.912 215.363 259.676 215.051 259.676 211.795C259.676 208.539 258.076 202.459 258.076 202.459C258.076 202.43 256.692 191.868 254.78 190.189C252.868 188.51 250.411 178.652 250.411 178.652C250.411 178.652 249.991 173.303 249.134 172.151C248.277 171 247.12 168.18 245.412 164.159C243.704 160.137 236.583 157.352 236.583 157.352C236.583 157.352 223.709 149.887 220.06 147.454C219.729 147.254 219.419 147.02 219.136 146.756C218.5 145.922 215.731 145.905 215.731 145.905C215.442 144.079 215.164 141.98 215.073 140.079C215.073 139.875 215.073 139.671 215.045 139.467C219.113 137.063 222.177 133.272 223.675 128.791C223.743 128.576 223.8 128.349 223.862 128.133C224.106 128.053 224.33 127.923 224.521 127.751C224.711 127.579 224.864 127.369 224.969 127.135C225.298 126.403 225.303 125.547 225.712 124.866C226.188 124.061 227.096 123.63 227.811 123.023C229.616 121.491 230.081 118.91 229.996 116.562C229.939 114.662 229.633 112.744 229.752 110.855L229.786 110.379C229.82 110.095 229.859 109.812 229.911 109.539C230.189 108.133 230.796 106.805 231.136 105.41C231.477 104.014 231.511 102.443 230.716 101.241C229.553 99.4766 227.13 99.1249 225.003 98.9434C222.591 98.7391 220.435 99.0057 218.892 97.0034C218.169 95.9569 217.357 94.9756 216.463 94.0708C216.145 93.7758 213.059 91.8926 213.059 91.7678C210.046 90.3729 206.631 90.1111 203.441 91.0304C201.841 91.4955 200.332 92.2556 198.709 92.6357C195.208 93.4638 191.18 92.5676 188.207 94.5699C186.55 95.7044 185.557 97.5082 184.626 99.2667C183.87 100.715 183.102 102.161 182.323 103.606C181.069 105.983 179.792 108.399 179.264 111.031C179.153 111.604 179.085 112.184 179.06 112.767V112.795C179.06 113.005 179.06 113.215 179.06 113.425V113.692C179.06 113.89 179.06 114.083 179.094 114.259C179.128 114.435 179.123 114.491 179.14 114.61C179.157 114.73 179.185 114.996 179.219 115.178C179.253 115.359 179.321 115.677 179.389 115.926C179.418 116.034 179.457 116.136 179.491 116.238C179.548 116.431 179.616 116.618 179.69 116.806C179.73 116.902 179.769 117.004 179.815 117.101C179.9 117.299 180.002 117.492 180.104 117.668C180.15 117.747 180.184 117.821 180.229 117.895C180.387 118.159 180.562 118.412 180.751 118.655C181.965 120.169 183.753 121.134 185.075 122.552C185.075 122.609 185.075 122.665 185.075 122.716C185.075 122.875 185.075 123.028 185.075 123.187C185.145 126.35 185.987 129.447 187.527 132.211C189.068 134.974 191.261 137.319 193.915 139.041C193.915 139.257 193.943 139.478 193.954 139.694C194.065 141.378 194.044 143.067 193.892 144.748C193.661 144.476 193.372 144.259 193.046 144.114C192.72 143.968 192.365 143.898 192.008 143.908C191.764 143.896 191.52 143.917 191.282 143.971L191.231 143.931V143.982C189.983 144.288 188.445 145.587 186.975 149.28C186.975 149.28 182.504 154.317 179.1 154.107C175.695 153.897 167.077 159.349 167.077 159.349C167.077 159.349 158.668 164.805 156.863 170.364C155.855 173.517 154.646 176.601 153.243 179.599L142.849 201.012L140.931 218.001C140.931 218.001 141.992 225.557 141.782 226.708C141.572 227.86 146.145 238.246 146.145 238.246C146.145 238.246 161.255 264.787 167.428 266.148L167.871 265.836C168.135 265.974 168.415 266.079 168.705 266.148L169.976 265.252C170.052 266.251 170.02 267.255 169.88 268.247C169.029 270.868 170.197 287.97 171.684 291.322C173.171 294.675 172.643 338.63 172.643 338.63L172.433 342.51C172.433 342.51 172.433 342.635 172.484 342.85L172.433 343.769L172.586 343.848C172.745 345.079 172.693 346.328 172.433 347.541C171.9 349.243 171.684 354.053 171.684 354.053C171.684 354.053 167.434 381.212 169.448 386.669C171.463 392.126 173.176 398.105 173.176 398.105C173.176 398.105 175.304 404.912 173.278 406.074C171.253 407.237 165.494 409.189 166.679 412.025C167.758 414.645 171.848 421.668 172.456 422.695L172.405 423.233L171.57 432.27C171.706 433.463 172.029 434.627 172.529 435.718C173.443 437.687 175.219 439.729 178.595 439.508C179.162 439.468 179.82 439.4 180.456 439.315C186.635 438.486 194.244 435.73 194.244 435.73C193.849 435.479 193.487 435.18 193.166 434.839C192.862 434.545 192.621 434.192 192.458 433.802C192.296 433.412 192.214 432.993 192.218 432.57C192.309 430.925 189.228 423.086 188.462 421.157C188.343 420.879 188.28 420.721 188.28 420.721C188.28 420.721 195.305 413.381 194.136 406.874C194.136 406.874 186.363 402.336 188.922 399.846C191.481 397.356 196.054 390.203 196.054 390.203C196.054 390.203 196.264 363.458 196.054 359.465C195.835 356.693 195.966 353.905 196.445 351.166C196.53 350.752 196.633 350.349 196.74 349.952C200.279 350.48 203.852 350.751 207.43 350.763C208.735 350.763 210.063 350.763 211.402 350.684C211.402 351.062 211.419 351.47 211.453 351.909C211.748 358.534 212.298 370.151 212.747 374.468C213.382 380.657 216.894 397.333 216.894 397.333C216.894 397.333 210.193 401.633 218.063 412.229C218.063 412.229 218.063 416.069 217.541 416.625C216.984 418.442 216.535 420.291 216.196 422.161C215.867 424.158 215.731 426.177 216.265 427.227C217.541 429.734 225.201 429.53 225.201 429.53L225.388 429.496C226.834 429.346 228.296 429.485 229.688 429.905C231.08 430.325 232.374 431.017 233.497 431.941C236.407 434.278 247.455 433.251 253.435 432.508C255.778 432.213 257.344 431.941 257.344 431.941C257.42 431.675 257.447 431.399 257.424 431.124C257.361 429.655 256.21 426.433 248.402 423.557C248.402 423.557 241.06 418.622 241.162 414.322H241.009H240.158C240.776 414.288 241.173 414.322 241.173 414.322C241.173 414.322 238.297 403.828 239.471 402.977C240.646 402.126 237.128 390.498 237.128 390.498C237.128 390.498 235.114 370.985 235.006 369.618C235.01 368.445 235.188 367.279 235.534 366.158L235.006 355.46C235.006 355.46 234.904 351.903 235.006 350.746C234.989 349.742 234.907 348.739 234.762 347.745C234.711 347.348 234.66 346.934 234.603 346.526C237.355 345.828 239.142 345.181 239.142 345.181L238.824 307.942C241.162 303.404 241.593 293.449 241.582 286.387C241.582 281.849 241.378 278.491 241.378 278.491L244.572 273.278C244.572 273.278 245.31 267.039 244.141 265.672C243.625 265.053 243.857 264.412 244.283 263.885C244.504 263.71 244.737 263.55 244.981 263.408C244.981 263.408 244.947 263.357 244.907 263.284C245.13 263.097 245.367 262.929 245.616 262.779C245.616 262.779 244.481 261.02 245.497 260.277C246.45 260.924 247.301 261.412 247.948 261.809C247.903 262.223 247.857 262.461 247.857 262.461L248.13 261.894C248.754 262.246 249.134 262.461 249.134 262.461C249.134 262.461 254.139 252.495 254.031 251.026C253.923 249.556 257.435 243.368 257.435 243.368C257.435 243.368 257.861 240.118 259.779 238.756C261.696 237.395 261.265 227.531 261.265 227.531C261.265 227.531 261.798 222.391 263.075 220.293C264.352 218.194 261.912 215.363 261.912 215.363ZM166.157 210.99L166.254 213.367C165.687 212.453 165.278 211.795 165.278 211.795L166.157 210.99Z" fill="url(#paint0_linear_20_412)"/>
<path d="M249.406 258.156L248.181 263.374C248.181 263.374 238.365 258.366 236.595 252.001C234.824 245.637 239.556 243.22 239.556 243.22L248.703 247.095L249.406 258.156Z" fill="white"/>
<path opacity="0.1" d="M249.406 258.156L248.181 263.374C248.181 263.374 238.365 258.366 236.595 252.001C234.824 245.637 239.556 243.22 239.556 243.22L248.703 247.095L249.406 258.156Z" fill="black"/>
<path d="M194.318 435.764C194.318 435.764 185.239 439.099 178.998 439.519C175.684 439.74 173.942 437.709 173.046 435.752C172.556 434.664 172.24 433.506 172.109 432.321L172.921 423.33L173.352 418.542L186.612 415.099L188.49 420.84L188.666 421.276C189.421 423.194 192.445 430.993 192.354 432.621C192.351 433.038 192.431 433.451 192.591 433.836C192.751 434.221 192.987 434.57 193.285 434.862C193.589 435.205 193.936 435.508 194.318 435.764Z" fill="white"/>
<path d="M256.329 431.192C256.351 431.465 256.325 431.74 256.249 432.003C256.249 432.003 236.833 435.242 232.861 432.003C231.741 431.057 230.436 430.355 229.029 429.943C227.622 429.531 226.144 429.417 224.69 429.609C224.69 429.609 217.178 429.813 215.924 427.34C215.402 426.302 215.538 424.288 215.862 422.303C216.192 420.443 216.631 418.604 217.178 416.795L217.479 416.557L219.266 415.122L240.192 414.504H240.351C240.249 418.781 247.455 423.687 247.455 423.687C255.109 426.523 256.238 429.728 256.329 431.192Z" fill="white"/>
<path opacity="0.1" d="M256.329 431.192C256.349 431.465 256.32 431.74 256.244 432.003C256.244 432.003 236.833 435.242 232.861 432.003C231.742 431.057 230.438 430.356 229.032 429.944C227.626 429.532 226.149 429.418 224.696 429.609C224.696 429.609 217.178 429.813 215.93 427.34C215.408 426.296 215.538 424.288 215.862 422.303C218.756 422.592 223.323 423.313 225.116 425.032C227.828 427.646 232.424 430.256 235.244 430.46C237.451 430.602 250.655 431.022 256.329 431.192Z" fill="black"/>
<path opacity="0.1" d="M194.318 435.764C194.318 435.764 185.239 439.099 178.998 439.519C175.684 439.74 173.942 437.709 173.051 435.747C175.361 436.524 178.567 437.341 180.252 436.592C182.249 435.707 189.33 435.134 193.302 434.89C193.604 435.221 193.945 435.514 194.318 435.764Z" fill="black"/>
<path d="M207.788 166.978C200.298 164.068 190.664 154.453 193.069 149.961C193.604 148.827 193.921 147.603 194.006 146.353C194.16 144.656 194.183 142.949 194.074 141.248C193.905 138.462 193.57 135.689 193.069 132.944C193.069 132.944 216.452 133.471 215.09 136.914C214.693 137.924 214.631 139.677 214.738 141.639C214.846 143.602 215.13 145.82 215.425 147.697C215.833 150.273 216.242 152.235 216.242 152.235C216.242 152.235 214.812 154.238 213.972 154.346C213.133 154.453 218.534 171.124 207.788 166.978Z" fill="#CF6F80"/>
<path opacity="0.1" d="M188.649 421.276L188.473 421.469C181.483 413.018 173.029 423.551 173.029 423.551L172.904 423.33L173.335 418.542L186.595 415.099L188.473 420.84L188.649 421.276Z" fill="black"/>
<path opacity="0.1" d="M240.356 415.099C240.356 415.099 235.25 414.991 232.526 417.397C229.803 419.802 216.639 417.918 217.207 417.397C217.375 417.138 217.476 416.842 217.502 416.534L219.289 415.099L240.215 414.481C240.294 414.861 240.356 415.099 240.356 415.099Z" fill="black"/>
<path d="M197.348 348.727C196.967 349.667 196.678 350.641 196.485 351.637C196.012 354.363 195.88 357.137 196.094 359.896C196.303 363.866 196.094 390.475 196.094 390.475C196.094 390.475 191.605 397.572 189.103 400.073C186.601 402.575 194.21 407.067 194.21 407.067C195.345 413.534 188.468 420.84 188.468 420.84C181.477 412.388 173.023 422.927 173.023 422.927C173.023 422.927 168.427 414.986 167.281 412.15C166.135 409.313 171.769 407.351 173.749 406.199C175.73 405.048 173.653 398.258 173.653 398.258C173.653 398.258 171.979 392.308 169.993 386.879C168.007 381.451 172.183 354.427 172.183 354.427C172.183 354.427 172.399 349.629 172.915 347.955C173.176 346.748 173.228 345.505 173.068 344.28C173.034 343.865 172.995 343.519 172.966 343.287C172.938 343.054 172.915 342.946 172.915 342.946L172.995 342.81L175.832 337.524C175.832 337.524 198.709 345.397 197.348 348.727Z" fill="#4BB2E2"/>
<path d="M240.356 414.475C240.356 414.475 235.25 414.367 232.526 416.744C229.803 419.121 216.639 417.266 217.207 416.744C217.774 416.222 217.729 412.359 217.729 412.359C210.006 401.82 216.594 397.543 216.594 397.543C216.594 397.543 213.144 380.951 212.52 374.797C212.083 370.497 211.544 358.943 211.255 352.346C211.13 349.509 211.056 347.558 211.056 347.558L217.365 346.288L218.177 346.123L233.394 343.071C233.394 343.071 233.814 345.907 234.098 348.227C234.239 349.218 234.319 350.216 234.336 351.217C234.234 352.351 234.336 355.902 234.336 355.902L234.853 366.549C234.515 367.666 234.341 368.826 234.336 369.992C234.438 371.348 236.419 390.759 236.419 390.759C236.419 390.759 239.863 402.342 238.688 403.176C237.514 404.01 240.356 414.475 240.356 414.475Z" fill="#4BB2E2"/>
<path opacity="0.1" d="M215.09 136.914C214.693 137.924 214.63 139.677 214.738 141.639C211.606 143.525 208.006 144.489 204.35 144.421C200.695 144.352 197.133 143.255 194.074 141.254C193.905 138.466 193.57 135.691 193.069 132.944C193.069 132.944 216.452 133.46 215.09 136.914Z" fill="black"/>
<path d="M224.129 124.378C224.133 126.422 223.812 128.454 223.176 130.397C221.754 134.75 218.839 138.46 214.946 140.872C211.053 143.284 206.432 144.242 201.9 143.578C197.368 142.913 193.217 140.668 190.181 137.24C187.145 133.812 185.418 129.421 185.307 124.843C185.307 124.685 185.307 124.537 185.307 124.378C185.263 121.802 185.733 119.242 186.689 116.849C187.644 114.456 189.067 112.276 190.875 110.439C192.682 108.601 194.837 107.141 197.214 106.145C199.591 105.149 202.143 104.636 204.721 104.636C207.299 104.636 209.851 105.149 212.228 106.145C214.605 107.141 216.76 108.601 218.567 110.439C220.374 112.276 221.797 114.456 222.753 116.849C223.709 119.242 224.179 121.802 224.134 124.378H224.129Z" fill="#CF6F80"/>
<path opacity="0.1" d="M207.788 166.978C200.298 164.068 190.664 154.453 193.069 149.961C193.604 148.827 193.921 147.603 194.006 146.353L204.258 154.777L210.602 159.978L215.425 147.703C215.833 150.278 216.242 152.241 216.242 152.241C216.242 152.241 214.812 154.243 213.972 154.351C213.133 154.459 218.534 171.124 207.788 166.978Z" fill="black"/>
<path d="M234.302 204.206L225.74 348.001L214.574 348.732L185.659 265.354L190.403 166.365L191.401 145.451L204.258 156.008L210.608 161.209L215.572 148.577L224.804 156.62L234.302 204.206Z" fill="#4BB2E2"/>
<path opacity="0.1" d="M197.347 348.727C196.967 349.667 196.678 350.641 196.485 351.637C188.36 350.382 180.468 347.918 173.074 344.325L172.921 344.245L172.972 343.332L173 342.856L175.837 337.569C175.837 337.569 198.709 345.397 197.347 348.727Z" fill="black"/>
<path opacity="0.1" d="M217.496 351.659C215.419 352.012 213.324 352.251 211.22 352.374C211.096 349.538 211.022 347.587 211.022 347.587L217.331 346.316L217.496 351.659Z" fill="black"/>
<path opacity="0.1" d="M234.064 348.256C230.03 349.305 223.8 350.485 218.222 349.748L218.143 346.151L233.36 343.1C233.36 343.1 233.78 345.908 234.064 348.256Z" fill="black"/>
<path opacity="0.1" d="M218.12 350.406C194.857 354.376 173.551 342.992 173.551 342.992L173.755 339.135C173.755 339.135 174.283 295.406 172.819 292.054C171.355 288.702 170.214 271.701 171.043 269.092C171.871 266.483 168.019 227.355 168.019 227.355L167.394 211.472L144.551 202.22L154.764 180.938C156.144 177.954 157.33 174.884 158.316 171.748C160.092 166.223 168.336 160.795 168.336 160.795C168.336 160.795 176.791 155.372 180.133 155.576C183.475 155.781 187.855 150.778 187.855 150.778C191.089 142.536 194.017 146.268 194.017 146.268C194.017 146.659 194.017 146.268 193.858 147.488C192.723 156.535 212.208 185.124 212.486 185.629L214.341 230.815L216.219 287.998L218.12 350.406Z" fill="black"/>
<path d="M217.496 350.406C194.232 354.376 172.921 342.992 172.921 342.992L173.131 339.135C173.131 339.135 173.659 295.406 172.189 292.054C170.719 288.702 169.585 271.701 170.419 269.092C171.253 266.483 167.394 227.355 167.394 227.355L166.765 211.472L143.91 202.186L154.123 180.904C155.499 177.918 156.686 174.849 157.675 171.714C159.445 166.189 167.695 160.761 167.695 160.761C167.695 160.761 176.149 155.338 179.486 155.542C182.822 155.747 187.208 150.744 187.208 150.744C190.448 142.502 194.017 146.234 194.017 146.234C194.017 146.625 193.676 146.801 193.858 147.454C196.355 156.229 211.584 185.09 211.862 185.595L213.74 230.781L215.618 287.964L217.496 350.406Z" fill="white"/>
<path opacity="0.1" d="M211.226 186.882C208.724 185.839 195.469 170.71 195.469 170.71V167.267C194.987 166.133 192.122 166.825 189.795 167.619L190.794 146.705L191.929 147.646C194.414 156.416 210.937 186.377 211.226 186.882Z" fill="black"/>
<path d="M211.856 185.629C209.348 184.585 196.094 169.457 196.094 169.457V166.014C195.611 164.879 192.746 165.571 190.42 166.365L191.424 145.451L192.559 146.393C195.05 155.162 211.578 185.13 211.856 185.629Z" fill="white"/>
<path opacity="0.1" d="M173.551 261.077C173.863 261.077 189.727 259.409 189.727 259.409C189.727 259.409 199.333 278.293 198.704 282.887C198.074 287.482 196.933 291.549 193.069 290.829C189.205 290.108 172.274 291.396 172.274 291.396L173.551 261.077Z" fill="black"/>
<path d="M172.921 259.823C173.233 259.823 189.098 258.156 189.098 258.156C189.098 258.156 198.698 277.045 198.074 281.634C197.45 286.223 196.298 290.295 192.44 289.575C188.581 288.855 171.644 290.142 171.644 290.142L172.921 259.823Z" fill="white"/>
<path d="M184.876 250.958C184.876 250.958 199.436 258.78 199.748 261.168C200.06 263.556 192.337 260.124 190.669 259.71C189.571 259.446 188.454 259.271 187.327 259.188L176.201 259.489L184.876 250.958Z" fill="#CF6F80"/>
<path opacity="0.1" d="M207.164 187.858C208.01 187.858 208.695 187.172 208.695 186.326C208.695 185.481 208.01 184.795 207.164 184.795C206.317 184.795 205.632 185.481 205.632 186.326C205.632 187.172 206.317 187.858 207.164 187.858Z" fill="black"/>
<path d="M207.164 187.234C208.01 187.234 208.695 186.548 208.695 185.702C208.695 184.857 208.01 184.171 207.164 184.171C206.317 184.171 205.632 184.857 205.632 185.702C205.632 186.548 206.317 187.234 207.164 187.234Z" fill="#3F3D56"/>
<path opacity="0.1" d="M209.984 254.157C210.83 254.157 211.515 253.471 211.515 252.625C211.515 251.779 210.83 251.094 209.984 251.094C209.137 251.094 208.452 251.779 208.452 252.625C208.452 253.471 209.137 254.157 209.984 254.157Z" fill="black"/>
<path d="M209.984 253.527C210.83 253.527 211.515 252.841 211.515 251.996C211.515 251.15 210.83 250.464 209.984 250.464C209.137 250.464 208.452 251.15 208.452 251.996C208.452 252.841 209.137 253.527 209.984 253.527Z" fill="#3F3D56"/>
<path opacity="0.1" d="M208.69 221.007C209.536 221.007 210.222 220.322 210.222 219.476C210.222 218.63 209.536 217.944 208.69 217.944C207.844 217.944 207.158 218.63 207.158 219.476C207.158 220.322 207.844 221.007 208.69 221.007Z" fill="black"/>
<path d="M208.69 220.383C209.536 220.383 210.222 219.698 210.222 218.852C210.222 218.006 209.536 217.32 208.69 217.32C207.844 217.32 207.158 218.006 207.158 218.852C207.158 219.698 207.844 220.383 208.69 220.383Z" fill="#3F3D56"/>
<path d="M244.005 258.87C244.005 258.87 245.049 260.436 244.005 261.168C242.961 261.9 244.107 263.669 244.107 263.669C244.107 263.669 241.503 265.195 242.649 266.568C243.795 267.941 243.069 274.141 243.069 274.141L239.937 279.325C239.937 279.325 240.124 282.666 240.135 287.181C240.135 294.226 239.721 304.13 237.429 308.646L237.746 345.692C237.746 345.692 226.779 349.697 217.598 348.477L216.236 289.031C216.236 289.031 218.222 255.32 218.954 248.853C219.382 245.496 219.557 242.111 219.476 238.728C219.476 238.728 219.164 228.608 218.114 223.912C218.114 223.912 216.98 203.565 216.866 197.932C216.815 195.238 216.957 187.376 217.116 179.9C217.292 171.726 217.49 164.017 217.49 164.017L215.419 147.635C215.419 147.635 217.49 147.425 218.114 148.259C218.394 148.52 218.698 148.754 219.022 148.957C222.597 151.373 235.227 158.804 235.227 158.804C235.227 158.804 242.217 161.583 243.891 165.565C245.565 169.547 246.728 172.372 247.54 173.507C248.351 174.641 248.794 179.973 248.794 179.973C248.794 179.973 251.199 189.787 253.078 191.449C254.956 193.111 256.329 203.684 256.329 203.684L239.732 216.73C239.732 216.73 238.274 238.433 237.962 239.272C237.65 240.112 244.005 258.87 244.005 258.87Z" fill="white"/>
<path d="M244.635 258.87C244.635 258.87 245.673 260.436 244.635 261.168C243.596 261.9 244.731 263.669 244.731 263.669C244.731 263.669 242.144 265.212 243.279 266.585C244.413 267.958 243.698 274.158 243.698 274.158L240.566 279.342C240.566 279.342 240.754 282.683 240.771 287.198C240.771 294.243 240.356 304.147 238.064 308.663L238.376 345.709C238.376 345.709 227.391 349.714 218.222 348.494L216.866 289.048C216.866 289.048 218.852 255.337 219.584 248.87C220.013 245.513 220.185 242.128 220.1 238.745C220.1 238.745 219.788 228.625 218.744 223.929C218.744 223.929 217.609 203.582 217.49 197.949C217.439 195.255 217.587 187.393 217.74 179.917C217.916 171.743 218.114 164.034 218.114 164.034L215.379 147.431C215.379 147.431 218.114 147.431 218.744 148.276C219.021 148.54 219.325 148.774 219.652 148.974C223.227 151.39 235.863 158.821 235.863 158.821C235.863 158.821 242.847 161.6 244.521 165.583C246.195 169.565 247.358 172.389 248.175 173.524C248.992 174.658 249.423 179.99 249.423 179.99C249.423 179.99 251.829 189.804 253.707 191.466C255.585 193.128 256.942 203.678 256.942 203.678L240.345 216.725C240.345 216.725 238.887 238.427 238.569 239.267C238.251 240.106 244.635 258.87 244.635 258.87Z" fill="white"/>
<path opacity="0.1" d="M224.759 168.85L226.257 173.218L218.37 181.159C218.546 172.991 218.744 165.276 218.744 165.276L216.009 148.673C216.009 148.673 218.744 148.673 219.374 149.518C219.65 149.782 219.955 150.014 220.282 150.21L226.988 169.553L224.759 168.85Z" fill="black"/>
<path d="M224.129 167.596L225.632 171.964L217.746 179.905C217.921 171.731 218.12 164.023 218.12 164.023L215.379 147.42C215.379 147.42 218.12 147.42 218.744 148.265C219.022 148.527 219.327 148.761 219.652 148.962L226.364 168.3L224.129 167.596Z" fill="white"/>
<path opacity="0.1" d="M224.129 124.378C224.133 126.422 223.812 128.454 223.176 130.397C223.068 130.413 222.959 130.409 222.854 130.382C222.748 130.356 222.649 130.309 222.563 130.244C222.415 125.138 219.902 120.345 216.809 116.267C215.941 115.035 214.889 113.945 213.689 113.034C212.475 112.123 210.967 111.696 209.456 111.837C207.754 112.069 206.25 113.226 204.531 113.374C202.261 113.561 200.23 111.99 197.977 111.91C197.062 111.919 196.158 112.123 195.328 112.508C194.497 112.894 193.758 113.452 193.16 114.145C191.977 115.545 191.098 117.175 190.578 118.933C189.686 121.598 189.2 124.382 189.137 127.192C189.109 128.78 188.956 130.771 187.48 131.35C187.591 130.182 187.459 129.003 187.09 127.889C186.722 126.775 186.127 125.749 185.341 124.877L185.307 124.843C185.307 124.685 185.307 124.537 185.307 124.378C185.263 121.802 185.733 119.242 186.689 116.849C187.644 114.456 189.067 112.276 190.875 110.439C192.682 108.601 194.837 107.141 197.214 106.145C199.591 105.149 202.143 104.636 204.721 104.636C207.299 104.636 209.851 105.149 212.228 106.145C214.605 107.141 216.76 108.601 218.567 110.439C220.374 112.276 221.797 114.456 222.753 116.849C223.709 119.242 224.179 121.802 224.134 124.378H224.129Z" fill="black"/>
<path d="M212.758 93.5602C209.81 92.1737 206.456 91.9115 203.328 92.8228C201.756 93.288 200.275 94.0424 198.681 94.4224C195.276 95.2449 191.305 94.3544 188.383 96.3454C186.76 97.4799 185.784 99.2723 184.876 101.014L182.606 105.336C181.369 107.701 180.121 110.107 179.605 112.71C179.089 115.314 179.401 118.229 181.052 120.323C182.255 121.848 184.031 122.807 185.336 124.242C186.117 125.115 186.71 126.14 187.078 127.253C187.445 128.365 187.578 129.542 187.469 130.709C188.95 130.141 189.092 128.145 189.126 126.556C189.189 123.747 189.675 120.963 190.567 118.297C191.085 116.539 191.964 114.909 193.149 113.51C193.747 112.817 194.486 112.259 195.317 111.874C196.147 111.489 197.05 111.285 197.966 111.275C200.236 111.355 202.273 112.92 204.519 112.733C206.222 112.591 207.731 111.428 209.444 111.201C210.955 111.058 212.465 111.485 213.677 112.398C214.877 113.308 215.928 114.399 216.792 115.631C219.89 119.71 222.404 124.492 222.551 129.608C223.193 130.079 224.117 129.466 224.435 128.74C224.753 128.014 224.764 127.163 225.167 126.471C225.632 125.672 226.523 125.246 227.221 124.645C228.991 123.119 229.434 120.549 229.366 118.218C229.298 115.887 228.844 113.521 229.286 111.23C229.553 109.823 230.155 108.507 230.484 107.117C230.813 105.728 230.852 104.168 230.075 102.971C228.94 101.212 226.552 100.866 224.469 100.702C222.103 100.498 219.987 100.758 218.477 98.7675C217.769 97.7285 216.972 96.753 216.094 95.8519C215.794 95.5569 212.758 93.685 212.758 93.5602Z" fill="#512E4E"/>
<path opacity="0.1" d="M151.087 213.179L145.158 202.22L143.28 219.13C143.28 219.13 144.324 226.64 144.114 227.791C143.904 228.943 148.392 239.267 148.392 239.267C148.392 239.267 163.218 265.666 169.273 267.027L189.727 252.415L184.303 245.529C184.303 245.529 182.425 244.797 181.954 245.529C181.954 245.529 171.883 228.206 170.839 226.952C169.795 225.698 169.999 223.197 169.999 223.197C169.999 223.197 168.433 221.529 168.955 219.964C169.477 218.398 165.931 212.97 165.931 212.97L169.165 209.946L151.087 213.179Z" fill="black"/>
<path d="M145.47 200.972L143.904 202.22L142.026 219.13C142.026 219.13 143.07 226.64 142.86 227.791C142.65 228.943 147.144 239.267 147.144 239.267C147.144 239.267 161.964 265.666 168.019 267.027L188.479 252.415L183.049 245.529C183.049 245.529 181.171 244.797 180.7 245.529C180.7 245.529 170.629 228.206 169.585 226.952C168.541 225.698 168.75 223.197 168.75 223.197C168.75 223.197 167.184 221.529 167.706 219.964C168.228 218.398 164.677 212.97 164.677 212.97L167.911 209.946L145.47 200.972Z" fill="white"/>
<path opacity="0.1" d="M242.649 267.215C243.784 268.593 243.069 274.781 243.069 274.781L239.937 279.966C239.937 279.966 240.124 283.313 240.135 287.822L234.87 289.467C234.394 289.616 233.889 289.649 233.398 289.563C232.907 289.477 232.444 289.274 232.047 288.973C231.65 288.672 231.331 288.28 231.116 287.83C230.901 287.38 230.797 286.885 230.813 286.387L231.721 257.112L244.005 261.809C242.961 262.535 244.107 264.316 244.107 264.316C244.107 264.316 241.503 265.836 242.649 267.215Z" fill="black"/>
<path d="M243.279 266.585C244.413 267.963 243.698 274.158 243.698 274.158L240.566 279.342C240.566 279.342 240.754 282.683 240.771 287.198L235.409 288.872C234.943 289.016 234.449 289.048 233.968 288.963C233.487 288.879 233.034 288.681 232.645 288.385C232.257 288.09 231.945 287.706 231.734 287.266C231.524 286.826 231.422 286.342 231.437 285.854L232.35 256.488L244.64 261.185C243.591 261.911 244.737 263.686 244.737 263.686C244.737 263.686 242.144 265.212 243.279 266.585Z" fill="white"/>
<path d="M247.347 252.631C247.347 252.631 246.513 257.957 244.425 258.269C242.337 258.581 241.4 266.886 239.318 266.591C237.236 266.296 238.614 258.871 238.688 257.43C238.762 255.989 236.419 250.022 238.172 248.666C239.925 247.31 245.474 248.666 245.474 248.666L247.347 252.631Z" fill="#CF6F80"/>
<path opacity="0.1" d="M251.79 211.614L255.727 203.673C255.727 203.673 257.293 209.725 257.293 212.958C257.293 216.191 259.484 216.509 259.484 216.509C259.484 216.509 261.884 219.345 260.618 221.41C259.353 223.475 258.842 228.614 258.842 228.614C258.842 228.614 259.257 238.422 257.378 239.777C255.5 241.133 255.109 244.372 255.109 244.372C255.109 244.372 251.659 250.526 251.767 251.99C251.875 253.453 246.967 263.363 246.967 263.363C246.967 263.363 249.367 251.048 235.38 245.728C235.38 245.728 235.273 241.547 236.317 240.401C237.361 239.255 238.989 238.734 237.968 232.942C236.946 227.151 237.673 220.23 237.673 218.84C237.673 217.451 240.805 208.783 240.805 208.783L251.79 211.614Z" fill="black"/>
<path d="M253.492 202.538L256.93 203.673C256.93 203.673 258.502 209.725 258.502 212.958C258.502 216.191 260.692 216.509 260.692 216.509C260.692 216.509 263.092 219.345 261.827 221.41C260.562 223.475 260.057 228.614 260.057 228.614C260.057 228.614 260.471 238.422 258.593 239.777C256.715 241.133 256.295 244.372 256.295 244.372C256.295 244.372 252.851 250.526 252.958 251.99C253.066 253.453 248.153 263.363 248.153 263.363C248.153 263.363 250.558 251.048 236.566 245.728C236.566 245.728 236.464 241.547 237.508 240.401C238.552 239.255 240.181 238.734 239.159 232.942C238.138 227.151 238.864 220.23 238.864 218.84C238.864 217.451 241.996 208.783 241.996 208.783L253.492 202.538Z" fill="white"/>
<path opacity="0.1" d="M177.545 408.372C177.545 408.372 183.026 404.929 186.624 407.43C190.221 409.932 177.545 408.372 177.545 408.372Z" fill="black"/>
<path opacity="0.1" d="M220.134 397.725C220.134 397.725 224.986 397.101 229.059 401.486C233.133 405.87 220.134 397.725 220.134 397.725Z" fill="black"/>
<g opacity="0.1">
<path d="M227.232 123.403C226.535 124.004 225.638 124.435 225.173 125.235C224.776 125.921 224.764 126.766 224.447 127.504C224.129 128.241 223.204 128.842 222.563 128.377C222.415 123.272 219.896 118.479 216.804 114.395C215.939 113.162 214.888 112.072 213.689 111.162C212.474 110.249 210.963 109.822 209.45 109.965C207.748 110.197 206.25 111.355 204.531 111.496C202.261 111.689 200.224 110.118 197.972 110.039C197.056 110.048 196.153 110.252 195.324 110.639C194.494 111.025 193.756 111.584 193.16 112.279C191.976 113.676 191.096 115.305 190.578 117.061C189.687 119.726 189.201 122.51 189.137 125.32C189.103 126.903 188.956 128.877 187.492 129.466C187.526 129.885 187.526 130.307 187.492 130.726C188.967 130.158 189.115 128.162 189.149 126.574C189.212 123.764 189.698 120.98 190.59 118.315C191.108 116.556 191.987 114.926 193.171 113.527C193.769 112.834 194.507 112.277 195.336 111.891C196.166 111.506 197.068 111.302 197.983 111.292C200.253 111.372 202.295 112.937 204.542 112.75C206.244 112.608 207.754 111.445 209.461 111.218C210.974 111.076 212.486 111.502 213.7 112.415C214.9 113.325 215.95 114.416 216.815 115.649C219.907 119.727 222.427 124.509 222.574 129.625C223.215 130.096 224.14 129.483 224.458 128.757C224.776 128.031 224.787 127.18 225.184 126.488C225.649 125.689 226.546 125.263 227.244 124.662C229.014 123.136 229.457 120.566 229.389 118.235C229.389 118.161 229.389 118.088 229.389 118.02C229.281 120.039 228.742 122.098 227.232 123.403Z" fill="black"/>
<path d="M185.347 123C184.042 121.565 182.26 120.606 181.063 119.086C180.055 117.74 179.479 116.12 179.412 114.44C179.233 116.54 179.82 118.633 181.063 120.334C182.26 121.86 184.042 122.818 185.347 124.254C186.6 125.657 187.352 127.437 187.486 129.313C187.573 128.171 187.428 127.023 187.061 125.938C186.693 124.854 186.11 123.854 185.347 123Z" fill="black"/>
<path d="M230.495 105.875C230.16 107.265 229.564 108.586 229.292 109.987C229.131 110.924 229.072 111.875 229.116 112.824C229.135 112.283 229.194 111.745 229.292 111.213C229.564 109.806 230.16 108.49 230.495 107.1C230.69 106.334 230.753 105.54 230.682 104.752C230.647 105.13 230.584 105.506 230.495 105.875Z" fill="black"/>
</g>
<path opacity="0.1" d="M75.311 431.436C105.845 431.436 130.599 427.461 130.599 422.558C130.599 417.656 105.845 413.681 75.311 413.681C44.7766 413.681 20.0236 417.656 20.0236 422.558C20.0236 427.461 44.7766 431.436 75.311 431.436Z" fill="#E27B4A"/>
<path d="M77.0927 252.5H73.5351V332.577H77.0927V252.5Z" fill="#535461"/>
<path d="M99.4482 332.334L99.2269 335.941L98.9092 341.046L98.7787 343.168L98.4666 348.273L98.3304 350.394L98.0127 355.5L94.4267 413.398C94.2709 415.889 93.1714 418.227 91.352 419.936C89.5326 421.645 87.1301 422.597 84.6334 422.598H65.9886C63.4925 422.597 61.0907 421.645 59.2722 419.936C57.4537 418.226 56.3554 415.888 56.201 413.398L52.632 355.46L52.3143 350.355L52.1838 348.233L51.866 343.128L51.7355 341.007L51.4178 335.901L51.1908 332.294C51.1514 331.599 51.2543 330.904 51.4932 330.251C51.7321 329.598 52.102 329.001 52.5802 328.495C53.0584 327.99 53.6348 327.588 54.274 327.314C54.9132 327.039 55.6018 326.898 56.2974 326.899H94.4324C95.1254 326.905 95.8099 327.053 96.4436 327.334C97.0772 327.615 97.6466 328.022 98.1166 328.531C98.5866 329.041 98.9473 329.641 99.1763 330.295C99.4053 330.948 99.4979 331.642 99.4482 332.334Z" fill="#3F3D56"/>
<path d="M99.227 335.941L98.9092 341.029H51.7129L51.3951 335.941H99.227Z" fill="#9D9CB5"/>
<path d="M98.7787 343.151L98.4667 348.245H52.1611L51.8434 343.151H98.7787Z" fill="#9D9CB5"/>
<path d="M98.3305 350.372L98.0184 355.46H52.6094L52.2916 350.372H98.3305Z" fill="#9D9CB5"/>
<path d="M45.9651 282.513C66.6809 297.499 75.328 320.938 75.328 320.938C75.328 320.938 50.3624 320.081 29.641 305.095C8.91953 290.108 0.289368 266.676 0.289368 266.676C0.289368 266.676 25.2436 267.527 45.9651 282.513Z" fill="#E27B4A"/>
<path d="M0.272339 266.676C0.272339 266.676 26.1912 281.055 34.5036 292.961C42.816 304.868 75.328 320.938 75.328 320.938" stroke="#535461" stroke-width="2" stroke-miterlimit="10"/>
<path d="M59.3387 252.325C70.6129 260.476 75.328 273.233 75.328 273.233C75.328 273.233 61.7388 272.768 50.4589 264.617C39.179 256.465 34.4752 243.703 34.4752 243.703C34.4752 243.703 48.0588 244.168 59.3387 252.325Z" fill="#E27B4A"/>
<path d="M34.4752 243.703C34.4752 243.703 48.5808 251.53 53.103 258.008C57.6251 264.486 75.328 273.233 75.328 273.233" stroke="#535461" stroke-width="2" stroke-miterlimit="10"/>
<path d="M91.6976 272.586C78.7438 286.818 76.0033 305.418 76.0033 305.418C76.0033 305.418 94.2679 300.937 107.21 286.699C120.153 272.462 122.905 253.867 122.905 253.867C122.905 253.867 104.651 258.354 91.6976 272.586Z" fill="#E27B4A"/>
<path d="M122.916 253.873C122.916 253.873 106.041 268.462 101.752 278.514C97.4624 288.565 76.0033 305.418 76.0033 305.418" stroke="#535461" stroke-width="2" stroke-miterlimit="10"/>
<path d="M567.213 267.578C567.213 267.578 557.845 220.985 561.431 215.187C561.431 215.187 561.562 209.799 561.346 202.929C561.346 202.669 561.346 202.408 561.346 202.141C561.977 202.562 562.635 202.94 563.315 203.275C566.619 204.972 570.412 205.462 574.039 204.66L571.202 201.5C570.521 200.746 569.812 199.929 569.664 198.93C569.517 197.932 569.925 197.042 570.277 196.151C572.972 189.344 573.114 180.784 567.922 175.589C563.536 171.221 562.47 165.583 557.709 161.595C554.231 158.674 552.319 154.391 550.514 150.25C548.988 146.75 547.45 143.222 546.577 139.512C545.896 136.614 545.623 133.613 544.687 130.782C543.751 127.952 541.998 125.201 539.257 123.936C538.281 123.488 537.198 123.232 536.307 122.637C535.138 121.848 534.434 120.566 533.589 119.443C529.294 113.771 514.91 117.112 508.101 119.415C506.25 119.995 504.536 120.944 503.063 122.206L503.125 122.104C503.176 122.019 503.239 121.934 503.295 121.848C502.55 122.451 501.906 123.169 501.389 123.976C500.396 125.547 499.982 127.379 499.153 129.081C498.155 131.094 492.6 136.716 494.989 138.979C495.156 139.131 495.348 139.254 495.556 139.342C496.453 139.715 497.44 139.814 498.393 139.626L498.291 139.87C497.475 141.866 497.057 144.003 497.06 146.16C497.06 155.48 504.748 163.036 514.241 163.036C516.025 163.037 517.799 162.764 519.5 162.224C519.54 162.44 519.574 162.656 519.614 162.871C519.614 162.956 519.642 163.041 519.654 163.126L519.353 163.546C519.338 163.52 519.321 163.496 519.302 163.472L510.394 175.918C509.032 176.876 501.19 182.549 500.748 186.803C500.283 191.46 499.817 196.911 499.817 196.911L499.755 198.08C499.366 198.405 498.91 198.642 498.42 198.774C497.931 198.906 497.418 198.93 496.918 198.845C494.138 198.392 494.138 209.056 494.138 209.056C494.138 209.056 492.288 210.757 491.017 209.283C489.746 207.808 486.387 212.805 486.387 212.805L465.336 213.713L464.854 213.741L463.719 210.23C463.597 209.859 463.334 209.552 462.986 209.375C462.639 209.197 462.236 209.164 461.864 209.283C461.776 209.311 461.691 209.347 461.609 209.39L461.529 209.436L461.382 209.538L461.308 209.606C461.267 209.643 461.229 209.683 461.194 209.725L461.126 209.804L461.092 209.838C460.961 210.02 460.874 210.229 460.839 210.449C460.803 210.67 460.82 210.896 460.888 211.109L461.864 214.121C457.801 214.938 453.648 217.241 457.035 223.583L439.866 220.412L445.421 225.074L474.097 230.991C473.717 231.671 473.966 232.658 475.152 234.048C480.259 240.044 489.564 241.672 493.309 242.092C494.298 244.303 495.533 246.396 496.992 248.331L496.668 254.304C496.668 254.304 487.187 299.831 485.451 302.139C486.327 301.147 487.129 300.091 487.851 298.98C485.099 308.334 481.252 321.136 480.242 323.053C478.619 326.117 477.116 338.511 478.965 339.305C479.533 339.549 481.155 339.43 483.47 339.254V340.281L483.368 379.187C483.368 379.187 483.834 403.051 482.557 405.326C481.28 407.6 480.94 412.371 480.94 412.371C480.94 412.371 475.833 421.781 471.788 425.565C471.76 425.594 471.73 425.621 471.697 425.644L471.572 424.759C471.572 424.759 466.709 430.897 455.952 430.551C455.952 430.551 449.478 434.76 459.078 434.987C468.678 435.213 480.94 434.646 480.94 434.646C480.94 434.646 489.502 421.6 496.674 423.301V433.188H498.87V423.143C499.888 422.472 500.76 421.602 501.432 420.586C502.104 419.569 502.562 418.426 502.779 417.226C502.967 415.99 502.829 414.726 502.38 413.559C501.93 412.393 501.184 411.363 500.214 410.573C499.779 410.179 499.43 409.7 499.189 409.165C498.947 408.63 498.819 408.051 498.813 407.464L498.734 407.532C498.734 407.334 498.682 407.13 498.66 406.92C498.03 401.815 497.241 391.281 500.027 383.487C503.846 372.8 505.003 357.916 502.223 349.056C501.326 346.223 500.589 343.343 500.016 340.428C499.948 340.059 499.885 339.708 499.829 339.379C501.729 339.636 503.611 340.015 505.463 340.513C511.903 342.289 525.991 342.618 538.02 342.521C538.049 342.85 538.083 343.196 538.122 343.542C538.337 345.947 538.785 348.326 539.462 350.644C540.971 355.182 541.663 375.188 541.663 375.188C541.663 375.188 543.609 391.638 542.548 398.332C541.981 402.053 541.413 405.791 541.09 409.546V409.62C541.09 409.62 537.901 418.696 535.569 423.625C535.512 423.75 535.45 423.874 535.393 423.993C534.772 424.05 534.16 424.185 533.572 424.396C533.572 424.396 530.446 430.636 527.33 431.668C524.215 432.701 525.248 436.098 532.301 434.85C539.354 433.603 550.004 432.581 550.004 432.581L550.463 426.217L552.631 423.506L552.063 429.853L554.373 429.399L554.066 421.679L557.613 417.243C557.613 417.243 561.896 413.432 555.53 405.933V406.097C555.462 405.989 555.4 405.876 555.326 405.768V405.734C554.271 404.1 553.431 401.054 554.969 395.649C557.749 385.881 559.366 377.015 559.366 377.015C559.366 377.015 565.573 353.265 558.112 342.028H558.441C557.676 340.446 557.136 338.766 556.835 337.036C556.797 336.832 556.763 336.622 556.733 336.406C562.254 336.089 567.673 335.09 572.093 332.935C572.076 332.912 569.415 276.551 567.213 267.578ZM497.122 228.268V228.381L495.987 228.438L497.122 228.268ZM493.23 228.807C493.043 228.848 492.868 228.932 492.719 229.051C492.231 229.741 491.925 230.543 491.828 231.382L490.058 230.985C490.058 230.985 488.815 230.718 487.028 230.418L486.183 229.567C488.509 229.374 490.926 229.09 493.23 228.807Z" fill="url(#paint1_linear_20_412)"/>
<path d="M551.802 421.759L551.127 429.796L553.391 429.343L553.051 420.624L551.802 421.759Z" fill="#1D2366"/>
<path d="M500.152 383.595C497.423 391.366 498.194 401.854 498.807 406.948C499.034 408.831 499.244 409.977 499.244 409.977C499.244 409.977 495.165 419.268 494.824 419.62C494.484 419.972 482.818 427.091 482.818 427.091L474.664 431.85C474.664 431.85 466.392 428.225 470.358 426.977C471.168 426.652 471.898 426.155 472.497 425.519C476.469 421.747 481.456 412.371 481.456 412.371C481.456 412.371 481.797 407.612 483.045 405.348C484.293 403.085 483.839 379.301 483.839 379.301L483.936 340.53V335.476L499.454 335.589C499.552 337.305 499.776 339.012 500.124 340.695C500.681 343.6 501.402 346.471 502.285 349.294C505.02 358.137 503.885 372.948 500.152 383.595Z" fill="#FFB0B1"/>
<path opacity="0.1" d="M499.244 409.977C499.244 409.977 495.165 419.268 494.824 419.62C494.484 419.972 482.818 427.091 482.818 427.091L474.664 431.85C474.664 431.85 466.392 428.225 470.358 426.977C471.168 426.652 471.898 426.155 472.497 425.519L472.849 427.998L475.567 427.885L498.83 406.959C499.034 408.831 499.244 409.977 499.244 409.977Z" fill="black"/>
<path d="M498.96 407.487L475.567 428.554L472.849 428.668L472.281 424.697C472.281 424.697 467.526 430.812 456.961 430.471C456.961 430.471 450.618 434.663 460.02 434.89C469.422 435.117 481.428 434.55 481.428 434.55C481.428 434.55 489.814 421.503 496.833 423.205V433.058H498.989V423.114C499.991 422.44 500.847 421.569 501.504 420.555C502.161 419.542 502.607 418.405 502.813 417.215C503 415.989 502.868 414.735 502.429 413.575C501.991 412.415 501.262 411.386 500.311 410.59C499.886 410.192 499.547 409.711 499.315 409.178C499.083 408.644 498.962 408.069 498.96 407.487Z" fill="#1D2366"/>
<path d="M553.958 395.711C552.449 401.1 553.272 404.134 554.305 405.762V405.796C555.629 407.807 556.55 410.055 557.017 412.416L557.108 412.927L546.463 428.441L540.687 430.71C540.687 430.71 531.399 427.539 533.095 426.631C533.521 426.41 534.185 425.23 534.945 423.602C537.214 418.695 540.347 409.642 540.347 409.642V409.569C540.676 405.831 541.198 402.104 541.776 398.394C542.815 391.718 540.908 375.33 540.908 375.33C540.908 375.33 540.227 355.403 538.752 350.871C538.086 348.566 537.643 346.203 537.43 343.814C537.124 340.978 537.056 338.641 537.056 338.641C537.056 338.641 543.172 330.133 554.384 339.322C555.281 340.055 556.07 340.91 556.727 341.863C564.472 352.879 558.237 377.145 558.237 377.145C558.237 377.145 556.676 385.972 553.958 395.711Z" fill="#FFB0B1"/>
<path opacity="0.1" d="M557.125 412.927L546.48 428.441L540.704 430.71C540.704 430.71 531.416 427.539 533.112 426.631C533.538 426.41 534.202 425.23 534.962 423.602C538.894 423.568 540.931 427.312 540.931 427.312L545.913 426.518C545.913 426.518 552.483 413.607 553.959 412.819C555.434 412.03 554.186 406.925 554.186 406.925V405.626C554.225 405.672 554.259 405.723 554.305 405.768V405.802C555.629 407.812 556.55 410.061 557.017 412.422L557.125 412.927Z" fill="black"/>
<path d="M541.271 427.647C541.271 427.647 538.434 422.439 532.999 424.362C532.999 424.362 529.94 430.602 526.882 431.612C523.824 432.621 524.845 436.025 531.756 434.782C538.667 433.54 549.085 432.513 549.085 432.513L549.538 426.166L556.563 417.221C556.563 417.221 560.75 413.426 554.52 405.955V407.254C554.52 407.254 555.769 412.359 554.293 413.148C552.818 413.936 546.27 426.852 546.27 426.852L541.271 427.647Z" fill="#1D2366"/>
<path opacity="0.1" d="M499.471 335.578C499.569 337.294 499.793 339 500.141 340.683C493.752 339.747 487.822 340.212 483.936 340.519V335.465L499.471 335.578Z" fill="black"/>
<path opacity="0.1" d="M557.357 343.276C557.357 343.276 548.279 343.718 537.453 343.809C537.146 340.973 537.078 338.636 537.078 338.636C537.078 338.636 543.195 330.127 554.407 339.316C555.303 340.049 556.092 340.905 556.75 341.857C556.926 342.341 557.129 342.814 557.357 343.276Z" fill="black"/>
<path d="M557.357 342.254C557.357 342.254 517.594 344.177 505.474 340.78C493.355 337.382 481.343 340.326 479.533 339.537C477.723 338.749 479.192 326.4 480.781 323.343C482.37 320.285 491.085 289.365 491.085 289.365L499.471 245.654L508.306 243.22L508.93 243.045L524.323 238.802L535.603 235.687C535.603 235.687 558.032 323.229 556.109 329.684C555.41 332.156 555.298 334.757 555.78 337.28C556.074 339.003 556.605 340.677 557.357 342.254Z" fill="#1D2366"/>
<path d="M470.239 215.76C470.239 215.76 462.295 224.269 468.31 229.011C474.324 233.753 478.279 229.465 478.279 229.465L470.239 215.76Z" fill="#C7DAF5"/>
<path opacity="0.1" d="M470.239 215.76C470.239 215.76 462.295 224.269 468.31 229.011C474.324 233.753 478.279 229.465 478.279 229.465L470.239 215.76Z" fill="black"/>
<path d="M534.417 159.819C534.417 159.819 533.487 160.704 532.085 162.009C530.088 163.875 527.132 166.604 524.51 168.889C520.879 172.049 517.883 174.369 518.956 172.389C520.028 170.41 519.824 166.961 519.29 163.733C519.251 163.518 519.217 163.302 519.177 163.092C518.735 160.722 518.15 158.381 517.424 156.081C517.424 156.081 523.291 148.503 526.536 145.514C527.745 144.379 528.59 143.914 528.641 144.702C528.698 145.763 529.492 148.106 530.479 150.59C530.508 150.67 530.536 150.744 530.57 150.823C531.228 152.525 531.972 154.272 532.624 155.781C533.623 158.095 534.417 159.819 534.417 159.819Z" fill="#FFB0B1"/>
<path opacity="0.1" d="M530.57 150.823C530.019 153.788 528.681 156.55 526.697 158.821C524.713 161.092 522.155 162.788 519.29 163.733C518.839 161.144 518.216 158.588 517.424 156.081C517.424 156.081 528.471 141.815 528.641 144.702C528.681 145.797 529.543 148.225 530.57 150.823Z" fill="black"/>
<path opacity="0.1" d="M518.19 167.545L519.619 165.531C519.619 165.531 520.567 171.306 524.051 168.759C527.535 166.212 527.705 187.926 527.705 187.926L523.966 243.816L496.946 242.199L497.712 215.193L500.77 201.579L508.334 181.788L512.833 175.248L518.19 167.545Z" fill="black"/>
<path d="M527.705 188.272L524.301 238.807L523.943 244.162L508.879 243.26L508.311 243.226L496.963 242.545L497.729 215.534L500.787 201.92L508.351 182.129L512.85 175.589L518.207 167.857L519.636 165.849C519.636 165.849 520.584 171.624 524.068 169.077L524.142 169.026C527.546 166.87 527.705 188.272 527.705 188.272Z" fill="#1D2366"/>
<path d="M501.168 197.189C501.168 197.189 499.812 200.025 497.088 199.566C494.364 199.106 494.37 209.776 494.37 209.776C494.37 209.776 492.56 211.478 491.312 210.003C490.064 208.528 486.773 213.514 486.773 213.514L466.153 214.422C466.153 214.422 475.328 218.614 473.53 231.297C473.53 231.297 504.68 229.368 505.701 226.424C506.722 223.481 501.168 197.189 501.168 197.189Z" fill="white"/>
<path opacity="0.03" d="M501.168 197.189C501.168 197.189 499.812 200.025 497.088 199.566C494.364 199.106 494.37 209.776 494.37 209.776C494.37 209.776 492.56 211.478 491.312 210.003C490.064 208.528 486.773 213.514 486.773 213.514L466.153 214.422C466.153 214.422 475.328 218.614 473.53 231.297C473.53 231.297 504.68 229.368 505.701 226.424C506.722 223.481 501.168 197.189 501.168 197.189Z" fill="black"/>
<path d="M441.245 221.087L446.68 225.727L491.425 235.126L485.876 229.465L441.245 221.087Z" fill="white"/>
<path d="M518.275 169.332C517.531 170.466 515.404 176.275 513.628 181.346C512.147 185.572 510.91 189.287 510.91 189.287C510.91 189.287 508.022 208.086 506.547 211.483C505.071 214.881 505.871 228.132 505.871 228.132L500.373 260.856C500.373 260.856 497.882 277.731 494.035 287.811C490.239 297.732 486.012 302.383 485.882 302.531C487.584 300.228 496.861 254.883 496.861 254.883L499.925 197.694C499.925 197.694 500.373 192.26 500.827 187.614C501.281 182.968 510.473 176.627 510.473 176.627L519.336 164.028C520.227 165.219 519.631 167.296 518.275 169.332Z" fill="white"/>
<path d="M495.165 242.829C495.165 242.829 482.114 242.262 475.794 234.672C469.473 227.082 490.404 231.643 490.404 231.643L495.845 232.891L495.165 242.829Z" fill="#FFB0B1"/>
<path opacity="0.1" d="M556.109 329.69C555.41 332.162 555.298 334.763 555.78 337.286C541.544 338.295 526.315 334.449 526.315 334.449C523.478 337.059 516.005 340.904 516.005 340.904L511.931 290.42C509.327 283.613 508.306 247.951 508.306 247.951C508.306 247.951 508.538 246.085 508.873 243.288C508.873 243.22 508.873 243.147 508.901 243.079C509.917 235.268 511.931 220.605 512.918 218.625C514.28 215.902 508.731 208.659 508.731 208.659L511.256 187.132L511.562 184.534C516.885 182.157 520.964 174.568 520.964 174.568L524.096 169.082C527.501 166.898 527.677 188.3 527.677 188.3L524.272 238.836L535.552 235.722C535.552 235.722 558.032 323.235 556.109 329.69Z" fill="black"/>
<path d="M570.719 333.179C555.201 340.882 526.996 333.746 526.996 333.746C524.159 336.355 516.686 340.201 516.686 340.201L512.606 289.717C510.008 282.91 508.986 247.248 508.986 247.248C508.986 247.248 512.266 220.639 513.628 217.922C514.025 217.127 513.832 215.948 513.361 214.677C511.046 208.629 510.194 202.12 510.876 195.68L511.965 186.429L512.266 183.836C517.594 181.454 521.673 173.864 521.673 173.864L524.51 168.895L529.73 159.74L532.204 155.406L532.624 155.786L535.83 158.691C535.83 158.691 537.192 159.825 539.234 161.527C543.677 165.271 551.354 171.862 555.315 175.895C558.798 179.446 559.899 193.258 560.217 203.656C560.427 210.502 560.302 215.868 560.302 215.868C556.79 221.648 565.976 268.054 565.976 268.054C568.115 277.022 570.719 333.179 570.719 333.179Z" fill="white"/>
<path opacity="0.03" d="M540.931 173.751C540.931 173.751 530.281 194.018 531.518 201.721C532.755 209.424 536.273 218.143 534.576 220.179C533.993 220.951 533.24 221.577 532.375 222.009C531.509 222.441 530.556 222.667 529.589 222.669C527.886 222.783 523.347 225.954 523.347 226.294C523.347 226.634 519.154 226.634 515.404 228.223C511.653 229.811 506.115 230.713 506.115 230.713C506.115 230.713 495.335 230.372 494.33 231.393C493.326 232.414 492.293 238.524 494.444 243.396C496.594 248.269 498.983 251.905 500.787 252.568C502.592 253.232 514.042 249.398 523.33 248.49C532.619 247.582 542.701 240.225 542.701 240.225C542.701 240.225 553.805 236.255 555.752 229.578C557.698 222.902 553.374 186.207 553.374 186.207C553.374 186.207 550.106 169.105 540.931 173.751Z" fill="black"/>
<path opacity="0.03" d="M539.569 172.049C539.569 172.049 528.919 192.322 530.167 200.02C531.416 207.717 534.922 216.441 533.22 218.483C532.639 219.255 531.887 219.882 531.022 220.315C530.158 220.747 529.205 220.972 528.238 220.973C526.536 221.087 521.997 224.258 521.997 224.598C521.997 224.938 517.804 224.938 514.053 226.521C510.303 228.103 504.765 229.011 504.765 229.011C504.765 229.011 493.984 228.671 492.986 229.692C491.987 230.713 490.943 236.828 493.099 241.695C495.255 246.561 497.638 250.203 499.443 250.867C501.247 251.53 512.697 247.696 521.986 246.794C531.274 245.892 541.357 238.524 541.357 238.524C541.357 238.524 552.455 234.553 554.378 227.882C556.302 221.212 552.001 184.506 552.001 184.506C552.001 184.506 548.744 167.409 539.569 172.049Z" fill="black"/>
<path d="M540.596 172.73C540.596 172.73 529.946 193.003 531.194 200.7C532.443 208.398 535.949 217.122 534.253 219.158C533.672 219.932 532.919 220.561 532.053 220.994C531.188 221.427 530.233 221.653 529.265 221.654C527.563 221.767 523.024 224.938 523.024 225.273C523.024 225.608 518.836 225.613 515.08 227.202C511.324 228.79 505.792 229.692 505.792 229.692C505.792 229.692 495.011 229.351 494.007 230.372C493.003 231.393 491.97 237.508 494.12 242.375C496.271 247.242 498.66 250.884 500.464 251.547C502.268 252.211 513.718 248.377 523.007 247.469C532.295 246.561 542.378 239.204 542.378 239.204C542.378 239.204 553.482 235.234 555.428 228.557C557.374 221.881 553.079 185.186 553.079 185.186C553.079 185.186 549.765 168.112 540.596 172.73Z" fill="white"/>
<path opacity="0.1" d="M540.364 227.105C540.364 227.105 531.853 225.403 534.814 228.24C537.776 231.076 537.759 233.56 541.385 233.447C545.011 233.333 540.364 227.105 540.364 227.105Z" fill="black"/>
<path opacity="0.1" d="M554.747 288.129C554.747 288.129 550.9 290.732 558.259 296.734C565.619 302.735 554.747 288.129 554.747 288.129Z" fill="black"/>
<path opacity="0.1" d="M547.405 309.531C547.405 309.871 546.043 322.01 551.139 325.044C556.234 328.079 547.405 309.531 547.405 309.531Z" fill="black"/>
<path d="M466.505 214.393C462.397 214.535 453.523 215.789 458.125 224.371C462.193 231.966 469.03 226.89 472.877 223.038C471.939 219.447 469.658 216.353 466.505 214.393Z" fill="#FFB0B1"/>
<path opacity="0.1" d="M539.234 161.873C534.877 164.851 531.223 167.364 530.508 167.885C528.556 169.332 524.834 177.823 522.434 182.157C520.522 185.646 514.309 186.542 511.965 186.763L512.266 184.171C517.594 181.788 521.673 174.199 521.673 174.199L532.204 155.741L535.83 159.037C535.83 159.037 537.192 160.171 539.234 161.873Z" fill="black"/>
<path d="M539.234 161.532C534.877 164.51 531.223 167.023 530.508 167.551C528.556 168.992 524.834 177.483 522.434 181.817C520.522 185.305 514.309 186.202 511.965 186.423L512.266 183.831C517.594 181.448 521.673 173.859 521.673 173.859L532.204 155.401L535.83 158.685C535.83 158.685 537.192 159.808 539.234 161.532Z" fill="#DCE7FF"/>
<path d="M530.848 147.079C530.851 150.484 529.818 153.81 527.887 156.614C525.606 159.931 522.211 162.32 518.319 163.348C514.427 164.376 510.295 163.976 506.673 162.219C503.051 160.462 500.179 157.466 498.578 153.773C496.977 150.08 496.753 145.936 497.947 142.093C499.141 138.249 501.674 134.961 505.085 132.824C508.497 130.688 512.562 129.845 516.542 130.448C520.522 131.051 524.154 133.061 526.779 136.112C529.404 139.164 530.848 143.055 530.848 147.079Z" fill="#FFB0B1"/>
<path opacity="0.1" d="M560.217 203.661C557.913 202.244 556.036 200.229 554.787 197.83C553.839 195.958 553.21 193.797 551.592 192.47C550.134 191.278 548.188 190.989 546.372 190.456C540.403 188.692 535.399 183.246 535.212 177.029C535.121 174.102 536.034 171.181 535.62 168.283C535.385 166.642 534.732 165.089 533.725 163.773C533.225 163.143 532.677 162.554 532.085 162.009C531.291 161.26 530.457 160.534 529.73 159.74C529.273 159.248 528.873 158.706 528.539 158.123C528.269 157.647 528.05 157.143 527.886 156.62C526.752 153.149 527.784 149.03 526.536 145.519L526.468 145.326C525.997 144.078 525.038 142.831 523.705 142.734C522.371 142.638 521.231 143.744 519.96 144.237C517.299 145.27 514.428 143.511 512.209 141.719C509.991 139.926 507.488 137.879 504.668 138.276C502.802 138.542 501.326 139.813 499.607 140.471C499.219 140.621 498.818 140.737 498.41 140.817C499.865 137.189 502.538 134.182 505.97 132.311C509.402 130.44 513.379 129.822 517.217 130.563C521.056 131.305 524.516 133.36 527.003 136.375C529.491 139.39 530.85 143.177 530.848 147.085C530.85 148.265 530.727 149.442 530.479 150.596C530.508 150.675 530.536 150.749 530.57 150.829C531.228 152.53 531.972 154.277 532.624 155.786L535.83 158.691C535.83 158.691 537.192 159.825 539.234 161.527C543.677 165.271 551.354 171.862 555.315 175.895C558.798 179.457 559.888 193.264 560.217 203.661Z" fill="black"/>
<path d="M499.409 130.107C500.22 128.457 500.623 126.608 501.593 125.042C503.017 122.773 505.503 121.321 508.056 120.442C514.723 118.144 528.811 114.809 533.021 120.442C533.85 121.576 534.536 122.835 535.683 123.618C536.556 124.214 537.612 124.469 538.571 124.917C541.254 126.176 542.968 128.922 543.882 131.724C544.795 134.526 545.067 137.533 545.737 140.42C546.594 144.124 548.097 147.635 549.595 151.124C551.36 155.242 553.232 159.513 556.637 162.423C561.284 166.394 562.311 172.015 566.623 176.371C571.73 181.545 571.565 190.081 568.932 196.86C568.586 197.751 568.195 198.681 568.331 199.628C568.467 200.575 569.171 201.438 569.834 202.192L572.626 205.34C566.021 206.934 558.549 203.485 555.473 197.433C554.526 195.561 553.896 193.406 552.273 192.072C550.821 190.881 548.869 190.598 547.059 190.064C541.09 188.295 536.085 182.844 535.898 176.627C535.807 173.705 536.721 170.784 536.307 167.891C536.076 166.24 535.421 164.676 534.406 163.353C532.846 161.317 530.491 159.95 529.22 157.681C527.069 153.886 528.704 148.957 527.155 144.884C526.678 143.636 525.725 142.388 524.391 142.292C523.058 142.195 521.917 143.301 520.641 143.795C517.985 144.827 515.114 143.074 512.896 141.276C510.677 139.478 508.175 137.436 505.349 137.839C503.483 138.1 502.013 139.37 500.294 140.034C499.023 140.522 496.447 140.959 495.335 139.887C492.986 137.725 498.427 132.127 499.409 130.107Z" fill="#591D4B"/>
<path opacity="0.1" d="M557.051 195.561C556.098 193.689 555.474 191.534 553.851 190.206C552.398 189.015 550.446 188.726 548.631 188.193C542.667 186.428 537.663 180.977 537.47 174.76C537.379 171.839 538.293 168.912 537.884 166.019C537.646 164.378 536.992 162.826 535.983 161.51C534.417 159.473 532.063 158.106 530.797 155.837C528.647 152.048 530.281 147.119 528.726 143.04C528.255 141.798 527.296 140.55 525.969 140.448C524.641 140.346 523.489 141.464 522.218 141.957C519.563 142.989 516.686 141.231 514.473 139.438C512.26 137.646 509.747 135.598 506.927 135.995C505.06 136.262 503.585 137.533 501.871 138.191C500.6 138.678 498.019 139.121 496.906 138.049C494.569 135.78 500.01 130.193 500.986 128.184C501.797 126.528 502.2 124.685 503.176 123.119C503.227 123.034 503.284 122.949 503.341 122.864C502.611 123.468 501.981 124.184 501.474 124.985C500.504 126.551 500.101 128.389 499.29 130.051C498.308 132.059 492.867 137.663 495.21 139.915C496.345 140.993 498.898 140.55 500.169 140.062C501.871 139.399 503.358 138.128 505.225 137.867C508.062 137.464 510.558 139.512 512.771 141.305C514.984 143.097 517.878 144.856 520.522 143.823C521.793 143.33 522.905 142.218 524.266 142.32C525.628 142.422 526.536 143.664 527.03 144.912C528.579 148.985 526.945 153.914 529.095 157.709C530.366 159.938 532.721 161.334 534.281 163.382C535.297 164.705 535.951 166.268 536.182 167.92C536.596 170.812 535.683 173.734 535.773 176.655C535.961 182.895 540.965 188.323 546.934 190.093C548.733 190.626 550.696 190.91 552.149 192.101C553.777 193.434 554.418 195.589 555.349 197.461C558.424 203.514 565.897 206.963 572.501 205.369L571.185 203.882C565.46 203.968 559.667 200.712 557.051 195.561Z" fill="black"/>
<path opacity="0.1" d="M517.934 169.672C517.191 170.807 515.063 176.615 513.287 181.686C511.625 181.04 510.115 176.916 510.115 176.916L518.978 164.312C519.886 165.56 519.29 167.63 517.934 169.672Z" fill="black"/>
<path d="M518.275 169.332C517.531 170.466 515.404 176.275 513.628 181.346C511.965 180.705 510.456 176.576 510.456 176.576L519.319 163.977C520.227 165.219 519.631 167.296 518.275 169.332Z" fill="#DCE7FF"/>
<path d="M466.744 227.281L461.83 211.79C461.772 211.608 461.75 211.417 461.766 211.227C461.782 211.038 461.835 210.853 461.922 210.684C462.01 210.515 462.13 210.364 462.276 210.242C462.422 210.119 462.59 210.026 462.772 209.969C463.137 209.855 463.533 209.89 463.873 210.066C464.214 210.242 464.47 210.546 464.587 210.91L469.501 226.385L469.013 229.624L466.744 227.281Z" fill="#BE8B87"/>
<path opacity="0.1" d="M462.295 210.428C462.661 210.312 463.059 210.347 463.4 210.523C463.742 210.7 463.999 211.004 464.116 211.37L469.03 226.844L468.661 229.272L469.019 229.646L469.507 226.407L464.565 210.933C464.447 210.569 464.191 210.265 463.851 210.089C463.511 209.912 463.115 209.877 462.749 209.992C462.441 210.091 462.176 210.291 461.994 210.559C462.091 210.507 462.191 210.463 462.295 210.428Z" fill="white"/>
<path d="M466.743 227.281L469.501 226.407L469.098 229.062L469.013 229.646L468.207 228.807L466.743 227.281Z" fill="#EFC8C4"/>
<path d="M468.207 228.807C468.255 228.746 468.315 228.696 468.383 228.659C468.423 228.634 468.469 228.621 468.517 228.621C468.564 228.621 468.61 228.634 468.65 228.659C468.688 228.706 468.721 228.758 468.746 228.813C468.784 228.875 468.835 228.929 468.896 228.969C468.957 229.009 469.026 229.035 469.098 229.045L469.013 229.612L468.207 228.807Z" fill="#727A9C"/>
<path d="M461.801 217.292C461.801 217.292 471.657 217.235 469.336 221.427C467.016 225.619 463.39 226.124 463.39 226.124L461.801 217.292Z" fill="#FFB0B1"/>
<path d="M400.505 29.1674H400.08C383.148 29.1674 368.175 38.1241 359.562 51.3407C350.948 38.1241 335.975 29.1674 319.043 29.1674H318.618C305.912 29.2884 293.766 34.4178 284.822 43.4407C275.877 52.4636 270.855 64.6509 270.849 77.3543C270.849 93.1292 277.759 115.512 291.235 133.931C316.91 169.026 359.562 199.73 359.562 199.73C359.562 199.73 402.213 169.031 427.882 133.931C441.364 115.512 448.269 93.1292 448.269 77.3543C448.262 64.6519 443.241 52.4654 434.298 43.4426C425.354 34.4199 413.211 29.2899 400.505 29.1674ZM394.417 136.631C392.489 136.623 390.608 136.033 389.021 134.938C387.434 133.843 386.216 132.293 385.526 130.493H375.403C374.737 130.489 374.088 130.277 373.548 129.886C373.008 129.496 372.603 128.946 372.39 128.315L369.281 118.95L359.442 153.319C359.251 153.98 358.85 154.562 358.299 154.976C357.749 155.391 357.079 155.615 356.39 155.616H356.191C355.472 155.581 354.787 155.301 354.25 154.822C353.713 154.343 353.357 153.694 353.241 152.984L343.101 92.0174L335.691 128.094C335.521 128.779 335.126 129.388 334.57 129.823C334.014 130.258 333.328 130.494 332.621 130.493H318.363C317.935 130.511 317.508 130.443 317.108 130.292C316.708 130.141 316.342 129.91 316.034 129.614C315.725 129.318 315.479 128.963 315.311 128.569C315.143 128.176 315.057 127.753 315.057 127.325C315.057 126.897 315.143 126.474 315.311 126.081C315.479 125.687 315.725 125.332 316.034 125.036C316.342 124.74 316.708 124.51 317.108 124.359C317.508 124.208 317.935 124.139 318.363 124.157H330.125L340.622 75.6526C340.794 74.9354 341.21 74.3004 341.799 73.856C342.388 73.4117 343.113 73.1856 343.85 73.2164C344.587 73.2472 345.29 73.533 345.84 74.025C346.39 74.5169 346.751 75.1845 346.863 75.9135L357.218 138.105L366.036 107.355C366.219 106.708 366.607 106.137 367.142 105.728C367.677 105.319 368.33 105.094 369.003 105.087H369.065C369.732 105.087 370.382 105.297 370.922 105.689C371.462 106.08 371.865 106.631 372.073 107.265L377.696 124.174H385.401C385.949 122.51 386.946 121.03 388.282 119.897C389.618 118.764 391.242 118.021 392.973 117.752C394.705 117.483 396.477 117.698 398.094 118.372C399.711 119.046 401.111 120.154 402.138 121.573C403.165 122.992 403.78 124.668 403.915 126.414C404.05 128.161 403.7 129.91 402.903 131.471C402.106 133.031 400.893 134.34 399.399 135.255C397.904 136.169 396.186 136.653 394.434 136.653L394.417 136.631Z" fill="#4BB2E2"/>
</g>
<defs>
<linearGradient id="paint0_linear_20_412" x1="202.182" y1="439.536" x2="202.182" y2="90.4915" gradientUnits="userSpaceOnUse">
<stop stop-color="#808080" stop-opacity="0.25"/>
<stop offset="0.54" stop-color="#808080" stop-opacity="0.12"/>
<stop offset="1" stop-color="#808080" stop-opacity="0.1"/>
</linearGradient>
<linearGradient id="paint1_linear_20_412" x1="506.932" y1="435.123" x2="506.932" y2="116.335" gradientUnits="userSpaceOnUse">
<stop stop-color="#808080" stop-opacity="0.25"/>
<stop offset="0.54" stop-color="#808080" stop-opacity="0.12"/>
<stop offset="1" stop-color="#808080" stop-opacity="0.1"/>
</linearGradient>
<clipPath id="clip0_20_412">
<rect width="627" height="444" fill="white"/>
</clipPath>
</defs>
</svg>
