<svg width="16" height="16" viewBox="0 0 16 16" fill="none" xmlns="http://www.w3.org/2000/svg">
<path d="M8 7.16667C8.88406 7.16667 9.7319 6.81548 10.357 6.19036C10.9821 5.56523 11.3333 4.71739 11.3333 3.83333C11.3333 2.94928 10.9821 2.10143 10.357 1.47631C9.7319 0.851189 8.88406 0.5 8 0.5C7.11594 0.5 6.2681 0.851189 5.64298 1.47631C5.01786 2.10143 4.66667 2.94928 4.66667 3.83333C4.66667 4.71739 5.01786 5.56523 5.64298 6.19036C6.2681 6.81548 7.11594 7.16667 8 7.16667ZM5.18333 8.76833L5.495 8.31083C6.25269 8.6551 7.07527 8.83325 7.9075 8.83333H8.09333C8.80696 8.83322 9.51451 8.70216 10.1808 8.44667L10.4 8.76833C10.5017 8.91833 10.6042 9.21 10.6725 9.57917C10.7392 9.935 10.7575 10.2725 10.745 10.4583C10.7401 10.543 10.7514 10.6279 10.7783 10.7083H10.4633C10.3429 10.7085 10.2249 10.743 10.1234 10.8078C10.0218 10.8726 9.94088 10.965 9.89 11.0742L9.31417 12.3075C9.26919 12.404 9.24928 12.5103 9.25627 12.6166C9.26326 12.7228 9.29693 12.8256 9.35416 12.9154C9.41139 13.0052 9.49035 13.0791 9.58371 13.1303C9.67708 13.1815 9.78185 13.2083 9.88833 13.2083H10.8333V11.9583H11.875V13.2083H12.7783C12.8848 13.2083 12.9896 13.1815 13.083 13.1303C13.1763 13.0791 13.2553 13.0052 13.3125 12.9154C13.3697 12.8256 13.4034 12.7228 13.4104 12.6166C13.4174 12.5103 13.3975 12.404 13.3525 12.3075L12.7775 11.0742C12.7265 10.9647 12.6453 10.8721 12.5434 10.8073C12.4415 10.7425 12.3232 10.7082 12.2025 10.7083H11.9583C11.9765 10.6544 11.9877 10.5984 11.9917 10.5417C12.0133 10.2267 11.9817 9.78167 11.9017 9.35C11.8242 8.93167 11.6833 8.4325 11.4333 8.065L11.3925 8.005C11.4346 8.00173 11.4769 8.00006 11.5192 8C12.0419 8 12.5596 8.10297 13.0426 8.30302C13.5255 8.50308 13.9644 8.7963 14.334 9.16596C14.7037 9.53561 14.9969 9.97446 15.197 10.4574C15.397 10.9404 15.5 11.4581 15.5 11.9808V15.5H0.5V11.9808C0.5 9.88083 2.125 8.16083 4.18667 8.01083L4.15 8.065C3.6575 8.78917 3.5825 9.68667 3.64333 10.4067C3.66417 10.6542 3.70167 10.8983 3.75333 11.1283C3.54766 11.3111 3.40804 11.5566 3.35611 11.8268C3.30418 12.097 3.34285 12.3768 3.46612 12.6228C3.58939 12.8687 3.79037 13.0672 4.03791 13.1873C4.28544 13.3074 4.56569 13.3425 4.8352 13.2871C5.10471 13.2318 5.34842 13.089 5.52854 12.8811C5.70867 12.6731 5.81514 12.4115 5.83145 12.1368C5.84776 11.8622 5.77299 11.5898 5.61875 11.362C5.4645 11.1341 5.2394 10.9635 4.97833 10.8767C4.93497 10.6873 4.90489 10.4952 4.88833 10.3017C4.83833 9.71333 4.92167 9.1525 5.18333 8.76833Z" fill="black"/>
</svg>
