<svg width="16" height="16" viewBox="0 0 16 16" fill="none" xmlns="http://www.w3.org/2000/svg">
<path d="M10.2499 11.7124C9.99366 11.1843 9.66241 10.7999 9.09054 11.0343L7.96241 11.453C7.05929 11.8718 6.60929 11.453 6.15616 10.8218L4.12491 6.20304C3.87179 5.67492 4.00304 5.17804 4.57491 4.94367L6.15304 4.31242C6.72491 4.07492 6.63429 3.58117 6.37804 3.05304L5.03116 0.53429C4.77491 0.0061655 4.24991 -0.12196 3.67804 0.112415C2.53116 0.584291 1.58429 1.32492 0.971786 2.42179C0.221786 3.76242 0.596785 5.62804 0.746785 6.41242C0.896785 7.19679 1.42179 8.57179 2.09991 9.98116C2.77804 11.3937 3.37491 12.503 3.90616 13.1312C4.43741 13.7593 5.71241 15.478 7.29054 15.8624C8.58429 16.1749 9.98116 15.9124 11.1249 15.4405C11.6968 15.2062 11.6999 14.7093 11.4437 14.178L10.2499 11.7124ZM15.2937 4.30304L14.0624 3.07179L12.2155 4.91867L10.3687 3.07179L9.13741 4.30304L10.9843 6.14992L9.13741 7.99992L10.3687 9.23116L12.2155 7.38429L14.0624 9.23116L15.2937 7.99992L13.4468 6.15304L15.2937 4.30304Z" fill="black"/>
</svg>
