<svg width="14" height="14" viewBox="0 0 14 14" fill="none" xmlns="http://www.w3.org/2000/svg">
<path d="M13.1663 7.00009H4.92967M2.02234 7.00009H0.833008M2.02234 7.00009C2.02234 6.61464 2.17546 6.24498 2.44801 5.97243C2.72057 5.69987 3.09023 5.54676 3.47567 5.54676C3.86112 5.54676 4.23078 5.69987 4.50334 5.97243C4.77589 6.24498 4.92901 6.61464 4.92901 7.00009C4.92901 7.38554 4.77589 7.7552 4.50334 8.02775C4.23078 8.3003 3.86112 8.45342 3.47567 8.45342C3.09023 8.45342 2.72057 8.3003 2.44801 8.02775C2.17546 7.7552 2.02234 7.38554 2.02234 7.00009ZM13.1663 11.4048H9.33434M9.33434 11.4048C9.33434 11.7903 9.18085 12.1604 8.90824 12.433C8.63562 12.7056 8.26588 12.8588 7.88034 12.8588C7.49489 12.8588 7.12523 12.705 6.85268 12.4324C6.58013 12.1599 6.42701 11.7902 6.42701 11.4048M9.33434 11.4048C9.33434 11.0192 9.18085 10.6498 8.90824 10.3772C8.63562 10.1046 8.26588 9.95142 7.88034 9.95142C7.49489 9.95142 7.12523 10.1045 6.85268 10.3771C6.58013 10.6496 6.42701 11.0193 6.42701 11.4048M6.42701 11.4048H0.833008M13.1663 2.59542H11.0963M8.18901 2.59542H0.833008M8.18901 2.59542C8.18901 2.20998 8.34213 1.84031 8.61468 1.56776C8.88723 1.29521 9.25689 1.14209 9.64234 1.14209C9.83319 1.14209 10.0222 1.17968 10.1985 1.25272C10.3748 1.32576 10.535 1.43281 10.67 1.56776C10.805 1.70272 10.912 1.86293 10.985 2.03926C11.0581 2.21558 11.0957 2.40457 11.0957 2.59542C11.0957 2.78628 11.0581 2.97526 10.985 3.15159C10.912 3.32792 10.805 3.48813 10.67 3.62308C10.535 3.75804 10.3748 3.86509 10.1985 3.93813C10.0222 4.01116 9.83319 4.04876 9.64234 4.04876C9.25689 4.04876 8.88723 3.89564 8.61468 3.62308C8.34213 3.35053 8.18901 2.98087 8.18901 2.59542Z" stroke="black" stroke-width="1.5" stroke-miterlimit="10" stroke-linecap="round"/>
</svg>
