<svg width="11" height="10" viewBox="0 0 11 10" fill="none" xmlns="http://www.w3.org/2000/svg">
<path d="M3.26766 0.5H10.4997C10.6323 0.5 10.7594 0.552679 10.8532 0.646447C10.947 0.740215 10.9997 0.867392 10.9997 1V9C10.9997 9.13261 10.947 9.25979 10.8532 9.35355C10.7594 9.44732 10.6323 9.5 10.4997 9.5H3.26766C3.18528 9.50009 3.10415 9.47983 3.03149 9.44102C2.95883 9.4022 2.89688 9.34603 2.85116 9.2775L0.184661 5.2775C0.129841 5.19534 0.100586 5.09877 0.100586 5C0.100586 4.90123 0.129841 4.80467 0.184661 4.7225L2.85116 0.7225C2.89688 0.653972 2.95883 0.597802 3.03149 0.558985C3.10415 0.520168 3.18528 0.499906 3.26766 0.5ZM7.99966 4.5H4.50016V5.5H8.00016L7.99966 4.5Z" fill="black"/>
</svg>
