<svg width="20" height="14" viewBox="0 0 20 14" fill="none" xmlns="http://www.w3.org/2000/svg">
<path d="M15.5556 5.3335L20 0.889052V13.1113L15.5556 8.66683V12.5557C15.5556 12.8504 15.4385 13.133 15.2301 13.3414C15.0217 13.5498 14.7391 13.6668 14.4444 13.6668H1.11111C0.816426 13.6668 0.533811 13.5498 0.325437 13.3414C0.117063 13.133 0 12.8504 0 12.5557V1.44461C0 1.14992 0.117063 0.867307 0.325437 0.658933C0.533811 0.450559 0.816426 0.333496 1.11111 0.333496H14.4444C14.7391 0.333496 15.0217 0.450559 15.2301 0.658933C15.4385 0.867307 15.5556 1.14992 15.5556 1.44461V5.3335ZM12.2222 11.4446V10.3335C12.2222 8.85572 9.25556 8.11127 7.77778 8.11127C6.3 8.11127 3.33333 8.85572 3.33333 10.3335V11.4446H12.2222ZM7.77778 2.55572C7.18841 2.55572 6.62318 2.78984 6.20643 3.20659C5.78968 3.62334 5.55556 4.18857 5.55556 4.77794C5.55556 5.36731 5.78968 5.93254 6.20643 6.34929C6.62318 6.76604 7.18841 7.00016 7.77778 7.00016C8.36715 7.00016 8.93238 6.76604 9.34913 6.34929C9.76587 5.93254 10 5.36731 10 4.77794C10 4.18857 9.76587 3.62334 9.34913 3.20659C8.93238 2.78984 8.36715 2.55572 7.77778 2.55572Z" fill="black"/>
</svg>
