<svg width="20" height="14" viewBox="0 0 20 14" fill="none" xmlns="http://www.w3.org/2000/svg">
<path d="M14.4443 0.333008C14.739 0.333008 15.0221 0.450806 15.2305 0.65918C15.4386 0.867491 15.5556 1.14987 15.5557 1.44434V5.33301L20 0.888672V13.1113L15.5557 8.66699V12.5557C15.5556 12.8501 15.4386 13.1325 15.2305 13.3408C15.0221 13.5492 14.739 13.667 14.4443 13.667H1.11133C0.816643 13.667 0.533569 13.5492 0.325195 13.3408C0.117051 13.1325 2.89154e-05 12.8502 0 12.5557V1.44434C2.86946e-05 1.14984 0.117051 0.867497 0.325195 0.65918C0.533569 0.450806 0.816643 0.333008 1.11133 0.333008H14.4443ZM9.74609 7.00391L9.77539 7.0459C9.95314 7.30723 10.0533 7.6625 10.1084 7.95996C10.1653 8.26688 10.1873 8.58365 10.1719 8.80762C10.169 8.84783 10.1613 8.88758 10.1484 8.92578H10.3223C10.408 8.92573 10.4921 8.95007 10.5645 8.99609C10.6367 9.04209 10.6942 9.10794 10.7305 9.18555L11.1396 10.0635C11.1715 10.132 11.1856 10.2078 11.1807 10.2832C11.1756 10.3585 11.1519 10.4314 11.1113 10.4951C11.0706 10.5589 11.0146 10.612 10.9482 10.6484C10.8819 10.6848 10.8071 10.7031 10.7314 10.7031H10.0889V9.81445H9.34863V10.7031H8.67578C8.60037 10.7031 8.52612 10.6846 8.45996 10.6484C8.39357 10.612 8.3366 10.559 8.2959 10.4951C8.2554 10.4315 8.23158 10.3585 8.22656 10.2832C8.2216 10.2078 8.23576 10.132 8.26758 10.0635L8.67773 9.18555C8.71393 9.10811 8.77168 9.04208 8.84375 8.99609C8.91581 8.95023 8.99954 8.92591 9.08496 8.92578H9.30957C9.29043 8.86857 9.28168 8.80827 9.28516 8.74805C9.29404 8.61591 9.28079 8.37605 9.2334 8.12305C9.18481 7.86053 9.11234 7.65257 9.04004 7.5459L8.88379 7.31738C8.41006 7.49898 7.90676 7.59269 7.39941 7.59277H7.26758C6.67579 7.59271 6.09054 7.46551 5.55176 7.2207L5.33008 7.5459C5.144 7.81908 5.08554 8.21835 5.12109 8.63672C5.13287 8.77431 5.15374 8.91129 5.18457 9.0459C5.37013 9.10765 5.52997 9.22872 5.63965 9.39062C5.74929 9.55258 5.80256 9.74617 5.79102 9.94141C5.77942 10.1366 5.70415 10.3228 5.57617 10.4707C5.4481 10.6186 5.27463 10.7204 5.08301 10.7598C4.89136 10.7991 4.69165 10.7739 4.51562 10.6885C4.33975 10.603 4.19698 10.4619 4.10938 10.2871C4.02174 10.1122 3.99433 9.91282 4.03125 9.7207C4.06824 9.52881 4.16741 9.35445 4.31348 9.22461C4.27674 9.06105 4.25017 8.88694 4.23535 8.71094C4.19215 8.199 4.24557 7.56074 4.5957 7.0459L4.62207 7.00781C3.156 7.11448 2 8.33772 2 9.83105V12.333H12.667V9.83105C12.667 9.45931 12.5934 9.09052 12.4512 8.74707C12.3089 8.40382 12.1006 8.09185 11.8379 7.8291C11.575 7.56624 11.2624 7.35808 10.9189 7.21582C10.5755 7.07359 10.2076 7 9.83594 7C9.80594 7.00004 9.776 7.00159 9.74609 7.00391ZM7.33301 1.66699C6.70459 1.6671 6.10164 1.91604 5.65723 2.36035C5.2127 2.80488 4.96289 3.40845 4.96289 4.03711C4.96293 4.66565 5.21281 5.26841 5.65723 5.71289C6.10166 6.15732 6.7045 6.40712 7.33301 6.40723C7.96167 6.40723 8.56524 6.15742 9.00977 5.71289C9.45413 5.26842 9.70406 4.66562 9.7041 4.03711C9.7041 3.40845 9.4543 2.80488 9.00977 2.36035C8.56525 1.9159 7.96161 1.66699 7.33301 1.66699Z" fill="black"/>
</svg>
