<svg width="19" height="16" viewBox="0 0 19 16" fill="none" xmlns="http://www.w3.org/2000/svg">
<path d="M13 10C12.1667 10 11.4583 9.70833 10.875 9.125C10.2917 8.54167 10 7.83333 10 7C10 6.16667 10.2917 5.45833 10.875 4.875C11.4583 4.29167 12.1667 4 13 4C13.8333 4 14.5417 4.29167 15.125 4.875C15.7083 5.45833 16 6.16667 16 7C16 7.83333 15.7083 8.54167 15.125 9.125C14.5417 9.70833 13.8333 10 13 10ZM8 16C7.71667 16 7.47934 15.904 7.288 15.712C7.09667 15.52 7.00067 15.2827 7 15V14.1C7 13.75 7.08334 13.4167 7.25 13.1C7.41667 12.7833 7.65 12.5333 7.95 12.35C8.7 11.9 9.496 11.5627 10.338 11.338C11.18 11.1133 12.0673 11.0007 13 11C13.9327 10.9993 14.8203 11.112 15.663 11.338C16.5057 11.564 17.3013 11.9013 18.05 12.35C18.35 12.5333 18.5833 12.7833 18.75 13.1C18.9167 13.4167 19 13.75 19 14.1V15C19 15.2833 18.904 15.521 18.712 15.713C18.52 15.905 18.2827 16.0007 18 16H8ZM7 10H1C0.71667 10 0.479337 9.904 0.288004 9.712C0.0966702 9.52 0.000670115 9.28267 3.44827e-06 9C-0.000663218 8.71733 0.0953369 8.48 0.288004 8.288C0.48067 8.096 0.718003 8 1 8H7C7.28334 8 7.521 8.096 7.713 8.288C7.905 8.48 8.00067 8.71733 8 9C7.99934 9.28267 7.90334 9.52033 7.712 9.713C7.52067 9.90567 7.28334 10.0013 7 10ZM11 2H1C0.71667 2 0.479337 1.904 0.288004 1.712C0.0966702 1.52 0.000670115 1.28267 3.44827e-06 1C-0.000663218 0.717333 0.0953369 0.48 0.288004 0.288C0.48067 0.0960001 0.718003 0 1 0H11C11.2833 0 11.521 0.0960001 11.713 0.288C11.905 0.48 12.0007 0.717333 12 1C11.9993 1.28267 11.9033 1.52033 11.712 1.713C11.5207 1.90567 11.2833 2.00133 11 2ZM8.1 6H1C0.71667 6 0.479337 5.904 0.288004 5.712C0.0966702 5.52 0.000670115 5.28267 3.44827e-06 5C-0.000663218 4.71733 0.0953369 4.48 0.288004 4.288C0.48067 4.096 0.718003 4 1 4H9C8.76667 4.28333 8.57934 4.59167 8.438 4.925C8.29667 5.25833 8.184 5.61667 8.1 6Z" fill="#181818"/>
</svg>
