<svg width="12" height="14" viewBox="0 0 12 14" fill="none" xmlns="http://www.w3.org/2000/svg">
<path d="M1.33341 13.6667C1.1566 13.6667 0.987035 13.5964 0.86201 13.4714C0.736986 13.3464 0.666748 13.1768 0.666748 13V1C0.666748 0.823192 0.736986 0.653622 0.86201 0.528598C0.987035 0.403574 1.1566 0.333336 1.33341 0.333336H10.6667C10.8436 0.333336 11.0131 0.403574 11.1382 0.528598C11.2632 0.653622 11.3334 0.823192 11.3334 1V13C11.3334 13.1768 11.2632 13.3464 11.1382 13.4714C11.0131 13.5964 10.8436 13.6667 10.6667 13.6667H1.33341ZM8.00008 9.66667L11.3334 7L8.00008 4.33334V6.33334H4.00008V7.66667H8.00008V9.66667Z" fill="black"/>
</svg>
