<svg width="17" height="14" viewBox="0 0 17 14" fill="none" xmlns="http://www.w3.org/2000/svg">
<path d="M11.3333 8.66683C10.6389 8.66683 10.0486 8.42377 9.5625 7.93766C9.07639 7.45155 8.83334 6.86127 8.83334 6.16683C8.83334 5.47239 9.07639 4.88211 9.5625 4.396C10.0486 3.90989 10.6389 3.66683 11.3333 3.66683C12.0278 3.66683 12.6181 3.90989 13.1042 4.396C13.5903 4.88211 13.8333 5.47239 13.8333 6.16683C13.8333 6.86127 13.5903 7.45155 13.1042 7.93766C12.6181 8.42377 12.0278 8.66683 11.3333 8.66683ZM7.16667 13.6668C6.93056 13.6668 6.73278 13.5868 6.57334 13.4268C6.41389 13.2668 6.33389 13.0691 6.33334 12.8335V12.0835C6.33334 11.7918 6.40278 11.5141 6.54167 11.2502C6.68056 10.9863 6.875 10.7779 7.125 10.6252C7.75 10.2502 8.41334 9.96905 9.115 9.78183C9.81667 9.59461 10.5561 9.50072 11.3333 9.50016C12.1106 9.49961 12.8503 9.5935 13.5525 9.78183C14.2547 9.97016 14.9178 10.2513 15.5417 10.6252C15.7917 10.7779 15.9861 10.9863 16.125 11.2502C16.2639 11.5141 16.3333 11.7918 16.3333 12.0835V12.8335C16.3333 13.0696 16.2533 13.2677 16.0933 13.4277C15.9333 13.5877 15.7356 13.6674 15.5 13.6668H7.16667ZM6.33334 8.66683H1.33334C1.09723 8.66683 0.899447 8.58683 0.740003 8.42683C0.580559 8.26683 0.500558 8.06905 0.500003 7.8335C0.499447 7.59794 0.579447 7.40016 0.740003 7.24016C0.900559 7.08016 1.09834 7.00016 1.33334 7.00016H6.33334C6.56945 7.00016 6.7675 7.08016 6.9275 7.24016C7.0875 7.40016 7.16723 7.59794 7.16667 7.8335C7.16611 8.06905 7.08611 8.26711 6.92667 8.42766C6.76723 8.58822 6.56945 8.66794 6.33334 8.66683ZM9.66667 2.00016H1.33334C1.09723 2.00016 0.899447 1.92016 0.740003 1.76016C0.580559 1.60016 0.500558 1.40238 0.500003 1.16683C0.499447 0.931274 0.579447 0.733496 0.740003 0.573496C0.900559 0.413496 1.09834 0.333496 1.33334 0.333496H9.66667C9.90278 0.333496 10.1008 0.413496 10.2608 0.573496C10.4208 0.733496 10.5006 0.931274 10.5 1.16683C10.4994 1.40238 10.4194 1.60044 10.26 1.761C10.1006 1.92155 9.90278 2.00127 9.66667 2.00016ZM7.25 5.3335H1.33334C1.09723 5.3335 0.899447 5.2535 0.740003 5.0935C0.580559 4.9335 0.500558 4.73572 0.500003 4.50016C0.499447 4.26461 0.579447 4.06683 0.740003 3.90683C0.900559 3.74683 1.09834 3.66683 1.33334 3.66683H8C7.80556 3.90294 7.64945 4.15989 7.53167 4.43766C7.41389 4.71544 7.32 5.01405 7.25 5.3335Z" fill="white"/>
</svg>
