<svg width="18" height="20" viewBox="0 0 18 20" fill="none" xmlns="http://www.w3.org/2000/svg">
<path d="M13 20C11.6167 20 10.4377 19.5123 9.463 18.537C8.48833 17.5617 8.00067 16.3827 8 15C7.99933 13.6173 8.487 12.4383 9.463 11.463C10.439 10.4877 11.618 10 13 10C14.382 10 15.5613 10.4877 16.538 11.463C17.5147 12.4383 18.002 13.6173 18 15C17.998 16.3827 17.5103 17.562 16.537 18.538C15.5637 19.514 14.3847 20.0013 13 20ZM8 20C5.68333 19.4167 3.77067 18.0873 2.262 16.012C0.753334 13.9367 -0.000666225 11.6327 4.41696e-07 9.1V3L8 0L16 3V8.675C15.5667 8.45833 15.079 8.29167 14.537 8.175C13.995 8.05833 13.4827 8 13 8C11.0667 8 9.41667 8.68333 8.05 10.05C6.68333 11.4167 6 13.0667 6 15C6 16.0333 6.196 16.9667 6.588 17.8C6.98 18.6333 7.47567 19.3583 8.075 19.975C8.05833 19.975 8.046 19.9793 8.038 19.988C8.03 19.9967 8.01733 20.0007 8 20ZM13 15C13.4167 15 13.771 14.8543 14.063 14.563C14.355 14.2717 14.5007 13.9173 14.5 13.5C14.4993 13.0827 14.3537 12.7287 14.063 12.438C13.7723 12.1473 13.418 12.0013 13 12C12.582 11.9987 12.228 12.1447 11.938 12.438C11.648 12.7313 11.502 13.0853 11.5 13.5C11.498 13.9147 11.644 14.269 11.938 14.563C12.232 14.857 12.586 15.0027 13 15ZM13 18C13.5167 18 13.9917 17.879 14.425 17.637C14.8583 17.395 15.2083 17.0743 15.475 16.675C15.1083 16.4583 14.7167 16.2917 14.3 16.175C13.8833 16.0583 13.45 16 13 16C12.55 16 12.1167 16.0583 11.7 16.175C11.2833 16.2917 10.8917 16.4583 10.525 16.675C10.7917 17.075 11.1417 17.396 11.575 17.638C12.0083 17.88 12.4833 18.0007 13 18Z" fill="#181818"/>
</svg>
